{
.appVersion = "983";
copyright = "Copyright (c) 2010-13 by Vernon Adams";
customParameters = (
{
name = description;
value = "Copyright (c) 2010-13 by Vernon Adams";
},
{
name = license;
value = "Copyright (c) 2013, vernon adams (vernnobile@gmail.com),with Reserved Font Name Oswald. This Font Software is licensed under the SIL Open Font License, Version 1.1.";
},
{
name = licenseURL;
value = "http://scripts.sil.org/OFL";
},
{
name = vendorID;
value = newt;
},
{
name = panose;
value = (
2,
0,
3,
3,
0,
0,
0,
0,
0,
0
);
},
{
name = unicodeRanges;
value = (
0,
1,
2,
3,
5,
6,
7,
9,
29,
31,
32,
33,
35,
38,
45,
62
);
},
{
name = codePageRanges;
value = (
1252,
1250,
1251,
1254,
1257
);
},
{
name = glyphOrder;
value = (
.notdef,
uni0000,
uni000D,
space,
exclam,
quotedbl,
numbersign,
dollar,
percent,
ampersand,
quotesingle,
parenleft,
parenright,
asterisk,
plus,
comma,
hyphen,
period,
slash,
zero,
one,
two,
three,
four,
five,
six,
seven,
eight,
nine,
colon,
semicolon,
less,
equal,
greater,
question,
at,
A,
B,
C,
D,
E,
F,
G,
H,
I,
J,
K,
L,
M,
N,
O,
P,
Q,
R,
S,
T,
U,
V,
W,
X,
Y,
Z,
bracketleft,
backslash,
bracketright,
asciicircum,
underscore,
grave,
a,
b,
c,
d,
e,
f,
g,
h,
i,
j,
k,
l,
m,
n,
o,
p,
q,
r,
s,
t,
u,
v,
w,
x,
y,
z,
braceleft,
bar,
braceright,
asciitilde,
uni00A0,
exclamdown,
cent,
sterling,
currency,
yen,
brokenbar,
section,
dieresis,
copyright,
ordfeminine,
guillemotleft,
logicalnot,
uni00AD,
registered,
macron,
degree,
plusminus,
uni00B2,
uni00B3,
acute,
mu,
paragraph,
periodcentered,
cedilla,
uni00B9,
ordmasculine,
guillemotright,
onequarter,
onehalf,
threequarters,
questiondown,
Agrave,
Aacute,
Acircumflex,
Atilde,
Adieresis,
Aring,
AE,
Ccedilla,
Egrave,
Eacute,
Ecircumflex,
Edieresis,
Igrave,
Iacute,
Icircumflex,
Idieresis,
Eth,
Ntilde,
Ograve,
Oacute,
Ocircumflex,
Otilde,
Odieresis,
multiply,
Oslash,
Ugrave,
Uacute,
Ucircumflex,
Udieresis,
Yacute,
Thorn,
germandbls,
agrave,
aacute,
acircumflex,
atilde,
adieresis,
aring,
ae,
ccedilla,
egrave,
eacute,

glyphs = (
{
glyphname = .notdef;
lastChange = "2017-12-16 11:27:02 +0000";
layers = (
{
layerId = "D5C3460E-3C16-46B0-9A2C-8808A9C39771";
paths = (
{
closed = 1;
nodes = (
"544 1297 LINE",
"544 68 LINE",
"136 68 LINE",
"136 1297 LINE"
);
},
{
closed = 1;
nodes = (
"612 1365 LINE",
"68 1365 LINE",
"68 0 LINE",
"612 0 LINE"
);
}
);
width = 748;
}
);
note = .notdef;
},
{
glyphname = exclam;
lastChange = "2017-12-16 11:27:02 +0000";
layers = (
{
layerId = "D5C3460E-3C16-46B0-9A2C-8808A9C39771";
paths = (
{
closed = 1;
nodes = (
"285 179 LINE",
"125 179 LINE",
"125 0 LINE",
"285 0 LINE"
);
},
{
closed = 1;
nodes = (
"287 1658 LINE",
"127 1658 LINE",
"179 356 LINE",
"232 356 LINE"
);
}
);
width = 412;
}
);
note = exclam;
unicode = 0021;
},
{
glyphname = quotedbl;
lastChange = "2017-12-16 11:27:02 +0000";
layers = (
{
layerId = "D5C3460E-3C16-46B0-9A2C-8808A9C39771";
paths = (
{
closed = 1;
nodes = (
"311 1658 LINE",
"167 1658 LINE",
"167 1174 LINE",
"249 1174 LINE"
);
},
{
closed = 1;
nodes = (
"594 1658 LINE",
"450 1658 LINE",
"450 1174 LINE",
"532 1174 LINE"
);
}
);
width = 729;
}
);
leftKerningGroup = quotedbl;
note = quotedbl;
unicode = 0022;
},
{
glyphname = numbersign;
lastChange = "2017-12-16 11:27:02 +0000";
layers = (
{
layerId = "D5C3460E-3C16-46B0-9A2C-8808A9C39771";
paths = (
{
closed = 1;
nodes = (
"346 597 LINE",
"548 597 LINE",
"456 0 LINE",
"603 0 LINE",
"695 597 LINE",
"853 597 LINE",
"853 708 LINE",
"711 708 LINE",
"758 998 LINE",
"878 998 LINE",
"878 1109 LINE",
"774 1109 LINE",
"859 1658 LINE",
"713 1658 LINE",
"628 1109 LINE",
"425 1109 LINE",
"510 1658 LINE",
"364 1658 LINE",
"279 1109 LINE",
"110 1109 LINE",
"110 998 LINE",
"262 998 LINE",
"216 708 LINE",
"84 708 LINE",
"84 597 LINE",
"199 597 LINE",
"108 0 LINE",
"254 0 LINE"
);
},
{
closed = 1;
nodes = (
"611 998 LINE",
"565 708 LINE",
"362 708 LINE",
"409 998 LINE"
);
}
);
width = 953;
}
);
note = numbersign;
unicode = 0023;
},
{
glyphname = dollar;
lastChange = "2017-12-16 11:27:02 +0000";
layers = (
{
layerId = "D5C3460E-3C16-46B0-9A2C-8808A9C39771";
paths = (
{
closed = 1;
nodes = (
"550 -18 LINE",
"751 2 OFFCURVE",
"880 134 OFFCURVE",
"880 357 CURVE SMOOTH",
"880 529 OFFCURVE",
"788 671 OFFCURVE",
"637 815 CURVE SMOOTH",
"345 1092 LINE SMOOTH",
"260 1175 OFFCURVE",
"228 1242 OFFCURVE",
"228 1333 CURVE SMOOTH",
"228 1478 OFFCURVE",
"317 1549 OFFCURVE",
"462 1553 CURVE SMOOTH",
"466 1553 OFFCURVE",
"470 1553 OFFCURVE",
"474 1553 CURVE SMOOTH",
"639 1553 OFFCURVE",
"707 1445 OFFCURVE",
"726 1221 CURVE",
"858 1255 LINE",
"838 1536 OFFCURVE",
"723 1663 OFFCURVE",
"503 1675 CURVE",
"503 1848 LINE",
"438 1848 LINE",
"438 1675 LINE",
"221 1666 OFFCURVE",
"87 1537 OFFCURVE",
"87 1320 CURVE SMOOTH",
"87 1193 OFFCURVE",
"137 1082 OFFCURVE",
"237 986 CURVE SMOOTH",
"531 704 LINE SMOOTH",
"600 636 OFFCURVE",
"638 596 OFFCURVE",
"678 537 CURVE SMOOTH",
"717 477 OFFCURVE",
"734 417 OFFCURVE",
"734 346 CURVE SMOOTH",
"734 186 OFFCURVE",
"656 106 OFFCURVE",
"500 106 CURVE SMOOTH",
"461 106 OFFCURVE",
"426 112 OFFCURVE",
"396 125 CURVE SMOOTH",
"335 150 OFFCURVE",
"298 190 OFFCURVE",
"271 255 CURVE SMOOTH",
"243 319 OFFCURVE",
"231 382 OFFCURVE",
"222 470 CURVE",
"83 430 LINE",
"103 150 OFFCURVE",
"231 -15 OFFCURVE",
"487 -20 CURVE",
"487 -179 LINE",
"550 -179 LINE"
);
}
);
width = 954;
}
);
note = dollar;
unicode = 0024;
},
{
glyphname = percent;
lastChange = "2017-12-16 11:27:02 +0000";
layers = (
{
layerId = "D5C3460E-3C16-46B0-9A2C-8808A9C39771";
paths = (
{
closed = 1;
nodes = (
"249 942 OFFCURVE",
"219 1014 OFFCURVE",
"219 1138 CURVE SMOOTH",
"219 1381 LINE SMOOTH",
"219 1504 OFFCURVE",
"246 1573 OFFCURVE",
"333 1573 CURVE SMOOTH",
"420 1573 OFFCURVE",
"448 1504 OFFCURVE",
"448 1383 CURVE SMOOTH",
"448 1139 LINE SMOOTH",
"448 1014 OFFCURVE",
"418 942 OFFCURVE",
"333 942 CURVE SMOOTH"
);
},
{
closed = 1;
nodes = (
"584 1581 OFFCURVE",
"510 1689 OFFCURVE",
"333 1689 CURVE SMOOTH",
"156 1689 OFFCURVE",
"82 1578 OFFCURVE",
"82 1375 CURVE SMOOTH",
"82 1145 LINE SMOOTH",
"82 933 OFFCURVE",
"166 827 OFFCURVE",
"333 827 CURVE SMOOTH",
"500 827 OFFCURVE",
"584 932 OFFCURVE",
"584 1142 CURVE SMOOTH",
"584 1381 LINE SMOOTH"
);
},
{
closed = 1;
nodes = (
"1060 189 OFFCURVE",
"1052 237 OFFCURVE",
"1052 300 CURVE SMOOTH",
"1052 543 LINE SMOOTH",
"1052 666 OFFCURVE",
"1079 735 OFFCURVE",
"1166 735 CURVE SMOOTH",
"1251 735 OFFCURVE",
"1280 667 OFFCURVE",
"1280 544 CURVE SMOOTH",
"1280 301 LINE SMOOTH",
"1280 176 OFFCURVE",
"1251 103 OFFCURVE",
"1166 103 CURVE SMOOTH",
"1123 103 OFFCURVE",
"1094 120 OFFCURVE",
"1077 155 CURVE SMOOTH"
);
},
{
closed = 1;
nodes = (
"1417 743 OFFCURVE",
"1342 851 OFFCURVE",
"1166 851 CURVE SMOOTH",
"989 851 OFFCURVE",
"915 740 OFFCURVE",
"915 537 CURVE SMOOTH",
"915 307 LINE SMOOTH",
"915 94 OFFCURVE",
"999 -12 OFFCURVE",
"1166 -12 CURVE SMOOTH",
"1333 -12 OFFCURVE",
"1417 93 OFFCURVE",
"1417 303 CURVE SMOOTH",
"1417 543 LINE SMOOTH"
);
},
{
closed = 1;
nodes = (
"1080 1673 LINE",
"947 1673 LINE",
"422 0 LINE",
"556 0 LINE"
);
}
);
width = 1499;
}
);
note = percent;
unicode = 0025;
},
{
glyphname = ampersand;
lastChange = "2017-12-16 11:27:02 +0000";
layers = (
{
layerId = "D5C3460E-3C16-46B0-9A2C-8808A9C39771";
paths = (
{
closed = 1;
nodes = (
"646 -21 OFFCURVE",
"769 46 OFFCURVE",
"852 142 CURVE",
"932 45 OFFCURVE",
"1012 -6 OFFCURVE",
"1091 -11 CURVE",
"1104 -13 OFFCURVE",
"1117 -14 OFFCURVE",
"1130 -14 CURVE",
"1130 134 LINE",
"1059 134 OFFCURVE",
"996 169 OFFCURVE",
"941 240 CURVE",
"1048 371 OFFCURVE",
"1126 585 OFFCURVE",
"1126 736 CURVE",
"982 736 LINE",
"974 611 OFFCURVE",
"921 434 OFFCURVE",
"852 335 CURVE",
"533 839 LINE",
"750 1036 OFFCURVE",
"879 1208 OFFCURVE",
"879 1380 CURVE SMOOTH",
"879 1563 OFFCURVE",
"746 1676 OFFCURVE",
"539 1676 CURVE SMOOTH",
"323 1676 OFFCURVE",
"188 1545 OFFCURVE",
"188 1326 CURVE SMOOTH",
"188 1193 OFFCURVE",
"237 1096 OFFCURVE",
"362 884 CURVE SMOOTH",
"371 869 OFFCURVE",
"377 858 OFFCURVE",
"382 851 CURVE",
"198 672 OFFCURVE",
"117 526 OFFCURVE",
"117 357 CURVE SMOOTH",
"117 138 OFFCURVE",
"256 -21 OFFCURVE",
"499 -21 CURVE SMOOTH"
);
},
{
closed = 1;
nodes = (
"416 105 OFFCURVE",
"353 137 OFFCURVE",
"318 186 CURVE SMOOTH",
"283 235 OFFCURVE",
"268 293 OFFCURVE",
"268 357 CURVE SMOOTH",
"268 486 OFFCURVE",
"319 607 OFFCURVE",
"443 743 CURVE",
"766 240 LINE",
"683 150 OFFCURVE",
"595 105 OFFCURVE",
"500 105 CURVE SMOOTH"
);
},
{
closed = 1;
nodes = (
"379 1105 OFFCURVE",
"337 1209 OFFCURVE",
"337 1328 CURVE SMOOTH",
"337 1457 OFFCURVE",
"405 1552 OFFCURVE",
"537 1552 CURVE SMOOTH",
"657 1552 OFFCURVE",
"731 1490 OFFCURVE",
"731 1383 CURVE SMOOTH",
"731 1246 OFFCURVE",
"647 1093 OFFCURVE",
"478 926 CURVE"
);
}
);
width = 1236;
}
);
note = ampersand;
unicode = 0026;
},
{
glyphname = quotesingle;
lastChange = "2017-12-16 11:27:02 +0000";
layers = (
{
layerId = "D5C3460E-3C16-46B0-9A2C-8808A9C39771";
paths = (
{
closed = 1;
nodes = (
"311 1658 LINE",
"167 1658 LINE",
"167 1174 LINE",
"249 1174 LINE"
);
}
);
width = 586;
}
);
leftKerningGroup = quotesingle;
note = quotesingle;
unicode = 0027;
},
{
glyphname = parenleft;
lastChange = "2017-12-16 11:27:02 +0000";
layers = (
{
layerId = "D5C3460E-3C16-46B0-9A2C-8808A9C39771";
paths = (
{
closed = 1;
nodes = (
"442 -227 OFFCURVE",
"394 -190 OFFCURVE",
"366 -97 CURVE SMOOTH",
"338 -5 OFFCURVE",
"321 55 OFFCURVE",
"314 216 CURVE SMOOTH",
"307 377 OFFCURVE",
"307 436 OFFCURVE",
"307 639 CURVE SMOOTH",
"307 651 OFFCURVE",
"307 660 OFFCURVE",
"307 666 CURVE SMOOTH",
"307 671 OFFCURVE",
"307 677 OFFCURVE",
"307 686 CURVE SMOOTH",
"307 889 OFFCURVE",
"307 949 OFFCURVE",
"314 1111 CURVE SMOOTH",
"321 1273 OFFCURVE",
"338 1334 OFFCURVE",
"366 1428 CURVE SMOOTH",
"394 1522 OFFCURVE",
"442 1559 OFFCURVE",
"507 1566 CURVE",
"507 1671 LINE",
"423 1668 OFFCURVE",
"357 1643 OFFCURVE",
"310 1583 CURVE SMOOTH",
"262 1523 OFFCURVE",
"227 1471 OFFCURVE",
"207 1363 CURVE SMOOTH",
"186 1255 OFFCURVE",
"172 1190 OFFCURVE",
"167 1046 CURVE SMOOTH",
"162 901 OFFCURVE",
"161 833 OFFCURVE",
"161 666 CURVE SMOOTH",
"161 501 OFFCURVE",
"162 433 OFFCURVE",
"167 290 CURVE SMOOTH",
"172 146 OFFCURVE",
"186 82 OFFCURVE",
"207 -26 CURVE SMOOTH",
"227 -134 OFFCURVE",
"262 -185 OFFCURVE",
"310 -245 CURVE SMOOTH",
"357 -306 OFFCURVE",
"423 -333 OFFCURVE",
"507 -338 CURVE",
"507 -234 LINE"
);
}
);
width = 569;
}
);
note = parenleft;
unicode = 0028;
},
{
glyphname = parenright;
lastChange = "2017-12-16 11:27:02 +0000";
layers = (
{
layerId = "D5C3460E-3C16-46B0-9A2C-8808A9C39771";
paths = (
{
closed = 1;
nodes = (
"109 -335 OFFCURVE",
"152 -323 OFFCURVE",
"189 -301 CURVE SMOOTH",
"263 -258 OFFCURVE",
"308 -208 OFFCURVE",
"342 -98 CURVE SMOOTH",
"376 12 OFFCURVE",
"391 82 OFFCURVE",
"400 242 CURVE SMOOTH",
"409 402 OFFCURVE",
"409 477 OFFCURVE",
"409 668 CURVE SMOOTH",
"409 835 OFFCURVE",
"408 902 OFFCURVE",
"403 1047 CURVE SMOOTH",
"398 1191 OFFCURVE",
"384 1256 OFFCURVE",
"364 1364 CURVE SMOOTH",
"343 1472 OFFCURVE",
"308 1523 OFFCURVE",
"261 1583 CURVE SMOOTH",
"213 1643 OFFCURVE",
"146 1668 OFFCURVE",
"62 1671 CURVE",
"62 1567 LINE",
"127 1560 OFFCURVE",
"175 1524 OFFCURVE",
"204 1430 CURVE SMOOTH",
"232 1336 OFFCURVE",
"249 1276 OFFCURVE",
"256 1114 CURVE SMOOTH",
"263 952 OFFCURVE",
"263 892 OFFCURVE",
"263 688 CURVE SMOOTH",
"263 685 OFFCURVE",
"263 683 OFFCURVE",
"263 682 CURVE SMOOTH",
"263 680 OFFCURVE",
"263 678 OFFCURVE",
"263 675 CURVE SMOOTH",
"263 672 OFFCURVE",
"263 670 OFFCURVE",
"263 668 CURVE SMOOTH",
"263 663 OFFCURVE",
"263 657 OFFCURVE",
"263 648 CURVE SMOOTH",
"263 445 OFFCURVE",
"263 386 OFFCURVE",
"256 223 CURVE SMOOTH",
"249 60 OFFCURVE",
"232 -1 OFFCURVE",
"204 -95 CURVE SMOOTH",
"175 -189 OFFCURVE",
"127 -227 OFFCURVE",
"62 -234 CURVE",
"62 -338 LINE"
);
}
);
width = 526;
}
);
note = parenright;
unicode = 0029;
},
{
glyphname = asterisk;
lastChange = "2017-12-16 11:27:02 +0000";
layers = (
{
layerId = "D5C3460E-3C16-46B0-9A2C-8808A9C39771";
paths = (
{
closed = 1;
nodes = (
"551 990 LINE",
"643 1045 LINE",
"464 1286 LINE",
"719 1388 LINE",
"682 1484 LINE",
"437 1361 LINE",
"456 1657 LINE",
"340 1657 LINE",
"357 1361 LINE",
"110 1484 LINE",
"72 1388 LINE",
"328 1286 LINE",
"150 1047 LINE",
"241 990 LINE",
"396 1250 LINE"
);
}
);
width = 762;
}
);
note = asterisk;
unicode = 002A;
},
{
glyphname = plus;
lastChange = "2017-12-16 11:27:02 +0000";
layers = (
{
layerId = "D5C3460E-3C16-46B0-9A2C-8808A9C39771";
paths = (
{
closed = 1;
nodes = (
"447 795 LINE",
"737 795 LINE",
"737 908 LINE",
"447 908 LINE",
"447 1229 LINE",
"332 1229 LINE",
"332 908 LINE",
"48 908 LINE",
"48 795 LINE",
"332 795 LINE",
"332 471 LINE",
"447 471 LINE"
);
}
);
width = 785;
}
);
note = plus;
unicode = 002B;
},
{
glyphname = comma;
lastChange = "2017-12-16 11:27:02 +0000";
layers = (
{
layerId = "D5C3460E-3C16-46B0-9A2C-8808A9C39771";
paths = (
{
closed = 1;
nodes = (
"237 -186 OFFCURVE",
"277 -117 OFFCURVE",
"277 16 CURVE SMOOTH",
"277 223 LINE",
"109 223 LINE",
"109 0 LINE",
"199 0 LINE",
"199 -84 OFFCURVE",
"172 -133 OFFCURVE",
"101 -173 CURVE",
"132 -239 LINE"
);
}
);
width = 370;
}
);
leftKerningGroup = comma;
note = comma;
unicode = 002C;
},
{
glyphname = hyphen;
lastChange = "2017-12-16 11:27:02 +0000";
layers = (
{
layerId = "D5C3460E-3C16-46B0-9A2C-8808A9C39771";
paths = (
{
closed = 1;
nodes = (
"523 727 LINE",
"87 727 LINE",
"87 609 LINE",
"523 609 LINE"
);
}
);
width = 610;
}
);
note = hyphen;
unicode = 002D;
},
{
glyphname = period;
lastChange = "2017-12-16 11:27:02 +0000";
layers = (
{
layerId = "D5C3460E-3C16-46B0-9A2C-8808A9C39771";
paths = (
{
closed = 1;
nodes = (
"281 225 LINE",
"122 225 LINE",
"122 0 LINE",
"281 0 LINE"
);
}
);
width = 372;
}
);
leftKerningGroup = period;
note = period;
unicode = 002E;
},
{
glyphname = slash;
lastChange = "2017-12-16 11:27:02 +0000";
layers = (
{
layerId = "D5C3460E-3C16-46B0-9A2C-8808A9C39771";
paths = (
{
closed = 1;
nodes = (
"654 1658 LINE",
"522 1658 LINE",
"50 0 LINE",
"182 0 LINE"
);
}
);
width = 705;
}
);
note = slash;
unicode = 002F;
},
{
glyphname = zero;
lastChange = "2017-12-16 11:27:02 +0000";
layers = (
{
layerId = "D5C3460E-3C16-46B0-9A2C-8808A9C39771";
paths = (
{
closed = 1;
nodes = (
"261 1308 OFFCURVE",
"275 1387 OFFCURVE",
"311 1454 CURVE SMOOTH",
"347 1521 OFFCURVE",
"412 1557 OFFCURVE",
"504 1557 CURVE SMOOTH",
"596 1557 OFFCURVE",
"662 1521 OFFCURVE",
"698 1454 CURVE SMOOTH",
"733 1386 OFFCURVE",
"747 1308 OFFCURVE",
"747 1201 CURVE SMOOTH",
"747 456 LINE SMOOTH",
"747 219 OFFCURVE",
"666 100 OFFCURVE",
"504 100 CURVE SMOOTH",
"342 100 OFFCURVE",
"261 219 OFFCURVE",
"261 456 CURVE SMOOTH",
"261 1201 LINE SMOOTH"
);
},
{
closed = 1;
nodes = (
"768 -21 OFFCURVE",
"900 142 OFFCURVE",
"900 469 CURVE SMOOTH",
"900 1189 LINE SMOOTH",
"900 1514 OFFCURVE",
"768 1676 OFFCURVE",
"504 1676 CURVE SMOOTH",
"241 1676 OFFCURVE",
"109 1514 OFFCURVE",
"109 1189 CURVE SMOOTH",
"109 469 LINE SMOOTH",
"109 142 OFFCURVE",
"241 -21 OFFCURVE",
"504 -21 CURVE SMOOTH"
);
}
);
width = 1008;
}
);
note = zero;
unicode = 0030;
},
{
glyphname = one;
lastChange = "2017-12-16 11:27:02 +0000";
layers = (
{
layerId = "D5C3460E-3C16-46B0-9A2C-8808A9C39771";
paths = (
{
closed = 1;
nodes = (
"588 1658 LINE",
"467 1658 LINE",
"400 1566 OFFCURVE",
"276 1496 OFFCURVE",
"180 1471 CURVE",
"180 1350 LINE",
"331 1391 OFFCURVE",
"417 1428 OFFCURVE",
"438 1459 CURVE",
"438 0 LINE",
"588 0 LINE"
);
}
);
width = 875;
}
);
note = one;
unicode = 0031;
},
{
glyphname = two;
lastChange = "2017-12-16 11:27:02 +0000";
layers = (
{
layerId = "D5C3460E-3C16-46B0-9A2C-8808A9C39771";
paths = (
{
closed = 1;
nodes = (
"852 127 LINE",
"276 127 LINE",
"690 755 LINE SMOOTH",
"717 796 OFFCURVE",
"738 827 OFFCURVE",
"751 848 CURVE SMOOTH",
"778 890 OFFCURVE",
"829 980 OFFCURVE",
"849 1037 CURVE SMOOTH",
"869 1094 OFFCURVE",
"888 1176 OFFCURVE",
"888 1255 CURVE SMOOTH",
"888 1523 OFFCURVE",
"757 1676 OFFCURVE",
"510 1676 CURVE SMOOTH",
"235 1676 OFFCURVE",
"113 1520 OFFCURVE",
"113 1209 CURVE SMOOTH",
"113 1167 LINE",
"262 1167 LINE",
"262 1205 LINE SMOOTH",
"262 1309 OFFCURVE",
"276 1384 OFFCURVE",
"312 1450 CURVE SMOOTH",
"348 1516 OFFCURVE",
"417 1551 OFFCURVE",
"517 1551 CURVE SMOOTH",
"662 1551 OFFCURVE",
"738 1445 OFFCURVE",
"738 1265 CURVE SMOOTH",
"738 1222 OFFCURVE",
"736 1183 OFFCURVE",
"725 1143 CURVE SMOOTH",
"714 1102 OFFCURVE",
"710 1077 OFFCURVE",
"691 1037 CURVE SMOOTH",
"671 996 OFFCURVE",
"667 984 OFFCURVE",
"640 940 CURVE SMOOTH",
"613 895 OFFCURVE",
"612 893 OFFCURVE",
"579 844 CURVE SMOOTH",
"562 819 OFFCURVE",
"552 803 OFFCURVE",
"547 795 CURVE SMOOTH",
"101 110 LINE",
"101 0 LINE",
"852 0 LINE"
);
}
);
width = 993;
}
);
note = two;
unicode = 0032;
},
{
glyphname = three;
lastChange = "2017-12-16 11:27:02 +0000";
layers = (
{
layerId = "D5C3460E-3C16-46B0-9A2C-8808A9C39771";
paths = (
{
closed = 1;
nodes = (
"759 -21 OFFCURVE",
"882 157 OFFCURVE",
"882 453 CURVE SMOOTH",
"882 698 OFFCURVE",
"781 836 OFFCURVE",
"645 873 CURVE",
"789 906 OFFCURVE",
"882 1037 OFFCURVE",
"882 1261 CURVE SMOOTH",
"882 1516 OFFCURVE",
"754 1676 OFFCURVE",
"503 1676 CURVE SMOOTH",
"238 1676 OFFCURVE",
"118 1531 OFFCURVE",
"118 1276 CURVE SMOOTH",
"118 1238 LINE",
"264 1238 LINE",
"264 1266 LINE SMOOTH",
"267 1465 OFFCURVE",
"336 1554 OFFCURVE",
"503 1554 CURVE SMOOTH",
"667 1554 OFFCURVE",
"729 1447 OFFCURVE",
"729 1262 CURVE SMOOTH",
"729 1039 OFFCURVE",
"659 948 OFFCURVE",
"480 945 CURVE SMOOTH",
"440 945 LINE",
"440 804 LINE",
"441 804 OFFCURVE",
"448 804 OFFCURVE",
"461 804 CURVE",
"474 803 OFFCURVE",
"481 803 OFFCURVE",
"482 803 CURVE SMOOTH",
"647 798 OFFCURVE",
"729 680 OFFCURVE",
"729 451 CURVE SMOOTH",
"729 206 OFFCURVE",
"648 103 OFFCURVE",
"488 103 CURVE SMOOTH",
"329 103 OFFCURVE",
"267 202 OFFCURVE",
"264 390 CURVE",
"264 423 LINE",
"118 423 LINE",
"118 383 LINE SMOOTH",
"118 128 OFFCURVE",
"239 -21 OFFCURVE",
"488 -21 CURVE SMOOTH"
);
}
);
width = 980;
}
);
note = three;
unicode = 0033;
},
{
glyphname = four;
lastChange = "2017-12-16 11:27:02 +0000";
layers = (
{
layerId = "D5C3460E-3C16-46B0-9A2C-8808A9C39771";
paths = (
{
closed = 1;
nodes = (
"753 482 LINE",
"941 482 LINE",
"941 623 LINE",
"753 623 LINE",
"753 1659 LINE",
"571 1659 LINE",
"103 639 LINE",
"103 482 LINE",
"602 482 LINE",
"602 0 LINE",
"753 0 LINE"
);
},
{
closed = 1;
nodes = (
"602 623 LINE",
"257 623 LINE",
"602 1456 LINE"
);
}
);
width = 1008;
}
);
note = four;
unicode = 0034;
},
{
glyphname = five;
lastChange = "2017-12-16 11:27:02 +0000";
layers = (
{
layerId = "D5C3460E-3C16-46B0-9A2C-8808A9C39771";
paths = (
{
closed = 1;
nodes = (
"781 -19 OFFCURVE",
"893 170 OFFCURVE",
"893 542 CURVE SMOOTH",
"893 875 OFFCURVE",
"792 1053 OFFCURVE",
"555 1053 CURVE SMOOTH",
"444 1053 OFFCURVE",
"360 1016 OFFCURVE",
"301 943 CURVE",
"309 1518 LINE",
"819 1518 LINE",
"822 1658 LINE",
"176 1658 LINE",
"176 799 LINE",
"302 799 LINE",
"357 892 OFFCURVE",
"428 938 OFFCURVE",
"517 938 CURVE SMOOTH",
"685 938 OFFCURVE",
"745 828 OFFCURVE",
"745 524 CURVE SMOOTH",
"745 229 OFFCURVE",
"693 101 OFFCURVE",
"514 101 CURVE SMOOTH",
"350 101 OFFCURVE",
"289 213 OFFCURVE",
"289 428 CURVE",
"139 428 LINE",
"139 131 OFFCURVE",
"249 -19 OFFCURVE",
"509 -19 CURVE SMOOTH"
);
}
);
width = 991;
}
);
note = five;
unicode = 0035;
},
{
glyphname = six;
lastChange = "2017-12-16 11:27:02 +0000";
layers = (
{
layerId = "D5C3460E-3C16-46B0-9A2C-8808A9C39771";
paths = (
{
closed = 1;
nodes = (
"780 -21 OFFCURVE",
"911 148 OFFCURVE",
"911 485 CURVE SMOOTH",
"911 838 OFFCURVE",
"818 980 OFFCURVE",
"553 980 CURVE SMOOTH",
"444 980 OFFCURVE",
"342 935 OFFCURVE",
"285 882 CURVE",
"285 1195 LINE SMOOTH",
"285 1433 OFFCURVE",
"364 1552 OFFCURVE",
"522 1552 CURVE SMOOTH",
"682 1552 OFFCURVE",
"743 1470 OFFCURVE",
"743 1259 CURVE",
"891 1259 LINE",
"891 1260 OFFCURVE",
"891 1265 OFFCURVE",
"891 1275 CURVE",
"890 1285 OFFCURVE",
"890 1290 OFFCURVE",
"890 1291 CURVE",
"887 1548 OFFCURVE",
"766 1676 OFFCURVE",
"518 1676 CURVE SMOOTH",
"263 1676 OFFCURVE",
"135 1504 OFFCURVE",
"135 1161 CURVE SMOOTH",
"135 499 LINE SMOOTH",
"135 152 OFFCURVE",
"263 -21 OFFCURVE",
"518 -21 CURVE SMOOTH"
);
},
{
closed = 1;
nodes = (
"357 105 OFFCURVE",
"285 217 OFFCURVE",
"285 481 CURVE SMOOTH",
"285 768 LINE",
"333 815 OFFCURVE",
"430 863 OFFCURVE",
"518 863 CURVE SMOOTH",
"590 863 OFFCURVE",
"641 850 OFFCURVE",
"677 818 CURVE SMOOTH",
"712 785 OFFCURVE",
"732 749 OFFCURVE",
"744 682 CURVE SMOOTH",
"755 615 OFFCURVE",
"758 556 OFFCURVE",
"758 456 CURVE SMOOTH",
"758 209 OFFCURVE",
"683 105 OFFCURVE",
"518 105 CURVE SMOOTH"
);
}
);
width = 1006;
}
);
note = six;
unicode = 0036;
},
{
glyphname = seven;
lastChange = "2017-12-16 11:27:02 +0000";
layers = (
{
layerId = "D5C3460E-3C16-46B0-9A2C-8808A9C39771";
paths = (
{
closed = 1;
nodes = (
"772 1585 LINE",
"772 1658 LINE",
"118 1658 LINE",
"118 1538 LINE",
"620 1538 LINE",
"297 0 LINE",
"443 0 LINE"
);
}
);
width = 887;
}
);
note = seven;
unicode = 0037;
},
{
glyphname = eight;
lastChange = "2017-12-16 11:27:02 +0000";
layers = (
{
layerId = "D5C3460E-3C16-46B0-9A2C-8808A9C39771";
paths = (
{
closed = 1;
nodes = (
"887 500 OFFCURVE",
"882 550 OFFCURVE",
"872 595 CURVE SMOOTH",
"852 683 OFFCURVE",
"827 732 OFFCURVE",
"780 780 CURVE SMOOTH",
"732 827 OFFCURVE",
"703 843 OFFCURVE",
"648 871 CURVE",
"796 932 OFFCURVE",
"870 1060 OFFCURVE",
"870 1256 CURVE SMOOTH",
"870 1515 OFFCURVE",
"754 1676 OFFCURVE",
"497 1676 CURVE SMOOTH",
"238 1676 OFFCURVE",
"124 1517 OFFCURVE",
"124 1260 CURVE SMOOTH",
"124 1061 OFFCURVE",
"198 932 OFFCURVE",
"345 871 CURVE",
"318 858 OFFCURVE",
"295 845 OFFCURVE",
"277 833 CURVE SMOOTH",
"240 809 OFFCURVE",
"186 759 OFFCURVE",
"158 704 CURVE SMOOTH",
"130 648 OFFCURVE",
"107 556 OFFCURVE",
"107 445 CURVE SMOOTH",
"107 134 OFFCURVE",
"237 -21 OFFCURVE",
"497 -21 CURVE SMOOTH",
"757 -21 OFFCURVE",
"887 134 OFFCURVE",
"887 445 CURVE SMOOTH"
);
},
{
closed = 1;
nodes = (
"273 240 OFFCURVE",
"253 327 OFFCURVE",
"253 445 CURVE SMOOTH",
"253 668 OFFCURVE",
"334 787 OFFCURVE",
"497 800 CURVE",
"659 787 OFFCURVE",
"740 668 OFFCURVE",
"740 445 CURVE SMOOTH",
"740 210 OFFCURVE",
"661 100 OFFCURVE",
"497 100 CURVE SMOOTH",
"415 100 OFFCURVE",
"354 128 OFFCURVE",
"314 184 CURVE SMOOTH"
);
},
{
closed = 1;
nodes = (
"347 945 OFFCURVE",
"272 1052 OFFCURVE",
"272 1261 CURVE SMOOTH",
"272 1457 OFFCURVE",
"347 1555 OFFCURVE",
"497 1555 CURVE SMOOTH",
"647 1555 OFFCURVE",
"722 1457 OFFCURVE",
"722 1261 CURVE SMOOTH",
"722 1052 OFFCURVE",
"647 945 OFFCURVE",
"497 938 CURVE"
);
}
);
width = 993;
}
);
note = eight;
unicode = 0038;
},
{
glyphname = nine;
lastChange = "2017-12-16 11:27:02 +0000";
layers = (
{
layerId = "D5C3460E-3C16-46B0-9A2C-8808A9C39771";
paths = (
{
closed = 1;
nodes = (
"762 -21 OFFCURVE",
"888 151 OFFCURVE",
"888 495 CURVE SMOOTH",
"888 1157 LINE SMOOTH",
"888 1503 OFFCURVE",
"761 1676 OFFCURVE",
"507 1676 CURVE SMOOTH",
"244 1676 OFFCURVE",
"112 1508 OFFCURVE",
"112 1171 CURVE SMOOTH",
"112 819 OFFCURVE",
"203 677 OFFCURVE",
"470 677 CURVE SMOOTH",
"597 677 OFFCURVE",
"690 721 OFFCURVE",
"737 774 CURVE",
"737 462 LINE SMOOTH",
"737 203 OFFCURVE",
"661 104 OFFCURVE",
"513 104 CURVE SMOOTH",
"340 104 OFFCURVE",
"280 184 OFFCURVE",
"280 397 CURVE",
"132 397 LINE",
"132 367 LINE SMOOTH",
"135 108 OFFCURVE",
"262 -21 OFFCURVE",
"511 -21 CURVE SMOOTH"
);
},
{
closed = 1;
nodes = (
"433 793 OFFCURVE",
"382 806 OFFCURVE",
"347 839 CURVE SMOOTH",
"311 871 OFFCURVE",
"291 907 OFFCURVE",
"280 974 CURVE SMOOTH",
"268 1041 OFFCURVE",
"265 1100 OFFCURVE",
"265 1200 CURVE SMOOTH",
"265 1439 OFFCURVE",
"343 1551 OFFCURVE",
"507 1551 CURVE SMOOTH",
"668 1551 OFFCURVE",
"737 1440 OFFCURVE",
"737 1175 CURVE SMOOTH",
"737 889 LINE",
"679 825 OFFCURVE",
"602 793 OFFCURVE",
"505 793 CURVE SMOOTH"
);
}
);
width = 1006;
}
);
note = nine;
unicode = 0039;
},
{
glyphname = colon;
lastChange = "2017-12-16 11:27:02 +0000";
layers = (
{
layerId = "D5C3460E-3C16-46B0-9A2C-8808A9C39771";
paths = (
{
closed = 1;
nodes = (
"301 390 LINE",
"142 390 LINE",
"142 171 LINE",
"301 171 LINE"
);
},
{
closed = 1;
nodes = (
"301 1086 LINE",
"142 1086 LINE",
"142 867 LINE",
"301 867 LINE"
);
}
);
width = 396;
}
);
note = colon;
unicode = 003A;
},
{
glyphname = semicolon;
lastChange = "2017-12-16 11:27:02 +0000";
layers = (
{
layerId = "D5C3460E-3C16-46B0-9A2C-8808A9C39771";
paths = (
{
closed = 1;
nodes = (
"270 -26 OFFCURVE",
"307 39 OFFCURVE",
"307 178 CURVE SMOOTH",
"307 373 LINE",
"141 373 LINE",
"141 162 LINE",
"229 162 LINE",
"229 78 OFFCURVE",
"207 41 OFFCURVE",
"131 9 CURVE",
"162 -57 LINE"
);
},
{
closed = 1;
nodes = (
"299 1127 LINE",
"141 1127 LINE",
"141 903 LINE",
"299 903 LINE"
);
}
);
width = 426;
}
);
note = semicolon;
unicode = 003B;
},
{
glyphname = less;
lastChange = "2017-12-16 11:27:02 +0000";
layers = (
{
layerId = "D5C3460E-3C16-46B0-9A2C-8808A9C39771";
paths = (
{
closed = 1;
nodes = (
"175 618 LINE",
"627 966 LINE",
"627 1122 LINE",
"59 692 LINE",
"59 544 LINE",
"627 126 LINE",
"627 280 LINE"
);
}
);
width = 744;
}
);
note = less;
unicode = 003C;
},
{
glyphname = equal;
lastChange = "2017-12-16 11:27:02 +0000";
layers = (
{
layerId = "D5C3460E-3C16-46B0-9A2C-8808A9C39771";
paths = (
{
closed = 1;
nodes = (
"716 703 LINE",
"104 703 LINE",
"104 584 LINE",
"716 584 LINE"
);
},
{
closed = 1;
nodes = (
"716 1047 LINE",
"104 1047 LINE",
"104 927 LINE",
"716 927 LINE"
);
}
);
width = 820;
}
);
note = equal;
unicode = 003D;
},
{
glyphname = greater;
lastChange = "2017-12-16 11:27:02 +0000";
layers = (
{
layerId = "D5C3460E-3C16-46B0-9A2C-8808A9C39771";
paths = (
{
closed = 1;
nodes = (
"686 703 LINE",
"118 1122 LINE",
"118 967 LINE",
"570 630 LINE",
"118 281 LINE",
"118 126 LINE",
"686 555 LINE"
);
}
);
width = 744;
}
);
note = greater;
unicode = 003E;
},
{
glyphname = question;
lastChange = "2017-12-16 11:27:02 +0000";
layers = (
{
layerId = "D5C3460E-3C16-46B0-9A2C-8808A9C39771";
paths = (
{
closed = 1;
nodes = (
"488 624 LINE",
"616 725 OFFCURVE",
"696 801 OFFCURVE",
"768 902 CURVE SMOOTH",
"840 1003 OFFCURVE",
"874 1115 OFFCURVE",
"874 1247 CURVE SMOOTH",
"874 1526 OFFCURVE",
"717 1679 OFFCURVE",
"482 1679 CURVE SMOOTH",
"233 1679 OFFCURVE",
"117 1533 OFFCURVE",
"117 1376 CURVE SMOOTH",
"117 1344 OFFCURVE",
"121 1310 OFFCURVE",
"129 1274 CURVE SMOOTH",
"145 1201 LINE",
"282 1230 LINE",
"268 1303 LINE",
"263 1324 OFFCURVE",
"261 1345 OFFCURVE",
"261 1364 CURVE SMOOTH",
"261 1459 OFFCURVE",
"325 1548 OFFCURVE",
"481 1548 CURVE SMOOTH",
"622 1548 OFFCURVE",
"729 1439 OFFCURVE",
"729 1250 CURVE SMOOTH",
"729 1026 OFFCURVE",
"608 848 OFFCURVE",
"355 665 CURVE",
"355 412 LINE",
"488 412 LINE"
);
},
{
closed = 1;
nodes = (
"498 178 LINE",
"349 178 LINE",
"349 1 LINE",
"498 1 LINE"
);
}
);
width = 971;
}
);
note = question;
unicode = 003F;
},
{
glyphname = at;
lastChange = "2017-12-16 11:27:02 +0000";
layers = (
{
layerId = "D5C3460E-3C16-46B0-9A2C-8808A9C39771";
paths = (
{
closed = 1;
nodes = (
"1048 -230 OFFCURVE",
"1188 -210 OFFCURVE",
"1348 -170 CURVE",
"1316 -60 LINE",
"1187 -95 OFFCURVE",
"1061 -113 OFFCURVE",
"940 -113 CURVE SMOOTH",
"867 -113 OFFCURVE",
"800 -106 OFFCURVE",
"738 -93 CURVE SMOOTH",
"614 -67 OFFCURVE",
"484 3 OFFCURVE",
"400 114 CURVE SMOOTH",
"316 225 OFFCURVE",
"259 410 OFFCURVE",
"259 646 CURVE SMOOTH",
"259 923 OFFCURVE",
"331 1155 OFFCURVE",
"453 1305 CURVE SMOOTH",
"575 1455 OFFCURVE",
"745 1537 OFFCURVE",
"942 1540 CURVE SMOOTH",
"945 1540 OFFCURVE",
"947 1540 OFFCURVE",
"949 1540 CURVE SMOOTH",
"1336 1540 OFFCURVE",
"1524 1308 OFFCURVE",
"1525 884 CURVE SMOOTH",
"1525 863 OFFCURVE",
"1525 841 OFFCURVE",
"1524 819 CURVE SMOOTH",
"1522 752 OFFCURVE",
"1514 692 OFFCURVE",
"1501 637 CURVE SMOOTH",
"1474 527 OFFCURVE",
"1435 457 OFFCURVE",
"1385 408 CURVE SMOOTH",
"1335 359 OFFCURVE",
"1285 338 OFFCURVE",
"1234 338 CURVE SMOOTH",
"1181 338 OFFCURVE",
"1159 370 OFFCURVE",
"1159 419 CURVE SMOOTH",
"1159 441 OFFCURVE",
"1161 473 OFFCURVE",
"1165 515 CURVE",
"1268 1226 LINE",
"1157 1226 LINE",
"1138 1187 LINE",
"1094 1222 OFFCURVE",
"1046 1239 OFFCURVE",
"995 1239 CURVE SMOOTH",
"912 1239 OFFCURVE",
"835 1210 OFFCURVE",
"762 1153 CURVE SMOOTH",
"617 1037 OFFCURVE",
"522 825 OFFCURVE",
"522 596 CURVE SMOOTH",
"522 369 OFFCURVE",
"632 237 OFFCURVE",
"792 237 CURVE SMOOTH",
"797 237 OFFCURVE",
"803 237 OFFCURVE",
"809 237 CURVE",
"920 241 OFFCURVE",
"995 322 OFFCURVE",
"1034 433 CURVE",
"1034 429 OFFCURVE",
"1034 425 OFFCURVE",
"1034 421 CURVE SMOOTH",
"1034 314 OFFCURVE",
"1113 243 OFFCURVE",
"1213 243 CURVE SMOOTH",
"1252 243 OFFCURVE",
"1290 250 OFFCURVE",
"1329 263 CURVE SMOOTH",
"1405 290 OFFCURVE",
"1482 352 OFFCURVE",
"1539 441 CURVE SMOOTH",
"1595 529 OFFCURVE",
"1636 667 OFFCURVE",
"1641 830 CURVE SMOOTH",
"1642 847 OFFCURVE",
"1642 863 OFFCURVE",
"1642 880 CURVE SMOOTH",
"1642 1097 OFFCURVE",
"1597 1290 OFFCURVE",
"1486 1434 CURVE SMOOTH",
"1374 1578 OFFCURVE",
"1191 1656 OFFCURVE",
"955 1657 CURVE SMOOTH",
"953 1657 OFFCURVE",
"951 1657 OFFCURVE",
"949 1657 CURVE SMOOTH",
"855 1656 OFFCURVE",
"767 1643 OFFCURVE",
"685 1618 CURVE SMOOTH",
"521 1566 OFFCURVE",
"378 1456 OFFCURVE",
"279 1299 CURVE SMOOTH",
"179 1142 OFFCURVE",
"120 914 OFFCURVE",
"120 642 CURVE SMOOTH",
"120 515 OFFCURVE",
"134 401 OFFCURVE",
"162 301 CURVE SMOOTH",
"218 101 OFFCURVE",
"316 -26 OFFCURVE",
"454 -111 CURVE SMOOTH",
"592 -196 OFFCURVE",
"745 -230 OFFCURVE",
"928 -230 CURVE SMOOTH"
);
},
{
closed = 1;
nodes = (
"826 352 OFFCURVE",
"820 352 OFFCURVE",
"814 352 CURVE SMOOTH",
"733 352 OFFCURVE",
"665 423 OFFCURVE",
"665 594 CURVE SMOOTH",
"665 749 OFFCURVE",
"710 890 OFFCURVE",
"776 980 CURVE SMOOTH",
"842 1070 OFFCURVE",
"929 1125 OFFCURVE",
"1016 1125 CURVE SMOOTH",
"1051 1125 OFFCURVE",
"1083 1116 OFFCURVE",
"1112 1098 CURVE",
"1038 581 LINE",
"997 440 OFFCURVE",
"920 358 OFFCURVE",
"832 353 CURVE"
);
}
);
width = 1726;
}
);
note = at;
unicode = 0040;
},
{
glyphname = A;
lastChange = "2017-12-16 11:27:02 +0000";
layers = (
{
layerId = "D5C3460E-3C16-46B0-9A2C-8808A9C39771";
paths = (
{
closed = 1;
nodes = (
"291 443 LINE",
"687 443 LINE",
"769 0 LINE",
"922 0 LINE",
"570 1658 LINE",
"406 1658 LINE",
"56 0 LINE",
"207 0 LINE"
);
},
{
closed = 1;
nodes = (
"666 557 LINE",
"313 557 LINE",
"489 1451 LINE"
);
}
);
width = 977;
}
);
leftKerningGroup = A;
note = A;
rightKerningGroup = A;
unicode = 0041;
},
{
glyphname = B;
lastChange = "2017-12-16 11:27:02 +0000";
layers = (
{
layerId = "D5C3460E-3C16-46B0-9A2C-8808A9C39771";
paths = (
{
closed = 1;
nodes = (
"616 0 OFFCURVE",
"669 8 OFFCURVE",
"715 25 CURVE SMOOTH",
"807 58 OFFCURVE",
"862 114 OFFCURVE",
"898 198 CURVE SMOOTH",
"934 281 OFFCURVE",
"946 368 OFFCURVE",
"946 480 CURVE SMOOTH",
"946 576 OFFCURVE",
"931 657 OFFCURVE",
"895 734 CURVE SMOOTH",
"858 810 OFFCURVE",
"789 869 OFFCURVE",
"696 894 CURVE",
"747 905 OFFCURVE",
"789 928 OFFCURVE",
"822 965 CURVE SMOOTH",
"887 1038 OFFCURVE",
"907 1130 OFFCURVE",
"907 1245 CURVE SMOOTH",
"907 1510 OFFCURVE",
"789 1658 OFFCURVE",
"500 1658 CURVE SMOOTH",
"144 1658 LINE",
"144 0 LINE",
"555 0 LINE SMOOTH"
);
},
{
closed = 1;
nodes = (
"528 823 LINE SMOOTH",
"706 823 OFFCURVE",
"795 708 OFFCURVE",
"795 479 CURVE SMOOTH",
"795 220 OFFCURVE",
"733 117 OFFCURVE",
"526 117 CURVE SMOOTH",
"301 117 LINE",
"301 823 LINE"
);
},
{
closed = 1;
nodes = (
"450 1538 LINE SMOOTH",
"691 1538 OFFCURVE",
"766 1454 OFFCURVE",
"766 1245 CURVE SMOOTH",
"766 1049 OFFCURVE",
"704 944 OFFCURVE",
"527 944 CURVE SMOOTH",
"301 944 LINE",
"301 1538 LINE"
);
}
);
width = 1027;
}
);
note = B;
unicode = 0042;
},
{
glyphname = C;
lastChange = "2017-12-16 11:27:02 +0000";
layers = (
{
layerId = "D5C3460E-3C16-46B0-9A2C-8808A9C39771";
paths = (
{
closed = 1;
nodes = (
"592 -21 OFFCURVE",
"645 -13 OFFCURVE",
"691 3 CURVE SMOOTH",
"782 35 OFFCURVE",
"838 90 OFFCURVE",
"875 175 CURVE SMOOTH",
"911 260 OFFCURVE",
"924 354 OFFCURVE",
"924 475 CURVE SMOOTH",
"924 572 LINE",
"776 572 LINE",
"776 464 LINE SMOOTH",
"776 417 OFFCURVE",
"774 377 OFFCURVE",
"771 344 CURVE SMOOTH",
"763 276 OFFCURVE",
"743 208 OFFCURVE",
"708 169 CURVE SMOOTH",
"672 130 OFFCURVE",
"613 105 OFFCURVE",
"532 105 CURVE SMOOTH",
"335 105 OFFCURVE",
"269 217 OFFCURVE",
"269 474 CURVE SMOOTH",
"269 1178 LINE SMOOTH",
"269 1299 OFFCURVE",
"280 1376 OFFCURVE",
"316 1447 CURVE SMOOTH",
"352 1518 OFFCURVE",
"423 1552 OFFCURVE",
"532 1552 CURVE SMOOTH",
"633 1552 OFFCURVE",
"699 1522 OFFCURVE",
"733 1456 CURVE SMOOTH",
"767 1390 OFFCURVE",
"776 1317 OFFCURVE",
"776 1200 CURVE SMOOTH",
"776 1103 LINE",
"924 1103 LINE",
"924 1205 LINE SMOOTH",
"924 1354 OFFCURVE",
"899 1464 OFFCURVE",
"839 1548 CURVE SMOOTH",
"779 1632 OFFCURVE",
"676 1676 OFFCURVE",
"531 1676 CURVE SMOOTH",
"466 1676 OFFCURVE",
"410 1668 OFFCURVE",
"361 1651 CURVE SMOOTH",
"263 1618 OFFCURVE",
"203 1560 OFFCURVE",
"164 1472 CURVE SMOOTH",
"124 1383 OFFCURVE",
"111 1286 OFFCURVE",
"111 1158 CURVE SMOOTH",
"111 499 LINE SMOOTH",
"111 438 OFFCURVE",
"115 382 OFFCURVE",
"122 333 CURVE SMOOTH",
"137 234 OFFCURVE",
"176 138 OFFCURVE",
"238 78 CURVE SMOOTH",
"300 18 OFFCURVE",
"400 -21 OFFCURVE",
"531 -21 CURVE SMOOTH"
);
}
);
width = 1021;
}
);
leftKerningGroup = C;
note = C;
unicode = 0043;
},
{
glyphname = D;
lastChange = "2017-12-16 11:27:02 +0000";
layers = (
{
layerId = "D5C3460E-3C16-46B0-9A2C-8808A9C39771";
paths = (
{
closed = 1;
nodes = (
"505 1538 LINE SMOOTH",
"554 1538 OFFCURVE",
"596 1533 OFFCURVE",
"631 1522 CURVE SMOOTH",
"701 1500 OFFCURVE",
"742 1463 OFFCURVE",
"767 1397 CURVE SMOOTH",
"791 1331 OFFCURVE",
"798 1262 OFFCURVE",
"798 1155 CURVE SMOOTH",
"798 536 LINE SMOOTH",
"798 481 OFFCURVE",
"797 436 OFFCURVE",
"794 399 CURVE SMOOTH",
"788 325 OFFCURVE",
"765 238 OFFCURVE",
"725 194 CURVE SMOOTH",
"684 149 OFFCURVE",
"613 117 OFFCURVE",
"510 117 CURVE SMOOTH",
"301 117 LINE",
"301 1538 LINE"
);
},
{
closed = 1;
nodes = (
"682 0 OFFCURVE",
"795 48 OFFCURVE",
"862 140 CURVE SMOOTH",
"929 232 OFFCURVE",
"956 351 OFFCURVE",
"956 512 CURVE SMOOTH",
"956 1171 LINE SMOOTH",
"956 1232 OFFCURVE",
"952 1286 OFFCURVE",
"943 1334 CURVE SMOOTH",
"925 1430 OFFCURVE",
"882 1516 OFFCURVE",
"814 1571 CURVE SMOOTH",
"746 1626 OFFCURVE",
"642 1658 OFFCURVE",
"507 1658 CURVE SMOOTH",
"144 1658 LINE",
"144 0 LINE",
"519 0 LINE SMOOTH"
);
}
);
width = 1067;
}
);
note = D;
rightKerningGroup = D;
unicode = 0044;
},
{
glyphname = E;
lastChange = "2017-12-16 11:27:02 +0000";
layers = (
{
layerId = "D5C3460E-3C16-46B0-9A2C-8808A9C39771";
paths = (
{
closed = 1;
nodes = (
"748 117 LINE",
"301 117 LINE",
"301 801 LINE",
"663 801 LINE",
"663 917 LINE",
"301 917 LINE",
"301 1538 LINE",
"743 1538 LINE",
"743 1658 LINE",
"144 1658 LINE",
"144 0 LINE",
"748 0 LINE"
);
}
);
width = 816;
}
);
note = E;
rightKerningGroup = E;
unicode = 0045;
},
{
glyphname = F;
lastChange = "2017-12-16 11:27:02 +0000";
layers = (
{
layerId = "D5C3460E-3C16-46B0-9A2C-8808A9C39771";
paths = (
{
closed = 1;
nodes = (
"301 802 LINE",
"668 802 LINE",
"668 918 LINE",
"301 918 LINE",
"301 1541 LINE",
"742 1541 LINE",
"742 1658 LINE",
"144 1658 LINE",
"144 0 LINE",
"301 0 LINE"
);
}
);
width = 790;
}
);
note = F;
rightKerningGroup = F;
unicode = 0046;
},
{
glyphname = G;
lastChange = "2017-12-16 11:27:02 +0000";
layers = (
{
layerId = "D5C3460E-3C16-46B0-9A2C-8808A9C39771";
paths = (
{
closed = 1;
nodes = (
"673 -22 OFFCURVE",
"773 48 OFFCURVE",
"819 188 CURVE",
"838 0 LINE",
"938 0 LINE",
"938 802 LINE",
"550 802 LINE",
"550 687 LINE",
"794 687 LINE",
"794 491 LINE SMOOTH",
"794 230 OFFCURVE",
"730 105 OFFCURVE",
"535 105 CURVE SMOOTH",
"430 105 OFFCURVE",
"359 138 OFFCURVE",
"320 207 CURVE SMOOTH",
"281 275 OFFCURVE",
"268 359 OFFCURVE",
"268 487 CURVE SMOOTH",
"268 1168 LINE SMOOTH",
"268 1217 OFFCURVE",
"270 1259 OFFCURVE",
"274 1294 CURVE SMOOTH",
"281 1365 OFFCURVE",
"303 1440 OFFCURVE",
"341 1482 CURVE SMOOTH",
"379 1524 OFFCURVE",
"443 1552 OFFCURVE",
"532 1552 CURVE SMOOTH",
"727 1552 OFFCURVE",
"784 1447 OFFCURVE",
"784 1199 CURVE SMOOTH",
"784 1140 LINE",
"931 1140 LINE",
"931 1199 LINE SMOOTH",
"931 1516 OFFCURVE",
"817 1676 OFFCURVE",
"530 1676 CURVE SMOOTH",
"369 1676 OFFCURVE",
"257 1628 OFFCURVE",
"196 1533 CURVE SMOOTH",
"135 1438 OFFCURVE",
"111 1321 OFFCURVE",
"111 1153 CURVE SMOOTH",
"111 505 LINE SMOOTH",
"111 340 OFFCURVE",
"136 219 OFFCURVE",
"197 124 CURVE SMOOTH",
"258 28 OFFCURVE",
"367 -22 OFFCURVE",
"520 -22 CURVE SMOOTH"
);
}
);
width = 1064;
}
);
leftKerningGroup = G;
note = G;
rightKerningGroup = G;
unicode = 0047;
},
{
glyphname = H;
lastChange = "2017-12-16 11:27:02 +0000";
layers = (
{
layerId = "D5C3460E-3C16-46B0-9A2C-8808A9C39771";
paths = (
{
closed = 1;
nodes = (
"301 808 LINE",
"823 808 LINE",
"823 0 LINE",
"980 0 LINE",
"980 1658 LINE",
"823 1658 LINE",
"823 923 LINE",
"301 923 LINE",
"301 1658 LINE",
"144 1658 LINE",
"144 0 LINE",
"301 0 LINE"
);
}
);
width = 1124;
}
);
note = H;
unicode = 0048;
},
{
glyphname = I;
lastChange = "2017-12-16 11:27:02 +0000";
layers = (
{
layerId = "D5C3460E-3C16-46B0-9A2C-8808A9C39771";
paths = (
{
closed = 1;
nodes = (
"305 1658 LINE",
"151 1658 LINE",
"151 0 LINE",
"305 0 LINE"
);
}
);
width = 454;
}
);
note = I;
unicode = 0049;
},
{
glyphname = J;
lastChange = "2017-12-16 11:27:02 +0000";
layers = (
{
layerId = "D5C3460E-3C16-46B0-9A2C-8808A9C39771";
paths = (
{
closed = 1;
nodes = (
"149 -73 OFFCURVE",
"197 -68 OFFCURVE",
"236 -57 CURVE SMOOTH",
"315 -36 OFFCURVE",
"362 0 OFFCURVE",
"390 68 CURVE SMOOTH",
"417 136 OFFCURVE",
"426 208 OFFCURVE",
"426 324 CURVE SMOOTH",
"426 1658 LINE",
"269 1658 LINE",
"269 334 LINE SMOOTH",
"269 246 OFFCURVE",
"267 199 OFFCURVE",
"254 152 CURVE SMOOTH",
"241 104 OFFCURVE",
"222 85 OFFCURVE",
"182 67 CURVE SMOOTH",
"142 49 OFFCURVE",
"95 45 OFFCURVE",
"16 45 CURVE",
"16 -73 LINE",
"93 -73 LINE SMOOTH"
);
}
);
width = 571;
}
);
leftKerningGroup = J;
note = J;
unicode = 004A;
},
{
glyphname = K;
lastChange = "2017-12-16 11:27:02 +0000";
layers = (
{
layerId = "D5C3460E-3C16-46B0-9A2C-8808A9C39771";
paths = (
{
closed = 1;
nodes = (
"301 616 LINE",
"435 864 LINE",
"812 0 LINE",
"967 0 LINE",
"551 946 LINE",
"894 1658 LINE",
"744 1658 LINE",
"301 784 LINE",
"301 1658 LINE",
"144 1658 LINE",
"144 0 LINE",
"301 0 LINE"
);
}
);
width = 969;
}
);
note = K;
rightKerningGroup = K;
unicode = 004B;
},
{
glyphname = L;
lastChange = "2017-12-16 11:27:02 +0000";
layers = (
{
layerId = "D5C3460E-3C16-46B0-9A2C-8808A9C39771";
paths = (
{
closed = 1;
nodes = (
"773 117 LINE",
"301 117 LINE",
"301 1658 LINE",
"144 1658 LINE",
"144 0 LINE",
"773 0 LINE"
);
}
);
width = 783;
}
);
note = L;
rightKerningGroup = L;
unicode = 004C;
},
{
glyphname = M;
lastChange = "2017-12-16 11:27:02 +0000";
layers = (
{
layerId = "D5C3460E-3C16-46B0-9A2C-8808A9C39771";
paths = (
{
closed = 1;
nodes = (
"294 1319 LINE",
"607 0 LINE",
"707 0 LINE",
"1024 1322 LINE",
"1056 0 LINE",
"1186 0 LINE",
"1145 1658 LINE",
"988 1658 LINE",
"656 219 LINE",
"326 1658 LINE",
"173 1658 LINE",
"130 0 LINE",
"262 0 LINE"
);
}
);
width = 1316;
}
);
note = M;
unicode = 004D;
},
{
glyphname = N;
lastChange = "2017-12-16 11:27:02 +0000";
layers = (
{
layerId = "D5C3460E-3C16-46B0-9A2C-8808A9C39771";
paths = (
{
closed = 1;
nodes = (
"279 1302 LINE",
"811 0 LINE",
"921 0 LINE",
"921 1658 LINE",
"787 1658 LINE",
"787 371 LINE",
"259 1658 LINE",
"144 1658 LINE",
"144 0 LINE",
"279 0 LINE"
);
}
);
width = 1065;
}
);
note = N;
unicode = 004E;
},
{
glyphname = O;
lastChange = "2017-12-16 11:27:02 +0000";
layers = (
{
layerId = "D5C3460E-3C16-46B0-9A2C-8808A9C39771";
paths = (
{
closed = 1;
nodes = (
"367 146 OFFCURVE",
"340 170 OFFCURVE",
"321 203 CURVE SMOOTH",
"283 268 OFFCURVE",
"269 344 OFFCURVE",
"269 456 CURVE SMOOTH",
"269 1206 LINE SMOOTH",
"269 1318 OFFCURVE",
"283 1393 OFFCURVE",
"321 1457 CURVE SMOOTH",
"359 1521 OFFCURVE",
"430 1552 OFFCURVE",
"537 1552 CURVE SMOOTH",
"644 1552 OFFCURVE",
"716 1521 OFFCURVE",
"754 1457 CURVE SMOOTH",
"792 1393 OFFCURVE",
"805 1318 OFFCURVE",
"805 1206 CURVE SMOOTH",
"805 456 LINE SMOOTH",
"805 344 OFFCURVE",
"792 268 OFFCURVE",
"754 203 CURVE SMOOTH",
"716 138 OFFCURVE",
"644 105 OFFCURVE",
"537 105 CURVE SMOOTH",
"484 105 OFFCURVE",
"439 113 OFFCURVE",
"403 130 CURVE SMOOTH"
);
},
{
closed = 1;
nodes = (
"601 -21 OFFCURVE",
"658 -13 OFFCURVE",
"707 4 CURVE SMOOTH",
"806 36 OFFCURVE",
"867 93 OFFCURVE",
"908 180 CURVE SMOOTH",
"948 267 OFFCURVE",
"963 364 OFFCURVE",
"963 488 CURVE SMOOTH",
"963 1178 LINE SMOOTH",
"963 1333 OFFCURVE",
"936 1447 OFFCURVE",
"872 1538 CURVE SMOOTH",
"807 1629 OFFCURVE",
"694 1676 OFFCURVE",
"537 1676 CURVE SMOOTH",
"380 1676 OFFCURVE",
"267 1629 OFFCURVE",
"203 1539 CURVE SMOOTH",
"138 1449 OFFCURVE",
"111 1334 OFFCURVE",
"111 1178 CURVE SMOOTH",
"111 490 LINE SMOOTH",
"111 333 OFFCURVE",
"137 217 OFFCURVE",
"201 123 CURVE SMOOTH",
"264 29 OFFCURVE",
"377 -21 OFFCURVE",
"537 -21 CURVE SMOOTH"
);
}
);
width = 1074;
}
);
leftKerningGroup = O;
note = O;
unicode = 004F;
},
{
glyphname = P;
lastChange = "2017-12-16 11:27:02 +0000";
layers = (
{
layerId = "D5C3460E-3C16-46B0-9A2C-8808A9C39771";
paths = (
{
closed = 1;
nodes = (
"301 785 LINE",
"544 785 LINE SMOOTH",
"683 785 OFFCURVE",
"788 833 OFFCURVE",
"849 914 CURVE SMOOTH",
"909 994 OFFCURVE",
"937 1096 OFFCURVE",
"937 1219 CURVE SMOOTH",
"937 1355 OFFCURVE",
"912 1457 OFFCURVE",
"852 1537 CURVE SMOOTH",
"792 1616 OFFCURVE",
"687 1658 OFFCURVE",
"542 1658 CURVE SMOOTH",
"144 1658 LINE",
"144 0 LINE",
"301 0 LINE"
);
},
{
closed = 1;
nodes = (
"502 1542 LINE SMOOTH",
"723 1542 OFFCURVE",
"784 1473 OFFCURVE",
"784 1218 CURVE SMOOTH",
"784 983 OFFCURVE",
"704 901 OFFCURVE",
"500 901 CURVE SMOOTH",
"301 901 LINE",
"301 1542 LINE"
);
}
);
width = 990;
}
);
note = P;
rightKerningGroup = P;
unicode = 0050;
},
{
glyphname = Q;
lastChange = "2017-12-16 11:27:02 +0000";
layers = (
{
layerId = "D5C3460E-3C16-46B0-9A2C-8808A9C39771";
paths = (
{
closed = 1;
nodes = (
"855 -163 OFFCURVE",
"772 -70 OFFCURVE",
"713 6 CURVE",
"808 37 OFFCURVE",
"877 97 OFFCURVE",
"917 182 CURVE SMOOTH",
"956 266 OFFCURVE",
"973 364 OFFCURVE",
"973 488 CURVE SMOOTH",
"973 1178 LINE SMOOTH",
"973 1333 OFFCURVE",
"945 1449 OFFCURVE",
"879 1539 CURVE SMOOTH",
"813 1629 OFFCURVE",
"699 1676 OFFCURVE",
"542 1676 CURVE SMOOTH",
"385 1676 OFFCURVE",
"272 1628 OFFCURVE",
"206 1539 CURVE SMOOTH",
"140 1450 OFFCURVE",
"111 1333 OFFCURVE",
"111 1178 CURVE SMOOTH",
"111 490 LINE SMOOTH",
"111 333 OFFCURVE",
"138 217 OFFCURVE",
"203 123 CURVE SMOOTH",
"267 29 OFFCURVE",
"382 -21 OFFCURVE",
"542 -21 CURVE SMOOTH",
"559 -21 OFFCURVE",
"577 -20 OFFCURVE",
"594 -18 CURVE",
"711 -186 OFFCURVE",
"808 -288 OFFCURVE",
"884 -325 CURVE",
"904 -195 LINE"
);
},
{
closed = 1;
nodes = (
"371 146 OFFCURVE",
"343 170 OFFCURVE",
"323 203 CURVE SMOOTH",
"283 267 OFFCURVE",
"269 344 OFFCURVE",
"269 456 CURVE SMOOTH",
"269 1206 LINE SMOOTH",
"269 1318 OFFCURVE",
"283 1393 OFFCURVE",
"323 1457 CURVE SMOOTH",
"363 1521 OFFCURVE",
"435 1552 OFFCURVE",
"542 1552 CURVE SMOOTH",
"649 1552 OFFCURVE",
"721 1521 OFFCURVE",
"761 1457 CURVE SMOOTH",
"801 1393 OFFCURVE",
"815 1318 OFFCURVE",
"815 1206 CURVE SMOOTH",
"815 456 LINE SMOOTH",
"815 344 OFFCURVE",
"801 267 OFFCURVE",
"761 203 CURVE SMOOTH",
"721 138 OFFCURVE",
"649 105 OFFCURVE",
"542 105 CURVE SMOOTH",
"489 105 OFFCURVE",
"444 113 OFFCURVE",
"408 130 CURVE SMOOTH"
);
}
);
width = 1085;
}
);
leftKerningGroup = Q;
note = Q;
unicode = 0051;
},
{
glyphname = R;
lastChange = "2017-12-16 11:27:02 +0000";
layers = (
{
layerId = "D5C3460E-3C16-46B0-9A2C-8808A9C39771";
paths = (
{
closed = 1;
nodes = (
"301 815 LINE",
"561 815 LINE",
"804 0 LINE",
"958 0 LINE",
"701 848 LINE",
"855 880 OFFCURVE",
"932 1010 OFFCURVE",
"932 1239 CURVE SMOOTH",
"932 1514 OFFCURVE",
"816 1658 OFFCURVE",
"521 1658 CURVE SMOOTH",
"144 1658 LINE",
"144 0 LINE",
"301 0 LINE"
);
},
{
closed = 1;
nodes = (
"517 1541 LINE SMOOTH",
"718 1541 OFFCURVE",
"780 1452 OFFCURVE",
"780 1239 CURVE SMOOTH",
"780 1023 OFFCURVE",
"712 930 OFFCURVE",
"512 930 CURVE SMOOTH",
"301 930 LINE",
"301 1541 LINE"
);
}
);
width = 1049;
}
);
note = R;
rightKerningGroup = R;
unicode = 0052;
},
{
glyphname = S;
lastChange = "2017-12-16 11:27:02 +0000";
layers = (
{
layerId = "D5C3460E-3C16-46B0-9A2C-8808A9C39771";
paths = (
{
closed = 1;
nodes = (
"728 -20 OFFCURVE",
"880 116 OFFCURVE",
"880 357 CURVE SMOOTH",
"880 529 OFFCURVE",
"788 671 OFFCURVE",
"637 815 CURVE SMOOTH",
"345 1092 LINE SMOOTH",
"260 1175 OFFCURVE",
"228 1242 OFFCURVE",
"228 1333 CURVE SMOOTH",
"228 1478 OFFCURVE",
"317 1549 OFFCURVE",
"462 1553 CURVE SMOOTH",
"466 1553 OFFCURVE",
"470 1553 OFFCURVE",
"474 1553 CURVE SMOOTH",
"639 1553 OFFCURVE",
"707 1445 OFFCURVE",
"726 1221 CURVE",
"858 1255 LINE",
"837 1552 OFFCURVE",
"708 1676 OFFCURVE",
"467 1676 CURVE SMOOTH",
"465 1676 OFFCURVE",
"463 1676 OFFCURVE",
"460 1676 CURVE SMOOTH",
"231 1675 OFFCURVE",
"87 1545 OFFCURVE",
"87 1320 CURVE SMOOTH",
"87 1193 OFFCURVE",
"137 1082 OFFCURVE",
"237 986 CURVE SMOOTH",
"531 704 LINE SMOOTH",
"600 636 OFFCURVE",
"638 596 OFFCURVE",
"678 537 CURVE SMOOTH",
"717 477 OFFCURVE",
"734 417 OFFCURVE",
"734 346 CURVE SMOOTH",
"734 186 OFFCURVE",
"656 106 OFFCURVE",
"500 106 CURVE SMOOTH",
"461 106 OFFCURVE",
"426 112 OFFCURVE",
"396 125 CURVE SMOOTH",
"335 150 OFFCURVE",
"298 190 OFFCURVE",
"271 255 CURVE SMOOTH",
"243 319 OFFCURVE",
"231 382 OFFCURVE",
"222 470 CURVE",
"83 430 LINE",
"104 146 OFFCURVE",
"236 -20 OFFCURVE",
"499 -20 CURVE SMOOTH"
);
}
);
width = 942;
}
);
note = S;
unicode = 0053;
},
{
glyphname = T;
lastChange = "2017-12-16 11:27:02 +0000";
layers = (
{
layerId = "D5C3460E-3C16-46B0-9A2C-8808A9C39771";
paths = (
{
closed = 1;
nodes = (
"480 1538 LINE",
"805 1538 LINE",
"805 1658 LINE",
"-10 1658 LINE",
"-10 1538 LINE",
"323 1538 LINE",
"323 0 LINE",
"480 0 LINE"
);
}
);
width = 795;
}
);
leftKerningGroup = T;
note = T;
rightKerningGroup = T;
unicode = 0054;
},
{
glyphname = U;
lastChange = "2017-12-16 11:27:02 +0000";
layers = (
{
layerId = "D5C3460E-3C16-46B0-9A2C-8808A9C39771";
paths = (
{
closed = 1;
nodes = (
"615 -21 OFFCURVE",
"672 -13 OFFCURVE",
"721 2 CURVE SMOOTH",
"819 33 OFFCURVE",
"879 86 OFFCURVE",
"919 167 CURVE SMOOTH",
"959 248 OFFCURVE",
"973 337 OFFCURVE",
"973 453 CURVE SMOOTH",
"973 1658 LINE",
"823 1658 LINE",
"823 448 LINE SMOOTH",
"823 345 OFFCURVE",
"807 269 OFFCURVE",
"768 205 CURVE SMOOTH",
"728 140 OFFCURVE",
"655 105 OFFCURVE",
"551 105 CURVE SMOOTH",
"508 105 OFFCURVE",
"470 111 OFFCURVE",
"437 123 CURVE SMOOTH",
"372 146 OFFCURVE",
"334 184 OFFCURVE",
"310 244 CURVE SMOOTH",
"286 303 OFFCURVE",
"278 365 OFFCURVE",
"278 448 CURVE SMOOTH",
"278 1658 LINE",
"127 1658 LINE",
"127 453 LINE SMOOTH",
"127 394 OFFCURVE",
"131 342 OFFCURVE",
"139 297 CURVE SMOOTH",
"154 205 OFFCURVE",
"192 120 OFFCURVE",
"255 66 CURVE SMOOTH",
"318 12 OFFCURVE",
"419 -21 OFFCURVE",
"551 -21 CURVE SMOOTH"
);
}
);
width = 1100;
}
);
leftKerningGroup = U;
note = U;
unicode = 0055;
},
{
glyphname = V;
lastChange = "2017-12-16 11:27:02 +0000";
layers = (
{
layerId = "D5C3460E-3C16-46B0-9A2C-8808A9C39771";
paths = (
{
closed = 1;
nodes = (
"954 1658 LINE",
"807 1658 LINE",
"512 286 LINE",
"199 1658 LINE",
"50 1658 LINE",
"438 0 LINE",
"580 0 LINE"
);
}
);
width = 1003;
}
);
leftKerningGroup = V;
note = V;
rightKerningGroup = V;
unicode = 0056;
},
{
glyphname = W;
lastChange = "2017-12-16 11:27:02 +0000";
layers = (
{
layerId = "D5C3460E-3C16-46B0-9A2C-8808A9C39771";
paths = (
{
closed = 1;
nodes = (
"740 1369 LINE",
"1003 0 LINE",
"1125 0 LINE",
"1393 1658 LINE",
"1261 1658 LINE",
"1058 310 LINE",
"803 1633 LINE",
"674 1633 LINE",
"423 312 LINE",
"205 1658 LINE",
"71 1657 LINE",
"353 0 LINE",
"479 0 LINE"
);
}
);
width = 1464;
}
);
leftKerningGroup = W;
note = W;
rightKerningGroup = W;
unicode = 0057;
},
{
glyphname = X;
lastChange = "2017-12-16 11:27:02 +0000";
layers = (
{
layerId = "D5C3460E-3C16-46B0-9A2C-8808A9C39771";
paths = (
{
closed = 1;
nodes = (
"458 700 LINE",
"772 0 LINE",
"920 0 LINE",
"542 845 LINE",
"910 1659 LINE",
"760 1659 LINE",
"475 997 LINE",
"177 1659 LINE",
"33 1659 LINE",
"387 864 LINE",
"29 0 LINE",
"179 0 LINE"
);
}
);
width = 949;
}
);
note = X;
unicode = 0058;
},
{
glyphname = Y;
lastChange = "2017-12-16 11:27:02 +0000";
layers = (
{
layerId = "D5C3460E-3C16-46B0-9A2C-8808A9C39771";
paths = (
{
closed = 1;
nodes = (
"561 551 LINE",
"926 1658 LINE",
"773 1658 LINE",
"486 737 LINE",
"188 1658 LINE",
"35 1658 LINE",
"409 551 LINE",
"409 0 LINE",
"561 0 LINE"
);
}
);
width = 961;
}
);
leftKerningGroup = Y;
note = Y;
rightKerningGroup = Y;
unicode = 0059;
},
{
glyphname = Z;
lastChange = "2017-12-16 11:27:02 +0000";
layers = (
{
layerId = "D5C3460E-3C16-46B0-9A2C-8808A9C39771";
paths = (
{
closed = 1;
nodes = (
"794 117 LINE",
"223 117 LINE",
"792 1577 LINE",
"792 1658 LINE",
"114 1658 LINE",
"114 1541 LINE",
"625 1541 LINE",
"69 118 LINE",
"69 0 LINE",
"794 0 LINE"
);
}
);
width = 834;
}
);
note = Z;
unicode = 005A;
},
{
glyphname = bracketleft;
lastChange = "2017-12-16 11:27:02 +0000";
layers = (
{
layerId = "D5C3460E-3C16-46B0-9A2C-8808A9C39771";
paths = (
{
closed = 1;
nodes = (
"501 -243 LINE",
"295 -243 LINE",
"295 1575 LINE",
"501 1575 LINE",
"501 1658 LINE",
"144 1658 LINE",
"144 -327 LINE",
"501 -327 LINE"
);
}
);
width = 619;
}
);
note = bracketleft;
unicode = 005B;
},
{
glyphname = backslash;
lastChange = "2017-12-16 11:27:02 +0000";
layers = (
{
layerId = "D5C3460E-3C16-46B0-9A2C-8808A9C39771";
paths = (
{
closed = 1;
nodes = (
"182 1658 LINE",
"50 1658 LINE",
"522 0 LINE",
"654 0 LINE"
);
}
);
width = 705;
}
);
note = backslash;
unicode = 005C;
},
{
glyphname = bracketright;
lastChange = "2017-12-16 11:27:02 +0000";
layers = (
{
layerId = "D5C3460E-3C16-46B0-9A2C-8808A9C39771";
paths = (
{
closed = 1;
nodes = (
"440 1658 LINE",
"83 1658 LINE",
"83 1574 LINE",
"289 1574 LINE",
"289 -243 LINE",
"83 -243 LINE",
"83 -326 LINE",
"440 -326 LINE"
);
}
);
width = 584;
}
);
note = bracketright;
unicode = 005D;
},
{
glyphname = asciicircum;
lastChange = "2017-12-16 11:27:02 +0000";
layers = (
{
layerId = "D5C3460E-3C16-46B0-9A2C-8808A9C39771";
paths = (
{
closed = 1;
nodes = (
"404 1554 LINE",
"614 1047 LINE",
"749 1047 LINE",
"483 1658 LINE",
"326 1658 LINE",
"59 1047 LINE",
"195 1047 LINE"
);
}
);
width = 808;
}
);
note = asciicircum;
unicode = 005E;
},
{
glyphname = underscore;
lastChange = "2017-12-16 11:27:02 +0000";
layers = (
{
layerId = "D5C3460E-3C16-46B0-9A2C-8808A9C39771";
paths = (
{
closed = 1;
nodes = (
"681 -100 LINE",
"0 -100 LINE",
"0 -218 LINE",
"681 -218 LINE"
);
}
);
width = 681;
}
);
note = underscore;
unicode = 005F;
},
{
glyphname = grave;
lastChange = "2017-12-16 11:27:02 +0000";
layers = (
{
layerId = "D5C3460E-3C16-46B0-9A2C-8808A9C39771";
paths = (
{
closed = 1;
nodes = (
"259 1658 LINE",
"108 1658 LINE",
"296 1258 LINE",
"373 1258 LINE"
);
}
);
width = 482;
}
);
note = grave;
unicode = 0060;
},
{
glyphname = a;
lastChange = "2017-12-16 11:27:02 +0000";
layers = (
{
layerId = "D5C3460E-3C16-46B0-9A2C-8808A9C39771";
paths = (
{
closed = 1;
nodes = (
"438 -19 OFFCURVE",
"528 60 OFFCURVE",
"564 164 CURVE",
"586 0 LINE",
"719 0 LINE",
"712 61 OFFCURVE",
"708 140 OFFCURVE",
"708 235 CURVE SMOOTH",
"708 811 LINE SMOOTH",
"708 1084 OFFCURVE",
"628 1202 OFFCURVE",
"419 1202 CURVE SMOOTH",
"216 1202 OFFCURVE",
"109 1107 OFFCURVE",
"100 884 CURVE",
"99 879 OFFCURVE",
"99 867 OFFCURVE",
"99 848 CURVE",
"247 843 LINE",
"247 886 LINE SMOOTH",
"247 1021 OFFCURVE",
"302 1089 OFFCURVE",
"411 1089 CURVE SMOOTH",
"524 1089 OFFCURVE",
"558 1020 OFFCURVE",
"558 803 CURVE SMOOTH",
"558 718 LINE",
"429 661 OFFCURVE",
"361 627 OFFCURVE",
"281 580 CURVE SMOOTH",
"201 532 OFFCURVE",
"165 495 OFFCURVE",
"129 440 CURVE SMOOTH",
"92 385 OFFCURVE",
"81 326 OFFCURVE",
"81 247 CURVE SMOOTH",
"81 96 OFFCURVE",
"180 -19 OFFCURVE",
"319 -19 CURVE SMOOTH"
);
},
{
closed = 1;
nodes = (
"289 110 OFFCURVE",
"231 166 OFFCURVE",
"231 282 CURVE SMOOTH",
"231 323 OFFCURVE",
"235 356 OFFCURVE",
"250 387 CURVE SMOOTH",
"265 418 OFFCURVE",
"274 438 OFFCURVE",
"306 465 CURVE SMOOTH",
"337 492 OFFCURVE",
"353 506 OFFCURVE",
"402 534 CURVE SMOOTH",
"450 562 OFFCURVE",
"474 574 OFFCURVE",
"539 609 CURVE SMOOTH",
"548 614 OFFCURVE",
"554 617 OFFCURVE",
"558 619 CURVE",
"558 250 LINE",
"519 174 OFFCURVE",
"448 110 OFFCURVE",
"368 110 CURVE SMOOTH"
);
}
);
width = 813;
}
);
leftKerningGroup = a;
note = a;
rightKerningGroup = a;
unicode = 0061;
},
{
glyphname = b;
lastChange = "2017-12-16 11:27:02 +0000";
layers = (
{
layerId = "D5C3460E-3C16-46B0-9A2C-8808A9C39771";
paths = (
{
closed = 1;
nodes = (
"520 -19 OFFCURVE",
"558 -11 OFFCURVE",
"591 5 CURVE SMOOTH",
"656 36 OFFCURVE",
"697 90 OFFCURVE",
"724 175 CURVE SMOOTH",
"751 259 OFFCURVE",
"760 355 OFFCURVE",
"760 480 CURVE SMOOTH",
"760 730 LINE SMOOTH",
"760 783 OFFCURVE",
"758 830 OFFCURVE",
"755 872 CURVE SMOOTH",
"747 955 OFFCURVE",
"724 1048 OFFCURVE",
"686 1105 CURVE SMOOTH",
"648 1162 OFFCURVE",
"580 1202 OFFCURVE",
"492 1202 CURVE SMOOTH",
"404 1202 OFFCURVE",
"329 1163 OFFCURVE",
"266 1086 CURVE",
"266 1658 LINE",
"116 1658 LINE",
"116 0 LINE",
"266 0 LINE",
"266 94 LINE",
"329 19 OFFCURVE",
"399 -19 OFFCURVE",
"477 -19 CURVE SMOOTH"
);
},
{
closed = 1;
nodes = (
"383 100 OFFCURVE",
"321 129 OFFCURVE",
"266 186 CURVE",
"266 993 LINE",
"328 1054 OFFCURVE",
"389 1084 OFFCURVE",
"450 1084 CURVE SMOOTH",
"515 1084 OFFCURVE",
"558 1057 OFFCURVE",
"579 1002 CURVE SMOOTH",
"600 947 OFFCURVE",
"610 857 OFFCURVE",
"610 730 CURVE SMOOTH",
"610 478 LINE SMOOTH",
"610 344 OFFCURVE",
"600 248 OFFCURVE",
"579 189 CURVE SMOOTH",
"558 130 OFFCURVE",
"515 100 OFFCURVE",
"452 100 CURVE SMOOTH"
);
}
);
width = 852;
}
);
leftKerningGroup = b;
note = b;
rightKerningGroup = b;
unicode = 0062;
},
{
glyphname = c;
lastChange = "2017-12-16 11:27:02 +0000";
layers = (
{
layerId = "D5C3460E-3C16-46B0-9A2C-8808A9C39771";
paths = (
{
closed = 1;
nodes = (
"459 -19 OFFCURVE",
"502 -12 OFFCURVE",
"539 1 CURVE SMOOTH",
"612 28 OFFCURVE",
"653 70 OFFCURVE",
"679 142 CURVE SMOOTH",
"705 213 OFFCURVE",
"711 283 OFFCURVE",
"711 387 CURVE SMOOTH",
"711 445 LINE",
"572 445 LINE",
"572 380 LINE SMOOTH",
"572 338 OFFCURVE",
"571 303 OFFCURVE",
"569 276 CURVE SMOOTH",
"565 220 OFFCURVE",
"552 167 OFFCURVE",
"529 139 CURVE SMOOTH",
"505 111 OFFCURVE",
"467 94 OFFCURVE",
"411 94 CURVE SMOOTH",
"280 94 OFFCURVE",
"242 175 OFFCURVE",
"242 418 CURVE SMOOTH",
"242 750 LINE SMOOTH",
"242 880 OFFCURVE",
"253 969 OFFCURVE",
"275 1018 CURVE SMOOTH",
"297 1066 OFFCURVE",
"342 1090 OFFCURVE",
"410 1090 CURVE SMOOTH",
"530 1090 OFFCURVE",
"572 1026 OFFCURVE",
"572 823 CURVE SMOOTH",
"572 767 LINE",
"711 767 LINE",
"711 823 LINE SMOOTH",
"711 872 OFFCURVE",
"709 914 OFFCURVE",
"704 951 CURVE SMOOTH",
"694 1023 OFFCURVE",
"668 1093 OFFCURVE",
"624 1135 CURVE SMOOTH",
"579 1177 OFFCURVE",
"507 1202 OFFCURVE",
"408 1202 CURVE SMOOTH",
"283 1202 OFFCURVE",
"203 1167 OFFCURVE",
"156 1086 CURVE SMOOTH",
"108 1005 OFFCURVE",
"92 897 OFFCURVE",
"92 725 CURVE SMOOTH",
"92 449 LINE SMOOTH",
"92 390 OFFCURVE",
"94 340 OFFCURVE",
"99 297 CURVE SMOOTH",
"107 211 OFFCURVE",
"133 119 OFFCURVE",
"178 68 CURVE SMOOTH",
"223 16 OFFCURVE",
"301 -19 OFFCURVE",
"409 -19 CURVE SMOOTH"
);
}
);
width = 796;
}
);
leftKerningGroup = c;
note = c;
rightKerningGroup = c;
unicode = 0063;
},
{
glyphname = d;
lastChange = "2017-12-16 11:27:02 +0000";
layers = (
{
layerId = "D5C3460E-3C16-46B0-9A2C-8808A9C39771";
paths = (
{
closed = 1;
nodes = (
"453 -18 OFFCURVE",
"520 16 OFFCURVE",
"580 84 CURVE",
"580 0 LINE",
"730 0 LINE",
"730 1658 LINE",
"580 1658 LINE",
"580 1099 LINE",
"519 1167 OFFCURVE",
"449 1201 OFFCURVE",
"371 1202 CURVE SMOOTH",
"326 1202 OFFCURVE",
"288 1194 OFFCURVE",
"255 1179 CURVE SMOOTH",
"190 1147 OFFCURVE",
"150 1095 OFFCURVE",
"125 1008 CURVE SMOOTH",
"100 921 OFFCURVE",
"92 828 OFFCURVE",
"92 697 CURVE SMOOTH",
"92 478 LINE SMOOTH",
"92 122 OFFCURVE",
"174 -19 OFFCURVE",
"378 -19 CURVE SMOOTH"
);
},
{
closed = 1;
nodes = (
"343 100 OFFCURVE",
"299 129 OFFCURVE",
"276 186 CURVE SMOOTH",
"253 243 OFFCURVE",
"242 337 OFFCURVE",
"242 466 CURVE SMOOTH",
"242 745 LINE SMOOTH",
"242 985 OFFCURVE",
"277 1084 OFFCURVE",
"404 1084 CURVE SMOOTH",
"461 1084 OFFCURVE",
"520 1056 OFFCURVE",
"580 1000 CURVE",
"580 178 LINE",
"523 126 OFFCURVE",
"466 100 OFFCURVE",
"408 100 CURVE SMOOTH"
);
}
);
width = 845;
}
);
leftKerningGroup = d;
note = d;
rightKerningGroup = d;
unicode = 0064;
},
{
glyphname = e;
lastChange = "2017-12-16 11:27:02 +0000";
layers = (
{
layerId = "D5C3460E-3C16-46B0-9A2C-8808A9C39771";
paths = (
{
closed = 1;
nodes = (
"631 -19 OFFCURVE",
"720 110 OFFCURVE",
"720 339 CURVE SMOOTH",
"720 405 LINE",
"573 405 LINE",
"573 323 LINE SMOOTH",
"573 150 OFFCURVE",
"515 94 OFFCURVE",
"411 94 CURVE SMOOTH",
"280 94 OFFCURVE",
"242 185 OFFCURVE",
"242 430 CURVE SMOOTH",
"242 607 LINE",
"720 607 LINE",
"721 714 LINE SMOOTH",
"721 784 OFFCURVE",
"718 844 OFFCURVE",
"713 894 CURVE SMOOTH",
"702 993 OFFCURVE",
"676 1079 OFFCURVE",
"629 1127 CURVE SMOOTH",
"582 1175 OFFCURVE",
"513 1202 OFFCURVE",
"413 1202 CURVE SMOOTH",
"338 1202 OFFCURVE",
"277 1188 OFFCURVE",
"232 1161 CURVE SMOOTH",
"140 1106 OFFCURVE",
"92 975 OFFCURVE",
"92 744 CURVE SMOOTH",
"92 445 LINE SMOOTH",
"92 106 OFFCURVE",
"185 -19 OFFCURVE",
"412 -19 CURVE SMOOTH"
);
},
{
closed = 1;
nodes = (
"242 1020 OFFCURVE",
"285 1090 OFFCURVE",
"412 1090 CURVE SMOOTH",
"440 1090 OFFCURVE",
"464 1085 OFFCURVE",
"484 1076 CURVE SMOOTH",
"524 1057 OFFCURVE",
"545 1030 OFFCURVE",
"558 976 CURVE SMOOTH",
"570 922 OFFCURVE",
"573 874 OFFCURVE",
"573 791 CURVE SMOOTH",
"573 693 LINE",
"242 693 LINE",
"242 773 LINE SMOOTH"
);
}
);
width = 809;
}
);
leftKerningGroup = e;
note = e;
rightKerningGroup = e;
unicode = 0065;
},
{
glyphname = f;
lastChange = "2017-12-16 11:27:02 +0000";
layers = (
{
layerId = "D5C3460E-3C16-46B0-9A2C-8808A9C39771";
paths = (
{
closed = 1;
nodes = (
"339 1075 LINE",
"531 1075 LINE",
"531 1184 LINE",
"339 1184 LINE",
"339 1323 LINE SMOOTH",
"339 1447 OFFCURVE",
"358 1493 OFFCURVE",
"443 1493 CURVE SMOOTH",
"452 1493 OFFCURVE",
"480 1489 OFFCURVE",
"527 1482 CURVE",
"527 1595 LINE",
"482 1604 OFFCURVE",
"442 1608 OFFCURVE",
"406 1608 CURVE SMOOTH",
"342 1608 OFFCURVE",
"294 1596 OFFCURVE",
"263 1569 CURVE SMOOTH",
"231 1541 OFFCURVE",
"213 1512 OFFCURVE",
"203 1463 CURVE SMOOTH",
"193 1414 OFFCURVE",
"190 1372 OFFCURVE",
"190 1307 CURVE SMOOTH",
"190 1184 LINE",
"36 1184 LINE",
"36 1075 LINE",
"190 1075 LINE",
"190 0 LINE",
"339 0 LINE"
);
}
);
width = 549;
}
);
leftKerningGroup = f;
note = f;
rightKerningGroup = f;
unicode = 0066;
},
{
glyphname = g;
lastChange = "2017-12-16 11:27:02 +0000";
layers = (
{
layerId = "D5C3460E-3C16-46B0-9A2C-8808A9C39771";
paths = (
{
closed = 1;
nodes = (
"666 -389 OFFCURVE",
"807 -302 OFFCURVE",
"807 -114 CURVE SMOOTH",
"807 42 OFFCURVE",
"706 124 OFFCURVE",
"511 159 CURVE",
"504 161 OFFCURVE",
"474 166 OFFCURVE",
"421 174 CURVE SMOOTH",
"368 181 OFFCURVE",
"335 187 OFFCURVE",
"321 191 CURVE",
"255 202 OFFCURVE",
"222 217 OFFCURVE",
"222 236 CURVE SMOOTH",
"222 246 OFFCURVE",
"225 259 OFFCURVE",
"232 274 CURVE SMOOTH",
"245 304 OFFCURVE",
"255 317 OFFCURVE",
"281 356 CURVE SMOOTH",
"294 375 OFFCURVE",
"301 387 OFFCURVE",
"303 390 CURVE",
"323 382 OFFCURVE",
"387 371 OFFCURVE",
"423 371 CURVE SMOOTH",
"650 371 OFFCURVE",
"750 530 OFFCURVE",
"750 785 CURVE SMOOTH",
"750 842 OFFCURVE",
"732 944 OFFCURVE",
"712 992 CURVE",
"745 1031 OFFCURVE",
"842 1079 OFFCURVE",
"907 1095 CURVE",
"867 1200 LINE",
"836 1187 LINE SMOOTH",
"768 1158 OFFCURVE",
"701 1099 OFFCURVE",
"676 1055 CURVE",
"625 1153 OFFCURVE",
"540 1202 OFFCURVE",
"421 1202 CURVE SMOOTH",
"310 1202 OFFCURVE",
"223 1156 OFFCURVE",
"171 1080 CURVE SMOOTH",
"118 1003 OFFCURVE",
"91 904 OFFCURVE",
"91 789 CURVE SMOOTH",
"91 620 OFFCURVE",
"140 499 OFFCURVE",
"239 427 CURVE",
"145 330 OFFCURVE",
"98 251 OFFCURVE",
"98 188 CURVE SMOOTH",
"98 144 OFFCURVE",
"158 103 OFFCURVE",
"230 83 CURVE",
"121 26 OFFCURVE",
"34 -74 OFFCURVE",
"34 -189 CURVE SMOOTH",
"34 -262 OFFCURVE",
"74 -315 OFFCURVE",
"147 -346 CURVE SMOOTH",
"220 -377 OFFCURVE",
"314 -389 OFFCURVE",
"439 -389 CURVE SMOOTH"
);
},
{
closed = 1;
nodes = (
"340 -269 OFFCURVE",
"270 -259 OFFCURVE",
"227 -238 CURVE SMOOTH",
"184 -218 OFFCURVE",
"163 -185 OFFCURVE",
"163 -140 CURVE SMOOTH",
"163 -67 OFFCURVE",
"213 1 OFFCURVE",
"313 63 CURVE",
"465 43 LINE",
"640 11 OFFCURVE",
"688 -31 OFFCURVE",
"688 -118 CURVE SMOOTH",
"688 -219 OFFCURVE",
"592 -269 OFFCURVE",
"437 -269 CURVE SMOOTH"
);
},
{
closed = 1;
nodes = (
"291 479 OFFCURVE",
"225 582 OFFCURVE",
"225 789 CURVE SMOOTH",
"225 818 OFFCURVE",
"227 846 OFFCURVE",
"230 873 CURVE SMOOTH",
"236 925 OFFCURVE",
"254 986 OFFCURVE",
"283 1026 CURVE SMOOTH",
"311 1066 OFFCURVE",
"361 1095 OFFCURVE",
"424 1095 CURVE SMOOTH",
"553 1095 OFFCURVE",
"618 993 OFFCURVE",
"618 789 CURVE SMOOTH",
"618 756 OFFCURVE",
"617 726 OFFCURVE",
"615 701 CURVE SMOOTH",
"610 649 OFFCURVE",
"594 585 OFFCURVE",
"567 546 CURVE SMOOTH",
"540 507 OFFCURVE",
"490 479 OFFCURVE",
"423 479 CURVE SMOOTH"
);
}
);
width = 883;
}
);
leftKerningGroup = g;
note = g;
rightKerningGroup = g;
unicode = 0067;
},
{
glyphname = h;
lastChange = "2017-12-16 11:27:02 +0000";
layers = (
{
layerId = "D5C3460E-3C16-46B0-9A2C-8808A9C39771";
paths = (
{
closed = 1;
nodes = (
"267 974 LINE",
"340 1047 OFFCURVE",
"409 1084 OFFCURVE",
"474 1084 CURVE SMOOTH",
"551 1084 OFFCURVE",
"586 1038 OFFCURVE",
"586 918 CURVE SMOOTH",
"586 0 LINE",
"737 0 LINE",
"737 950 LINE SMOOTH",
"737 1111 OFFCURVE",
"673 1202 OFFCURVE",
"554 1202 CURVE SMOOTH",
"451 1202 OFFCURVE",
"356 1154 OFFCURVE",
"267 1059 CURVE",
"267 1658 LINE",
"117 1658 LINE",
"117 0 LINE",
"267 0 LINE"
);
}
);
width = 844;
}
);
note = h;
rightKerningGroup = h;
unicode = 0068;
},
{
glyphname = i;
lastChange = "2017-12-16 11:27:02 +0000";
layers = (
{
layerId = "D5C3460E-3C16-46B0-9A2C-8808A9C39771";
paths = (
{
closed = 1;
nodes = (
"281 1184 LINE",
"131 1184 LINE",
"131 0 LINE",
"281 0 LINE"
);
},
{
closed = 1;
nodes = (
"282 1551 LINE",
"131 1551 LINE",
"131 1347 LINE",
"282 1347 LINE"
);
}
);
width = 418;
}
);
note = i;
unicode = 0069;
},
{
glyphname = j;
lastChange = "2017-12-16 11:27:02 +0000";
layers = (
{
layerId = "D5C3460E-3C16-46B0-9A2C-8808A9C39771";
paths = (
{
closed = 1;
nodes = (
"-23 -308 OFFCURVE",
"4 -310 OFFCURVE",
"46 -310 CURVE SMOOTH",
"213 -310 OFFCURVE",
"307 -224 OFFCURVE",
"307 -41 CURVE SMOOTH",
"307 1184 LINE",
"157 1184 LINE",
"157 -28 LINE SMOOTH",
"157 -47 OFFCURVE",
"156 -64 OFFCURVE",
"155 -78 CURVE",
"151 -107 OFFCURVE",
"140 -140 OFFCURVE",
"121 -159 CURVE SMOOTH",
"101 -179 OFFCURVE",
"65 -192 OFFCURVE",
"17 -192 CURVE SMOOTH",
"-10 -192 OFFCURVE",
"-27 -191 OFFCURVE",
"-34 -189 CURVE",
"-34 -303 LINE"
);
},
{
closed = 1;
nodes = (
"308 1551 LINE",
"157 1551 LINE",
"157 1347 LINE",
"308 1347 LINE"
);
}
);
width = 436;
}
);
leftKerningGroup = j;
note = j;
unicode = 006A;
},
{
glyphname = k;
lastChange = "2017-12-16 11:27:02 +0000";
layers = (
{
layerId = "D5C3460E-3C16-46B0-9A2C-8808A9C39771";
paths = (
{
closed = 1;
nodes = (
"266 448 LINE",
"407 644 LINE",
"656 0 LINE",
"806 0 LINE",
"522 727 LINE",
"821 1184 LINE",
"661 1184 LINE",
"266 606 LINE",
"266 1660 LINE",
"116 1660 LINE",
"116 2 LINE",
"266 2 LINE"
);
}
);
width = 820;
}
);
note = k;
unicode = 006B;
},
{
glyphname = l;
lastChange = "2017-12-16 11:27:02 +0000";
layers = (
{
layerId = "D5C3460E-3C16-46B0-9A2C-8808A9C39771";
paths = (
{
closed = 1;
nodes = (
"286 1658 LINE",
"135 1658 LINE",
"135 0 LINE",
"286 0 LINE"
);
}
);
width = 414;
}
);
note = l;
unicode = 006C;
},
{
glyphname = m;
lastChange = "2017-12-16 11:27:02 +0000";
layers = (
{
layerId = "D5C3460E-3C16-46B0-9A2C-8808A9C39771";
paths = (
{
closed = 1;
nodes = (
"255 980 LINE",
"327 1061 OFFCURVE",
"401 1102 OFFCURVE",
"476 1103 CURVE SMOOTH",
"551 1103 OFFCURVE",
"594 1059 OFFCURVE",
"594 930 CURVE SMOOTH",
"594 0 LINE",
"734 0 LINE",
"734 934 LINE SMOOTH",
"734 945 OFFCURVE",
"733 960 OFFCURVE",
"732 980 CURVE",
"805 1061 OFFCURVE",
"880 1102 OFFCURVE",
"955 1103 CURVE SMOOTH",
"1030 1103 OFFCURVE",
"1071 1059 OFFCURVE",
"1071 930 CURVE SMOOTH",
"1071 0 LINE",
"1213 0 LINE",
"1213 934 LINE SMOOTH",
"1213 1126 OFFCURVE",
"1129 1205 OFFCURVE",
"1012 1205 CURVE SMOOTH",
"900 1205 OFFCURVE",
"803 1153 OFFCURVE",
"720 1049 CURVE",
"695 1153 OFFCURVE",
"633 1205 OFFCURVE",
"534 1205 CURVE SMOOTH",
"427 1205 OFFCURVE",
"334 1158 OFFCURVE",
"255 1064 CURVE",
"255 1184 LINE",
"114 1184 LINE",
"114 0 LINE",
"255 0 LINE"
);
}
);
width = 1319;
}
);
note = m;
unicode = 006D;
},
{
glyphname = n;
lastChange = "2017-12-16 11:27:02 +0000";
layers = (
{
layerId = "D5C3460E-3C16-46B0-9A2C-8808A9C39771";
paths = (
{
closed = 1;
nodes = (
"264 975 LINE",
"335 1048 OFFCURVE",
"403 1084 OFFCURVE",
"468 1084 CURVE SMOOTH",
"545 1084 OFFCURVE",
"581 1038 OFFCURVE",
"581 918 CURVE SMOOTH",
"581 0 LINE",
"731 0 LINE",
"731 950 LINE SMOOTH",
"731 1111 OFFCURVE",
"666 1202 OFFCURVE",
"549 1202 CURVE SMOOTH",
"446 1202 OFFCURVE",
"351 1155 OFFCURVE",
"264 1061 CURVE",
"264 1184 LINE",
"114 1184 LINE",
"114 0 LINE",
"264 0 LINE"
);
}
);
width = 838;
}
);
note = n;
unicode = 006E;
},
{
glyphname = o;
lastChange = "2017-12-16 11:27:02 +0000";
layers = (
{
layerId = "D5C3460E-3C16-46B0-9A2C-8808A9C39771";
paths = (
{
closed = 1;
nodes = (
"357 94 OFFCURVE",
"320 107 OFFCURVE",
"296 137 CURVE SMOOTH",
"272 167 OFFCURVE",
"258 196 OFFCURVE",
"251 251 CURVE SMOOTH",
"243 306 OFFCURVE",
"242 347 OFFCURVE",
"242 420 CURVE SMOOTH",
"242 764 LINE SMOOTH",
"242 837 OFFCURVE",
"243 878 OFFCURVE",
"251 933 CURVE SMOOTH",
"258 988 OFFCURVE",
"272 1018 OFFCURVE",
"296 1048 CURVE SMOOTH",
"320 1078 OFFCURVE",
"357 1090 OFFCURVE",
"408 1090 CURVE SMOOTH",
"438 1090 OFFCURVE",
"463 1085 OFFCURVE",
"484 1074 CURVE SMOOTH",
"525 1052 OFFCURVE",
"547 1022 OFFCURVE",
"559 961 CURVE SMOOTH",
"571 900 OFFCURVE",
"573 853 OFFCURVE",
"573 764 CURVE SMOOTH",
"573 420 LINE SMOOTH",
"573 375 OFFCURVE",
"572 339 OFFCURVE",
"571 311 CURVE",
"567 255 OFFCURVE",
"556 185 OFFCURVE",
"533 152 CURVE SMOOTH",
"509 119 OFFCURVE",
"468 94 OFFCURVE",
"408 94 CURVE SMOOTH"
);
},
{
closed = 1;
nodes = (
"602 29 OFFCURVE",
"635 59 OFFCURVE",
"659 98 CURVE SMOOTH",
"706 177 OFFCURVE",
"724 279 OFFCURVE",
"724 428 CURVE SMOOTH",
"724 756 LINE SMOOTH",
"724 1059 OFFCURVE",
"644 1202 OFFCURVE",
"408 1202 CURVE SMOOTH",
"173 1202 OFFCURVE",
"92 1057 OFFCURVE",
"92 756 CURVE SMOOTH",
"92 428 LINE SMOOTH",
"92 279 OFFCURVE",
"110 177 OFFCURVE",
"158 98 CURVE SMOOTH",
"205 19 OFFCURVE",
"287 -19 OFFCURVE",
"408 -19 CURVE SMOOTH",
"469 -19 OFFCURVE",
"520 -9 OFFCURVE",
"561 10 CURVE SMOOTH"
);
}
);
width = 816;
}
);
leftKerningGroup = o;
note = o;
rightKerningGroup = o;
unicode = 006F;
},
{
glyphname = p;
lastChange = "2017-12-16 11:27:02 +0000";
layers = (
{
layerId = "D5C3460E-3C16-46B0-9A2C-8808A9C39771";
paths = (
{
closed = 1;
nodes = (
"265 94 LINE",
"329 19 OFFCURVE",
"399 -19 OFFCURVE",
"476 -19 CURVE SMOOTH",
"519 -19 OFFCURVE",
"557 -11 OFFCURVE",
"590 5 CURVE SMOOTH",
"655 36 OFFCURVE",
"697 90 OFFCURVE",
"724 175 CURVE SMOOTH",
"751 259 OFFCURVE",
"760 355 OFFCURVE",
"760 480 CURVE SMOOTH",
"760 730 LINE SMOOTH",
"760 783 OFFCURVE",
"758 830 OFFCURVE",
"755 872 CURVE SMOOTH",
"747 955 OFFCURVE",
"724 1048 OFFCURVE",
"686 1105 CURVE SMOOTH",
"648 1162 OFFCURVE",
"580 1202 OFFCURVE",
"492 1202 CURVE SMOOTH",
"404 1202 OFFCURVE",
"328 1163 OFFCURVE",
"265 1085 CURVE",
"265 1184 LINE",
"115 1184 LINE",
"115 -390 LINE",
"265 -390 LINE"
);
},
{
closed = 1;
nodes = (
"382 100 OFFCURVE",
"320 129 OFFCURVE",
"265 186 CURVE",
"265 993 LINE",
"327 1054 OFFCURVE",
"388 1084 OFFCURVE",
"449 1084 CURVE SMOOTH",
"514 1084 OFFCURVE",
"557 1057 OFFCURVE",
"578 1002 CURVE SMOOTH",
"599 947 OFFCURVE",
"610 857 OFFCURVE",
"610 730 CURVE SMOOTH",
"610 478 LINE SMOOTH",
"610 425 OFFCURVE",
"609 381 OFFCURVE",
"607 344 CURVE SMOOTH",
"602 270 OFFCURVE",
"589 200 OFFCURVE",
"566 162 CURVE SMOOTH",
"542 124 OFFCURVE",
"505 100 OFFCURVE",
"452 100 CURVE SMOOTH"
);
}
);
width = 855;
}
);
note = p;
rightKerningGroup = p;
unicode = 0070;
},
{
glyphname = q;
lastChange = "2017-12-16 11:27:02 +0000";
layers = (
{
layerId = "D5C3460E-3C16-46B0-9A2C-8808A9C39771";
paths = (
{
closed = 1;
nodes = (
"734 1184 LINE",
"584 1184 LINE",
"584 1098 LINE",
"525 1167 OFFCURVE",
"455 1201 OFFCURVE",
"375 1202 CURVE SMOOTH",
"330 1202 OFFCURVE",
"292 1194 OFFCURVE",
"259 1179 CURVE SMOOTH",
"194 1147 OFFCURVE",
"154 1095 OFFCURVE",
"129 1008 CURVE SMOOTH",
"104 921 OFFCURVE",
"96 828 OFFCURVE",
"96 697 CURVE SMOOTH",
"96 478 LINE SMOOTH",
"96 300 OFFCURVE",
"118 173 OFFCURVE",
"163 96 CURVE SMOOTH",
"251 -57 OFFCURVE",
"465 -52 OFFCURVE",
"584 85 CURVE",
"584 -390 LINE",
"734 -390 LINE"
);
},
{
closed = 1;
nodes = (
"347 100 OFFCURVE",
"303 129 OFFCURVE",
"280 186 CURVE SMOOTH",
"257 243 OFFCURVE",
"246 337 OFFCURVE",
"246 466 CURVE SMOOTH",
"246 745 LINE SMOOTH",
"246 985 OFFCURVE",
"281 1084 OFFCURVE",
"408 1084 CURVE SMOOTH",
"465 1084 OFFCURVE",
"523 1056 OFFCURVE",
"584 1000 CURVE",
"584 179 LINE",
"529 126 OFFCURVE",
"471 100 OFFCURVE",
"412 100 CURVE SMOOTH"
);
}
);
width = 848;
}
);
leftKerningGroup = q;
note = q;
unicode = 0071;
},
{
glyphname = r;
lastChange = "2017-12-16 11:27:02 +0000";
layers = (
{
layerId = "D5C3460E-3C16-46B0-9A2C-8808A9C39771";
paths = (
{
closed = 1;
nodes = (
"276 909 LINE",
"331 1001 OFFCURVE",
"407 1047 OFFCURVE",
"503 1047 CURVE SMOOTH",
"530 1047 OFFCURVE",
"554 1043 OFFCURVE",
"575 1034 CURVE",
"575 1196 LINE",
"570 1197 OFFCURVE",
"561 1197 OFFCURVE",
"549 1197 CURVE SMOOTH",
"450 1197 OFFCURVE",
"348 1141 OFFCURVE",
"276 1021 CURVE",
"276 1184 LINE",
"126 1184 LINE",
"126 0 LINE",
"276 0 LINE"
);
}
);
width = 610;
}
);
leftKerningGroup = r;
note = r;
rightKerningGroup = r;
unicode = 0072;
},
{
glyphname = s;
lastChange = "2017-12-16 11:27:02 +0000";
layers = (
{
layerId = "D5C3460E-3C16-46B0-9A2C-8808A9C39771";
paths = (
{
closed = 1;
nodes = (
"572 -19 OFFCURVE",
"689 85 OFFCURVE",
"689 266 CURVE",
"688 343 OFFCURVE",
"668 411 OFFCURVE",
"625 469 CURVE SMOOTH",
"582 527 OFFCURVE",
"551 558 OFFCURVE",
"491 610 CURVE SMOOTH",
"324 760 LINE SMOOTH",
"249 824 OFFCURVE",
"226 872 OFFCURVE",
"226 949 CURVE SMOOTH",
"226 1034 OFFCURVE",
"286 1090 OFFCURVE",
"379 1090 CURVE SMOOTH",
"483 1090 OFFCURVE",
"538 1015 OFFCURVE",
"547 856 CURVE",
"653 891 LINE",
"642 1082 OFFCURVE",
"548 1202 OFFCURVE",
"373 1202 CURVE SMOOTH",
"201 1202 OFFCURVE",
"90 1104 OFFCURVE",
"90 931 CURVE SMOOTH",
"90 814 OFFCURVE",
"139 733 OFFCURVE",
"252 638 CURVE SMOOTH",
"413 501 LINE SMOOTH",
"507 422 OFFCURVE",
"555 344 OFFCURVE",
"557 265 CURVE SMOOTH",
"557 262 OFFCURVE",
"557 260 OFFCURVE",
"557 258 CURVE SMOOTH",
"557 159 OFFCURVE",
"495 94 OFFCURVE",
"391 94 CURVE SMOOTH",
"271 94 OFFCURVE",
"205 176 OFFCURVE",
"189 356 CURVE",
"63 318 LINE",
"79 111 OFFCURVE",
"197 -19 OFFCURVE",
"385 -19 CURVE SMOOTH"
);
}
);
width = 743;
}
);
leftKerningGroup = s;
note = s;
unicode = 0073;
},
{
glyphname = t;
lastChange = "2017-12-16 11:27:02 +0000";
layers = (
{
layerId = "D5C3460E-3C16-46B0-9A2C-8808A9C39771";
paths = (
{
closed = 1;
nodes = (
"434 -15 OFFCURVE",
"476 -11 OFFCURVE",
"521 -2 CURVE",
"521 111 LINE",
"492 106 OFFCURVE",
"464 103 OFFCURVE",
"437 103 CURVE SMOOTH",
"352 103 OFFCURVE",
"331 140 OFFCURVE",
"331 260 CURVE SMOOTH",
"331 1084 LINE",
"528 1084 LINE",
"528 1184 LINE",
"331 1184 LINE",
"331 1550 LINE",
"181 1550 LINE",
"181 1184 LINE",
"38 1184 LINE",
"38 1084 LINE",
"181 1084 LINE",
"181 246 LINE SMOOTH",
"182 75 OFFCURVE",
"234 -15 OFFCURVE",
"395 -15 CURVE SMOOTH"
);
}
);
width = 573;
}
);
leftKerningGroup = t;
note = t;
unicode = 0074;
},
{
glyphname = u;
lastChange = "2017-12-16 11:27:02 +0000";
layers = (
{
layerId = "D5C3460E-3C16-46B0-9A2C-8808A9C39771";
paths = (
{
closed = 1;
nodes = (
"393 -18 OFFCURVE",
"490 32 OFFCURVE",
"578 131 CURVE",
"578 0 LINE",
"728 0 LINE",
"728 1184 LINE",
"578 1184 LINE",
"578 216 LINE",
"505 139 OFFCURVE",
"435 100 OFFCURVE",
"368 100 CURVE SMOOTH",
"291 100 OFFCURVE",
"256 146 OFFCURVE",
"256 266 CURVE SMOOTH",
"256 1184 LINE",
"105 1184 LINE",
"105 235 LINE SMOOTH",
"105 74 OFFCURVE",
"169 -18 OFFCURVE",
"288 -18 CURVE SMOOTH"
);
}
);
width = 843;
}
);
leftKerningGroup = u;
note = u;
unicode = 0075;
},
{
glyphname = v;
lastChange = "2017-12-16 11:27:02 +0000";
layers = (
{
layerId = "D5C3460E-3C16-46B0-9A2C-8808A9C39771";
paths = (
{
closed = 1;
nodes = (
"717 1184 LINE",
"571 1184 LINE",
"381 173 LINE",
"188 1184 LINE",
"36 1184 LINE",
"294 0 LINE",
"471 0 LINE"
);
}
);
width = 753;
}
);
leftKerningGroup = v;
note = v;
unicode = 0076;
},
{
glyphname = w;
lastChange = "2017-12-16 11:27:02 +0000";
layers = (
{
layerId = "D5C3460E-3C16-46B0-9A2C-8808A9C39771";
paths = (
{
closed = 1;
nodes = (
"593 963 LINE",
"781 0 LINE",
"922 0 LINE",
"1113 1184 LINE",
"986 1184 LINE",
"843 199 LINE",
"655 1184 LINE",
"526 1184 LINE",
"340 195 LINE",
"192 1184 LINE",
"64 1184 LINE",
"257 0 LINE",
"408 0 LINE"
);
}
);
width = 1177;
}
);
leftKerningGroup = w;
note = w;
rightKerningGroup = w;
unicode = 0077;
},
{
glyphname = x;
lastChange = "2017-12-16 11:27:02 +0000";
layers = (
{
layerId = "D5C3460E-3C16-46B0-9A2C-8808A9C39771";
paths = (
{
closed = 1;
nodes = (
"384 466 LINE",
"605 0 LINE",
"748 0 LINE",
"466 602 LINE",
"743 1184 LINE",
"592 1184 LINE",
"398 750 LINE",
"195 1184 LINE",
"46 1184 LINE",
"313 619 LINE",
"33 0 LINE",
"178 0 LINE"
);
}
);
width = 778;
}
);
leftKerningGroup = x;
note = x;
unicode = 0078;
},
{
glyphname = y;
lastChange = "2017-12-16 11:27:02 +0000";
layers = (
{
layerId = "D5C3460E-3C16-46B0-9A2C-8808A9C39771";
paths = (
{
closed = 1;
nodes = (
"324 -295 OFFCURVE",
"423 -236 OFFCURVE",
"458 -85 CURVE SMOOTH",
"745 1184 LINE",
"594 1184 LINE",
"396 177 LINE",
"190 1184 LINE",
"40 1184 LINE",
"44 1168 OFFCURVE",
"82 1007 OFFCURVE",
"153 700 CURVE SMOOTH",
"224 393 OFFCURVE",
"268 207 OFFCURVE",
"284 141 CURVE SMOOTH",
"304 56 OFFCURVE",
"316 2 OFFCURVE",
"319 -23 CURVE SMOOTH",
"321 -37 OFFCURVE",
"322 -50 OFFCURVE",
"322 -61 CURVE SMOOTH",
"321 -104 OFFCURVE",
"316 -138 OFFCURVE",
"244 -161 CURVE SMOOTH",
"208 -172 OFFCURVE",
"154 -178 OFFCURVE",
"82 -178 CURVE",
"82 -295 LINE",
"121 -295 LINE SMOOTH"
);
}
);
width = 780;
}
);
leftKerningGroup = y;
note = y;
rightKerningGroup = y;
unicode = 0079;
},
{
glyphname = z;
lastChange = "2017-12-16 11:27:02 +0000";
layers = (
{
layerId = "D5C3460E-3C16-46B0-9A2C-8808A9C39771";
paths = (
{
closed = 1;
nodes = (
"619 114 LINE",
"226 114 LINE",
"627 1095 LINE",
"627 1184 LINE",
"108 1184 LINE",
"108 1070 LINE",
"469 1070 LINE",
"66 105 LINE",
"66 0 LINE",
"619 0 LINE"
);
}
);
width = 683;
}
);
leftKerningGroup = z;
note = z;
unicode = 007A;
},
{
glyphname = braceleft;
lastChange = "2017-12-16 11:27:02 +0000";
layers = (
{
layerId = "D5C3460E-3C16-46B0-9A2C-8808A9C39771";
paths = (
{
closed = 1;
nodes = (
"421 -225 OFFCURVE",
"381 -211 OFFCURVE",
"369 -182 CURVE SMOOTH",
"357 -154 OFFCURVE",
"351 -68 OFFCURVE",
"351 76 CURVE SMOOTH",
"351 372 LINE SMOOTH",
"351 440 OFFCURVE",
"347 495 OFFCURVE",
"338 537 CURVE SMOOTH",
"320 620 OFFCURVE",
"287 657 OFFCURVE",
"230 673 CURVE",
"259 681 OFFCURVE",
"282 695 OFFCURVE",
"299 716 CURVE SMOOTH",
"333 757 OFFCURVE",
"351 838 OFFCURVE",
"351 974 CURVE SMOOTH",
"351 1261 LINE SMOOTH",
"351 1404 OFFCURVE",
"357 1490 OFFCURVE",
"369 1519 CURVE SMOOTH",
"381 1548 OFFCURVE",
"421 1562 OFFCURVE",
"488 1562 CURVE",
"488 1674 LINE",
"415 1674 OFFCURVE",
"369 1673 OFFCURVE",
"326 1660 CURVE SMOOTH",
"282 1647 OFFCURVE",
"259 1639 OFFCURVE",
"239 1604 CURVE SMOOTH",
"218 1568 OFFCURVE",
"210 1545 OFFCURVE",
"204 1479 CURVE SMOOTH",
"198 1413 OFFCURVE",
"197 1365 OFFCURVE",
"197 1261 CURVE SMOOTH",
"197 1006 LINE SMOOTH",
"197 889 OFFCURVE",
"193 829 OFFCURVE",
"175 786 CURVE SMOOTH",
"157 742 OFFCURVE",
"130 731 OFFCURVE",
"78 731 CURVE",
"78 615 LINE",
"130 615 OFFCURVE",
"157 604 OFFCURVE",
"175 561 CURVE SMOOTH",
"193 517 OFFCURVE",
"197 457 OFFCURVE",
"197 340 CURVE SMOOTH",
"197 76 LINE SMOOTH",
"197 -28 OFFCURVE",
"198 -76 OFFCURVE",
"204 -142 CURVE SMOOTH",
"210 -208 OFFCURVE",
"218 -232 OFFCURVE",
"239 -267 CURVE SMOOTH",
"259 -303 OFFCURVE",
"282 -311 OFFCURVE",
"326 -324 CURVE SMOOTH",
"369 -337 OFFCURVE",
"415 -338 OFFCURVE",
"488 -338 CURVE",
"488 -225 LINE"
);
}
);
width = 528;
}
);
note = braceleft;
unicode = 007B;
},
{
glyphname = bar;
lastChange = "2017-12-16 11:27:02 +0000";
layers = (
{
layerId = "D5C3460E-3C16-46B0-9A2C-8808A9C39771";
paths = (
{
closed = 1;
nodes = (
"293 1658 LINE",
"153 1659 LINE",
"152 -295 LINE",
"292 -295 LINE"
);
}
);
width = 445;
}
);
note = bar;
unicode = 007C;
},
{
glyphname = braceright;
lastChange = "2017-12-16 11:27:02 +0000";
layers = (
{
layerId = "D5C3460E-3C16-46B0-9A2C-8808A9C39771";
paths = (
{
closed = 1;
nodes = (
"123 -338 OFFCURVE",
"161 -337 OFFCURVE",
"201 -329 CURVE SMOOTH",
"240 -322 OFFCURVE",
"262 -317 OFFCURVE",
"286 -297 CURVE SMOOTH",
"309 -277 OFFCURVE",
"320 -264 OFFCURVE",
"332 -227 CURVE SMOOTH",
"343 -191 OFFCURVE",
"347 -165 OFFCURVE",
"351 -107 CURVE SMOOTH",
"354 -49 OFFCURVE",
"354 -7 OFFCURVE",
"354 76 CURVE SMOOTH",
"354 340 LINE SMOOTH",
"354 457 OFFCURVE",
"359 517 OFFCURVE",
"377 561 CURVE SMOOTH",
"395 604 OFFCURVE",
"421 615 OFFCURVE",
"473 615 CURVE",
"473 731 LINE",
"421 731 OFFCURVE",
"395 742 OFFCURVE",
"377 786 CURVE SMOOTH",
"359 829 OFFCURVE",
"354 889 OFFCURVE",
"354 1006 CURVE SMOOTH",
"354 1261 LINE SMOOTH",
"354 1344 OFFCURVE",
"354 1386 OFFCURVE",
"351 1444 CURVE SMOOTH",
"347 1502 OFFCURVE",
"343 1527 OFFCURVE",
"332 1564 CURVE SMOOTH",
"320 1600 OFFCURVE",
"309 1613 OFFCURVE",
"286 1633 CURVE SMOOTH",
"262 1653 OFFCURVE",
"240 1658 OFFCURVE",
"201 1666 CURVE SMOOTH",
"161 1673 OFFCURVE",
"123 1674 OFFCURVE",
"64 1674 CURVE",
"64 1562 LINE",
"131 1562 OFFCURVE",
"171 1548 OFFCURVE",
"183 1519 CURVE SMOOTH",
"195 1490 OFFCURVE",
"201 1404 OFFCURVE",
"201 1261 CURVE SMOOTH",
"201 974 LINE SMOOTH",
"201 906 OFFCURVE",
"206 851 OFFCURVE",
"215 810 CURVE SMOOTH",
"233 726 OFFCURVE",
"265 689 OFFCURVE",
"322 673 CURVE",
"293 665 OFFCURVE",
"271 651 OFFCURVE",
"254 630 CURVE SMOOTH",
"220 589 OFFCURVE",
"201 508 OFFCURVE",
"201 372 CURVE SMOOTH",
"201 76 LINE SMOOTH",
"201 -68 OFFCURVE",
"195 -154 OFFCURVE",
"183 -182 CURVE SMOOTH",
"171 -211 OFFCURVE",
"131 -225 OFFCURVE",
"64 -225 CURVE",
"64 -338 LINE"
);
}
);
width = 552;
}
);
note = braceright;
unicode = 007D;
},
{
glyphname = asciitilde;
lastChange = "2017-12-16 11:27:02 +0000";
layers = (
{
layerId = "D5C3460E-3C16-46B0-9A2C-8808A9C39771";
paths = (
{
closed = 1;
nodes = (
"608 767 OFFCURVE",
"674 809 OFFCURVE",
"754 893 CURVE",
"700 962 LINE",
"675 943 OFFCURVE",
"657 929 OFFCURVE",
"645 920 CURVE SMOOTH",
"621 903 OFFCURVE",
"588 886 OFFCURVE",
"563 886 CURVE SMOOTH",
"540 886 OFFCURVE",
"496 905 OFFCURVE",
"429 942 CURVE SMOOTH",
"362 979 OFFCURVE",
"313 998 OFFCURVE",
"284 998 CURVE SMOOTH",
"227 998 OFFCURVE",
"146 942 OFFCURVE",
"79 869 CURVE",
"133 799 LINE",
"194 854 OFFCURVE",
"241 881 OFFCURVE",
"274 881 CURVE SMOOTH",
"297 881 OFFCURVE",
"343 862 OFFCURVE",
"410 824 CURVE SMOOTH",
"477 786 OFFCURVE",
"526 767 OFFCURVE",
"557 767 CURVE SMOOTH"
);
}
);
width = 833;
}
);
note = asciitilde;
unicode = 007E;
},
{
glyphname = exclamdown;
lastChange = "2017-12-16 11:27:02 +0000";
layers = (
{
layerId = "D5C3460E-3C16-46B0-9A2C-8808A9C39771";
paths = (
{
closed = 1;
nodes = (
"233 906 LINE",
"180 906 LINE",
"125 -396 LINE",
"286 -396 LINE"
);
},
{
closed = 1;
nodes = (
"287 1262 LINE",
"127 1262 LINE",
"127 1083 LINE",
"287 1083 LINE"
);
}
);
width = 412;
}
);
note = exclamdown;
unicode = 00A1;
},
{
glyphname = cent;
lastChange = "2017-12-16 11:27:02 +0000";
layers = (
{
layerId = "D5C3460E-3C16-46B0-9A2C-8808A9C39771";
paths = (
{
closed = 1;
nodes = (
"417 -18 LINE",
"466 -17 OFFCURVE",
"508 -10 OFFCURVE",
"543 4 CURVE SMOOTH",
"614 31 OFFCURVE",
"654 73 OFFCURVE",
"679 144 CURVE SMOOTH",
"704 215 OFFCURVE",
"711 286 OFFCURVE",
"711 387 CURVE SMOOTH",
"711 445 LINE",
"572 445 LINE",
"572 380 LINE SMOOTH",
"572 338 OFFCURVE",
"571 303 OFFCURVE",
"569 276 CURVE SMOOTH",
"565 220 OFFCURVE",
"552 167 OFFCURVE",
"529 139 CURVE SMOOTH",
"505 111 OFFCURVE",
"467 94 OFFCURVE",
"411 94 CURVE SMOOTH",
"280 94 OFFCURVE",
"242 175 OFFCURVE",
"242 418 CURVE SMOOTH",
"242 750 LINE SMOOTH",
"242 880 OFFCURVE",
"253 969 OFFCURVE",
"275 1018 CURVE SMOOTH",
"297 1066 OFFCURVE",
"342 1090 OFFCURVE",
"410 1090 CURVE SMOOTH",
"530 1090 OFFCURVE",
"572 1026 OFFCURVE",
"572 823 CURVE SMOOTH",
"572 767 LINE",
"711 767 LINE",
"711 823 LINE SMOOTH",
"711 870 OFFCURVE",
"709 912 OFFCURVE",
"704 948 CURVE SMOOTH",
"695 1019 OFFCURVE",
"670 1088 OFFCURVE",
"628 1129 CURVE SMOOTH",
"586 1170 OFFCURVE",
"517 1198 OFFCURVE",
"425 1201 CURVE",
"425 1385 LINE",
"363 1385 LINE",
"363 1200 LINE",
"156 1183 OFFCURVE",
"92 1048 OFFCURVE",
"92 725 CURVE SMOOTH",
"92 449 LINE SMOOTH",
"92 394 OFFCURVE",
"94 347 OFFCURVE",
"98 307 CURVE SMOOTH",
"105 226 OFFCURVE",
"126 138 OFFCURVE",
"164 86 CURVE SMOOTH",
"202 33 OFFCURVE",
"266 -7 OFFCURVE",
"355 -16 CURVE",
"355 -204 LINE",
"417 -204 LINE"
);
}
);
width = 783;
}
);
note = cent;
unicode = 00A2;
},
{
glyphname = sterling;
lastChange = "2017-12-16 11:27:02 +0000";
layers = (
{
layerId = "D5C3460E-3C16-46B0-9A2C-8808A9C39771";
paths = (
{
closed = 1;
nodes = (
"725 111 LINE",
"296 111 LINE",
"296 774 LINE",
"568 774 LINE",
"568 886 LINE",
"296 886 LINE",
"296 1203 LINE SMOOTH",
"296 1282 OFFCURVE",
"298 1323 OFFCURVE",
"305 1384 CURVE SMOOTH",
"312 1444 OFFCURVE",
"327 1476 OFFCURVE",
"351 1509 CURVE SMOOTH",
"374 1542 OFFCURVE",
"412 1557 OFFCURVE",
"463 1557 CURVE SMOOTH",
"586 1557 OFFCURVE",
"615 1474 OFFCURVE",
"615 1286 CURVE",
"728 1286 LINE",
"728 1337 LINE",
"727 1441 OFFCURVE",
"713 1514 OFFCURVE",
"675 1578 CURVE SMOOTH",
"637 1642 OFFCURVE",
"567 1676 OFFCURVE",
"464 1676 CURVE SMOOTH",
"424 1676 OFFCURVE",
"388 1671 OFFCURVE",
"357 1662 CURVE SMOOTH",
"293 1642 OFFCURVE",
"251 1612 OFFCURVE",
"219 1558 CURVE SMOOTH",
"187 1504 OFFCURVE",
"170 1451 OFFCURVE",
"159 1370 CURVE SMOOTH",
"148 1289 OFFCURVE",
"146 1221 OFFCURVE",
"146 1120 CURVE SMOOTH",
"146 886 LINE",
"22 886 LINE",
"22 774 LINE",
"146 774 LINE",
"146 111 LINE",
"22 76 LINE",
"22 0 LINE",
"725 0 LINE"
);
}
);
width = 769;
}
);
note = sterling;
unicode = 00A3;
},
{
glyphname = currency;
lastChange = "2017-12-16 11:27:02 +0000";
layers = (
{
layerId = "D5C3460E-3C16-46B0-9A2C-8808A9C39771";
paths = (
{
closed = 1;
nodes = (
"329 466 OFFCURVE",
"426 428 OFFCURVE",
"538 428 CURVE SMOOTH",
"539 428 OFFCURVE",
"541 428 OFFCURVE",
"542 428 CURVE SMOOTH",
"543 428 OFFCURVE",
"543 428 OFFCURVE",
"544 428 CURVE SMOOTH",
"656 428 OFFCURVE",
"753 466 OFFCURVE",
"834 543 CURVE",
"996 381 LINE",
"1026 411 LINE",
"863 573 LINE",
"937 656 OFFCURVE",
"974 753 OFFCURVE",
"974 866 CURVE SMOOTH",
"974 978 OFFCURVE",
"937 1076 OFFCURVE",
"864 1159 CURVE",
"1026 1321 LINE",
"996 1351 LINE",
"834 1189 LINE",
"753 1266 OFFCURVE",
"656 1304 OFFCURVE",
"544 1304 CURVE SMOOTH",
"543 1304 OFFCURVE",
"542 1304 OFFCURVE",
"541 1304 CURVE SMOOTH",
"540 1304 OFFCURVE",
"539 1304 OFFCURVE",
"538 1304 CURVE SMOOTH",
"426 1304 OFFCURVE",
"329 1266 OFFCURVE",
"248 1189 CURVE",
"86 1351 LINE",
"56 1321 LINE",
"219 1159 LINE",
"145 1076 OFFCURVE",
"108 979 OFFCURVE",
"108 866 CURVE SMOOTH",
"108 753 OFFCURVE",
"145 656 OFFCURVE",
"219 573 CURVE",
"56 411 LINE",
"86 381 LINE",
"248 543 LINE"
);
},
{
closed = 1;
nodes = (
"341 498 OFFCURVE",
"184 662 OFFCURVE",
"184 866 CURVE SMOOTH",
"184 1070 OFFCURVE",
"340 1235 OFFCURVE",
"541 1235 CURVE SMOOTH",
"742 1235 OFFCURVE",
"898 1070 OFFCURVE",
"898 866 CURVE SMOOTH",
"898 662 OFFCURVE",
"742 498 OFFCURVE",
"541 498 CURVE SMOOTH"
);
}
);
width = 1078;
}
);
note = currency;
unicode = 00A4;
},
{
glyphname = yen;
lastChange = "2017-12-16 11:27:02 +0000";
layers = (
{
layerId = "D5C3460E-3C16-46B0-9A2C-8808A9C39771";
paths = (
{
closed = 1;
nodes = (
"536 225 LINE",
"737 225 LINE",
"737 325 LINE",
"536 325 LINE",
"536 510 LINE",
"737 510 LINE",
"737 608 LINE",
"555 608 LINE",
"901 1658 LINE",
"748 1658 LINE",
"461 737 LINE",
"163 1658 LINE",
"10 1658 LINE",
"364 608 LINE",
"180 608 LINE",
"180 510 LINE",
"384 510 LINE",
"384 325 LINE",
"180 325 LINE",
"180 225 LINE",
"384 225 LINE",
"384 0 LINE",
"536 0 LINE"
);
}
);
width = 889;
}
);
note = yen;
unicode = 00A5;
},
{
glyphname = brokenbar;
lastChange = "2017-12-16 11:27:02 +0000";
layers = (
{
layerId = "D5C3460E-3C16-46B0-9A2C-8808A9C39771";
paths = (
{
closed = 1;
nodes = (
"270 502 LINE",
"144 502 LINE",
"144 -348 LINE",
"270 -348 LINE"
);
},
{
closed = 1;
nodes = (
"270 1658 LINE",
"144 1658 LINE",
"144 808 LINE",
"270 808 LINE"
);
}
);
width = 414;
}
);
note = brokenbar;
unicode = 00A6;
},
{
glyphname = section;
lastChange = "2017-12-16 11:27:02 +0000";
layers = (
{
layerId = "D5C3460E-3C16-46B0-9A2C-8808A9C39771";
paths = (
{
closed = 1;
nodes = (
"603 -18 OFFCURVE",
"725 90 OFFCURVE",
"725 266 CURVE SMOOTH",
"725 302 OFFCURVE",
"718 336 OFFCURVE",
"703 369 CURVE SMOOTH",
"673 433 OFFCURVE",
"649 458 OFFCURVE",
"594 514 CURVE",
"696 568 OFFCURVE",
"749 646 OFFCURVE",
"754 748 CURVE",
"754 754 OFFCURVE",
"754 760 OFFCURVE",
"754 766 CURVE SMOOTH",
"754 874 OFFCURVE",
"703 968 OFFCURVE",
"602 1049 CURVE SMOOTH",
"372 1224 LINE",
"296 1290 OFFCURVE",
"258 1350 OFFCURVE",
"258 1403 CURVE SMOOTH",
"258 1498 OFFCURVE",
"320 1553 OFFCURVE",
"409 1553 CURVE SMOOTH",
"464 1553 OFFCURVE",
"509 1526 OFFCURVE",
"541 1478 CURVE SMOOTH",
"572 1430 OFFCURVE",
"586 1396 OFFCURVE",
"605 1341 CURVE",
"722 1379 LINE",
"665 1576 OFFCURVE",
"562 1675 OFFCURVE",
"412 1675 CURVE SMOOTH",
"228 1675 OFFCURVE",
"110 1571 OFFCURVE",
"110 1416 CURVE SMOOTH",
"110 1335 OFFCURVE",
"160 1253 OFFCURVE",
"260 1170 CURVE",
"153 1131 OFFCURVE",
"79 1046 OFFCURVE",
"79 925 CURVE SMOOTH",
"79 838 OFFCURVE",
"124 759 OFFCURVE",
"213 689 CURVE SMOOTH",
"442 501 LINE",
"503 442 OFFCURVE",
"543 395 OFFCURVE",
"562 360 CURVE SMOOTH",
"578 329 OFFCURVE",
"586 298 OFFCURVE",
"587 266 CURVE SMOOTH",
"587 263 OFFCURVE",
"587 259 OFFCURVE",
"587 256 CURVE SMOOTH",
"584 161 OFFCURVE",
"517 103 OFFCURVE",
"417 103 CURVE SMOOTH",
"310 103 OFFCURVE",
"238 205 OFFCURVE",
"203 336 CURVE",
"89 298 LINE",
"133 114 OFFCURVE",
"239 -18 OFFCURVE",
"415 -18 CURVE SMOOTH"
);
},
{
closed = 1;
nodes = (
"249 834 OFFCURVE",
"226 879 OFFCURVE",
"226 926 CURVE SMOOTH",
"226 1005 OFFCURVE",
"278 1063 OFFCURVE",
"353 1090 CURVE",
"512 958 LINE SMOOTH",
"586 897 OFFCURVE",
"623 833 OFFCURVE",
"623 767 CURVE SMOOTH",
"623 761 OFFCURVE",
"623 755 OFFCURVE",
"622 748 CURVE",
"617 679 OFFCURVE",
"561 624 OFFCURVE",
"498 597 CURVE",
"294 792 LINE SMOOTH"
);
}
);
width = 820;
}
);
note = section;
unicode = 00A7;
},
{
glyphname = dieresis;
lastChange = "2017-12-16 11:27:02 +0000";
layers = (
{
layerId = "D5C3460E-3C16-46B0-9A2C-8808A9C39771";
paths = (
{
closed = 1;
nodes = (
"294 1658 LINE",
"140 1658 LINE",
"140 1477 LINE",
"294 1477 LINE"
);
},
{
closed = 1;
nodes = (
"630 1658 LINE",
"476 1658 LINE",
"476 1477 LINE",
"630 1477 LINE"
);
}
);
width = 784;
}
);
note = dieresis;
unicode = 00A8;
},
{
glyphname = copyright;
lastChange = "2017-12-16 11:27:02 +0000";
layers = (
{
layerId = "D5C3460E-3C16-46B0-9A2C-8808A9C39771";
paths = (
{
closed = 1;
nodes = (
"923 249 OFFCURVE",
"971 256 OFFCURVE",
"1011 269 CURVE SMOOTH",
"1091 295 OFFCURVE",
"1136 336 OFFCURVE",
"1164 409 CURVE SMOOTH",
"1191 482 OFFCURVE",
"1198 553 OFFCURVE",
"1198 665 CURVE SMOOTH",
"1198 717 LINE",
"1052 717 LINE",
"1052 658 LINE SMOOTH",
"1052 545 OFFCURVE",
"1046 485 OFFCURVE",
"1020 435 CURVE SMOOTH",
"994 385 OFFCURVE",
"949 367 OFFCURVE",
"870 367 CURVE SMOOTH",
"722 367 OFFCURVE",
"677 450 OFFCURVE",
"677 709 CURVE SMOOTH",
"677 1000 LINE SMOOTH",
"677 1277 OFFCURVE",
"716 1359 OFFCURVE",
"869 1359 CURVE SMOOTH",
"961 1359 OFFCURVE",
"1007 1336 OFFCURVE",
"1033 1257 CURVE SMOOTH",
"1046 1217 OFFCURVE",
"1052 1160 OFFCURVE",
"1052 1085 CURVE SMOOTH",
"1052 1030 LINE",
"1198 1030 LINE",
"1198 1086 LINE SMOOTH",
"1198 1138 OFFCURVE",
"1196 1183 OFFCURVE",
"1191 1221 CURVE SMOOTH",
"1181 1296 OFFCURVE",
"1153 1369 OFFCURVE",
"1105 1410 CURVE SMOOTH",
"1056 1451 OFFCURVE",
"976 1477 OFFCURVE",
"867 1477 CURVE SMOOTH",
"727 1477 OFFCURVE",
"640 1443 OFFCURVE",
"588 1358 CURVE SMOOTH",
"535 1273 OFFCURVE",
"517 1159 OFFCURVE",
"517 974 CURVE SMOOTH",
"517 741 LINE SMOOTH",
"517 678 OFFCURVE",
"519 623 OFFCURVE",
"524 578 CURVE SMOOTH",
"533 487 OFFCURVE",
"561 391 OFFCURVE",
"612 338 CURVE SMOOTH",
"663 285 OFFCURVE",
"748 249 OFFCURVE",
"867 249 CURVE SMOOTH"
);
},
{
closed = 1;
nodes = (
"447 154 OFFCURVE",
"337 256 OFFCURVE",
"259 393 CURVE SMOOTH",
"181 529 OFFCURVE",
"146 681 OFFCURVE",
"146 845 CURVE SMOOTH",
"146 927 OFFCURVE",
"155 1006 OFFCURVE",
"173 1081 CURVE SMOOTH",
"209 1232 OFFCURVE",
"289 1373 OFFCURVE",
"403 1473 CURVE SMOOTH",
"517 1573 OFFCURVE",
"686 1636 OFFCURVE",
"886 1636 CURVE SMOOTH",
"986 1636 OFFCURVE",
"1077 1621 OFFCURVE",
"1160 1592 CURVE SMOOTH",
"1325 1533 OFFCURVE",
"1434 1432 OFFCURVE",
"1513 1296 CURVE SMOOTH",
"1592 1160 OFFCURVE",
"1626 1009 OFFCURVE",
"1626 845 CURVE SMOOTH",
"1626 763 OFFCURVE",
"1617 684 OFFCURVE",
"1599 609 CURVE SMOOTH",
"1563 457 OFFCURVE",
"1482 315 OFFCURVE",
"1369 215 CURVE SMOOTH",
"1256 114 OFFCURVE",
"1086 50 OFFCURVE",
"886 50 CURVE SMOOTH",
"786 50 OFFCURVE",
"695 65 OFFCURVE",
"612 95 CURVE SMOOTH"
);
},
{
closed = 1;
nodes = (
"965 -22 OFFCURVE",
"1042 -13 OFFCURVE",
"1113 4 CURVE SMOOTH",
"1256 39 OFFCURVE",
"1363 102 OFFCURVE",
"1453 188 CURVE SMOOTH",
"1543 274 OFFCURVE",
"1603 374 OFFCURVE",
"1645 489 CURVE SMOOTH",
"1687 604 OFFCURVE",
"1705 722 OFFCURVE",
"1705 843 CURVE SMOOTH",
"1705 986 OFFCURVE",
"1678 1123 OFFCURVE",
"1623 1253 CURVE SMOOTH",
"1567 1383 OFFCURVE",
"1475 1493 OFFCURVE",
"1357 1576 CURVE SMOOTH",
"1239 1659 OFFCURVE",
"1072 1708 OFFCURVE",
"883 1708 CURVE SMOOTH",
"770 1708 OFFCURVE",
"667 1691 OFFCURVE",
"574 1658 CURVE SMOOTH",
"388 1591 OFFCURVE",
"267 1478 OFFCURVE",
"182 1328 CURVE SMOOTH",
"97 1178 OFFCURVE",
"60 1015 OFFCURVE",
"60 843 CURVE SMOOTH",
"60 782 OFFCURVE",
"65 723 OFFCURVE",
"75 664 CURVE SMOOTH",
"94 547 OFFCURVE",
"138 429 OFFCURVE",
"200 328 CURVE SMOOTH",
"262 227 OFFCURVE",
"354 139 OFFCURVE",
"464 77 CURVE SMOOTH",
"574 15 OFFCURVE",
"720 -22 OFFCURVE",
"883 -22 CURVE SMOOTH"
);
}
);
width = 1765;
}
);
note = copyright;
unicode = 00A9;
},
{
glyphname = ordfeminine;
lastChange = "2017-12-16 11:27:02 +0000";
layers = (
{
layerId = "D5C3460E-3C16-46B0-9A2C-8808A9C39771";
paths = (
{
closed = 1;
nodes = (
"454 696 OFFCURVE",
"539 752 OFFCURVE",
"576 833 CURVE",
"582 710 LINE",
"699 710 LINE",
"699 1322 LINE SMOOTH",
"699 1574 OFFCURVE",
"639 1681 OFFCURVE",
"448 1681 CURVE SMOOTH",
"279 1681 OFFCURVE",
"184 1579 OFFCURVE",
"180 1395 CURVE",
"304 1393 LINE",
"304 1518 OFFCURVE",
"359 1576 OFFCURVE",
"447 1576 CURVE SMOOTH",
"536 1576 OFFCURVE",
"567 1513 OFFCURVE",
"567 1350 CURVE SMOOTH",
"567 1261 LINE",
"529 1246 OFFCURVE",
"499 1234 OFFCURVE",
"476 1225 CURVE SMOOTH",
"430 1206 OFFCURVE",
"362 1178 OFFCURVE",
"329 1160 CURVE SMOOTH",
"296 1142 OFFCURVE",
"248 1114 OFFCURVE",
"227 1093 CURVE SMOOTH",
"206 1072 OFFCURVE",
"179 1042 OFFCURVE",
"168 1013 CURVE SMOOTH",
"157 984 OFFCURVE",
"150 948 OFFCURVE",
"150 907 CURVE SMOOTH",
"150 782 OFFCURVE",
"234 696 OFFCURVE",
"358 696 CURVE SMOOTH"
);
},
{
closed = 1;
nodes = (
"333 806 OFFCURVE",
"282 847 OFFCURVE",
"282 931 CURVE SMOOTH",
"282 950 OFFCURVE",
"284 967 OFFCURVE",
"289 982 CURVE",
"297 1013 OFFCURVE",
"303 1034 OFFCURVE",
"332 1060 CURVE SMOOTH",
"361 1086 OFFCURVE",
"372 1096 OFFCURVE",
"424 1124 CURVE SMOOTH",
"476 1151 OFFCURVE",
"492 1159 OFFCURVE",
"567 1194 CURVE",
"567 925 LINE",
"531 854 OFFCURVE",
"471 806 OFFCURVE",
"398 806 CURVE SMOOTH"
);
}
);
width = 842;
}
);
note = ordfeminine;
unicode = 00AA;
},
{
glyphname = guillemotleft;
lastChange = "2017-12-16 11:27:02 +0000";
layers = (
{
layerId = "D5C3460E-3C16-46B0-9A2C-8808A9C39771";
paths = (
{
closed = 1;
nodes = (
"201 654 LINE",
"417 935 LINE",
"417 1126 LINE",
"76 685 LINE",
"76 618 LINE",
"417 176 LINE",
"417 367 LINE"
);
},
{
closed = 1;
nodes = (
"535 652 LINE",
"752 935 LINE",
"752 1126 LINE",
"410 685 LINE",
"410 618 LINE",
"752 176 LINE",
"752 367 LINE"
);
}
);
width = 873;
}
);
note = guillemotleft;
unicode = 00AB;
},
{
glyphname = logicalnot;
lastChange = "2017-12-16 11:27:02 +0000";
layers = (
{
layerId = "D5C3460E-3C16-46B0-9A2C-8808A9C39771";
paths = (
{
closed = 1;
nodes = (
"686 909 LINE",
"84 909 LINE",
"84 790 LINE",
"595 790 LINE",
"595 561 LINE",
"686 561 LINE"
);
}
);
width = 745;
}
);
note = logicalnot;
unicode = 00AC;
},
{
glyphname = uni00AD;
lastChange = "2017-12-16 11:27:02 +0000";
layers = (
{
layerId = "D5C3460E-3C16-46B0-9A2C-8808A9C39771";
paths = (
{
closed = 1;
nodes = (
"575 874 LINE",
"118 874 LINE",
"118 758 LINE",
"575 758 LINE"
);
}
);
width = 684;
}
);
note = uni00AD;
unicode = 00AD;
},
{
glyphname = registered;
lastChange = "2017-12-16 11:27:02 +0000";
layers = (
{
layerId = "D5C3460E-3C16-46B0-9A2C-8808A9C39771";
paths = (
{
closed = 1;
nodes = (
"745 812 LINE",
"938 812 LINE",
"1129 252 LINE",
"1267 252 LINE",
"1061 836 LINE",
"1192 868 OFFCURVE",
"1253 974 OFFCURVE",
"1253 1122 CURVE SMOOTH",
"1253 1332 OFFCURVE",
"1151 1437 OFFCURVE",
"948 1437 CURVE SMOOTH",
"612 1437 LINE",
"612 252 LINE",
"745 252 LINE"
);
},
{
closed = 1;
nodes = (
"936 1343 LINE SMOOTH",
"1069 1343 OFFCURVE",
"1117 1272 OFFCURVE",
"1117 1125 CURVE SMOOTH",
"1117 962 OFFCURVE",
"1073 893 OFFCURVE",
"913 893 CURVE SMOOTH",
"745 893 LINE",
"745 1343 LINE"
);
},
{
closed = 1;
nodes = (
"799 55 OFFCURVE",
"709 70 OFFCURVE",
"628 99 CURVE SMOOTH",
"465 157 OFFCURVE",
"358 258 OFFCURVE",
"282 392 CURVE SMOOTH",
"205 526 OFFCURVE",
"171 675 OFFCURVE",
"171 836 CURVE SMOOTH",
"171 917 OFFCURVE",
"180 994 OFFCURVE",
"198 1069 CURVE SMOOTH",
"233 1218 OFFCURVE",
"311 1356 OFFCURVE",
"423 1455 CURVE SMOOTH",
"534 1554 OFFCURVE",
"701 1615 OFFCURVE",
"898 1615 CURVE SMOOTH",
"995 1615 OFFCURVE",
"1085 1601 OFFCURVE",
"1166 1572 CURVE SMOOTH",
"1329 1515 OFFCURVE",
"1435 1414 OFFCURVE",
"1512 1281 CURVE SMOOTH",
"1589 1148 OFFCURVE",
"1623 997 OFFCURVE",
"1623 836 CURVE SMOOTH",
"1623 756 OFFCURVE",
"1614 679 OFFCURVE",
"1597 604 CURVE SMOOTH",
"1561 455 OFFCURVE",
"1482 316 OFFCURVE",
"1371 217 CURVE SMOOTH",
"1260 117 OFFCURVE",
"1093 55 OFFCURVE",
"898 55 CURVE SMOOTH"
);
},
{
closed = 1;
nodes = (
"1391 92 OFFCURVE",
"1510 205 OFFCURVE",
"1595 354 CURVE SMOOTH",
"1680 503 OFFCURVE",
"1716 665 OFFCURVE",
"1716 836 CURVE SMOOTH",
"1716 921 OFFCURVE",
"1707 1004 OFFCURVE",
"1688 1085 CURVE SMOOTH",
"1650 1246 OFFCURVE",
"1562 1402 OFFCURVE",
"1438 1513 CURVE SMOOTH",
"1313 1624 OFFCURVE",
"1123 1696 OFFCURVE",
"898 1696 CURVE SMOOTH",
"785 1696 OFFCURVE",
"683 1679 OFFCURVE",
"590 1646 CURVE SMOOTH",
"405 1579 OFFCURVE",
"285 1467 OFFCURVE",
"200 1318 CURVE SMOOTH",
"115 1169 OFFCURVE",
"79 1007 OFFCURVE",
"79 836 CURVE SMOOTH",
"79 751 OFFCURVE",
"89 668 OFFCURVE",
"108 587 CURVE SMOOTH",
"146 426 OFFCURVE",
"233 270 OFFCURVE",
"358 159 CURVE SMOOTH",
"482 47 OFFCURVE",
"673 -25 OFFCURVE",
"898 -25 CURVE SMOOTH",
"1011 -25 OFFCURVE",
"1113 -8 OFFCURVE",
"1206 25 CURVE SMOOTH"
);
}
);
width = 1795;
}
);
note = registered;
unicode = 00AE;
},
{
glyphname = macron;
lastChange = "2017-12-16 11:27:02 +0000";
layers = (
{
layerId = "D5C3460E-3C16-46B0-9A2C-8808A9C39771";
paths = (
{
closed = 1;
nodes = (
"545 1658 LINE",
"178 1658 LINE",
"178 1562 LINE",
"545 1562 LINE"
);
}
);
width = 704;
}
);
note = macron;
unicode = 00AF;
},
{
glyphname = degree;
lastChange = "2017-12-16 11:27:02 +0000";
layers = (
{
layerId = "D5C3460E-3C16-46B0-9A2C-8808A9C39771";
paths = (
{
closed = 1;
nodes = (
"257 1262 OFFCURVE",
"240 1311 OFFCURVE",
"240 1375 CURVE SMOOTH",
"240 1504 OFFCURVE",
"315 1575 OFFCURVE",
"422 1575 CURVE SMOOTH",
"530 1575 OFFCURVE",
"607 1504 OFFCURVE",
"607 1375 CURVE SMOOTH",
"607 1247 OFFCURVE",
"530 1176 OFFCURVE",
"423 1176 CURVE SMOOTH",
"370 1176 OFFCURVE",
"326 1193 OFFCURVE",
"292 1228 CURVE SMOOTH"
);
},
{
closed = 1;
nodes = (
"596 1074 OFFCURVE",
"724 1181 OFFCURVE",
"724 1376 CURVE SMOOTH",
"724 1569 OFFCURVE",
"596 1676 OFFCURVE",
"423 1676 CURVE SMOOTH",
"248 1676 OFFCURVE",
"122 1571 OFFCURVE",
"122 1376 CURVE SMOOTH",
"122 1181 OFFCURVE",
"248 1074 OFFCURVE",
"423 1074 CURVE SMOOTH"
);
}
);
width = 846;
}
);
note = degree;
unicode = 00B0;
},
{
glyphname = plusminus;
lastChange = "2017-12-16 11:27:02 +0000";
layers = (
{
layerId = "D5C3460E-3C16-46B0-9A2C-8808A9C39771";
paths = (
{
closed = 1;
nodes = (
"417 553 LINE",
"602 553 LINE",
"602 677 LINE",
"417 677 LINE",
"417 861 LINE",
"291 861 LINE",
"291 677 LINE",
"106 677 LINE",
"106 553 LINE",
"291 553 LINE",
"291 369 LINE",
"417 369 LINE"
);
},
{
closed = 1;
nodes = (
"602 124 LINE",
"106 124 LINE",
"106 0 LINE",
"602 0 LINE"
);
}
);
width = 695;
}
);
note = plusminus;
unicode = 00B1;
},
{
glyphname = uni00B2;
lastChange = "2017-12-16 11:27:02 +0000";
layers = (
{
layerId = "D5C3460E-3C16-46B0-9A2C-8808A9C39771";
paths = (
{
closed = 1;
nodes = (
"669 790 LINE",
"309 790 LINE",
"574 1188 LINE SMOOTH",
"604 1233 OFFCURVE",
"627 1269 OFFCURVE",
"642 1295 CURVE SMOOTH",
"672 1347 OFFCURVE",
"701 1434 OFFCURVE",
"701 1519 CURVE SMOOTH",
"701 1699 OFFCURVE",
"609 1799 OFFCURVE",
"441 1799 CURVE SMOOTH",
"258 1799 OFFCURVE",
"177 1693 OFFCURVE",
"177 1488 CURVE SMOOTH",
"177 1459 LINE",
"292 1459 LINE",
"292 1500 OFFCURVE",
"303 1553 OFFCURVE",
"325 1606 CURVE SMOOTH",
"347 1659 OFFCURVE",
"391 1699 OFFCURVE",
"446 1699 CURVE SMOOTH",
"535 1699 OFFCURVE",
"579 1638 OFFCURVE",
"579 1515 CURVE SMOOTH",
"579 1494 OFFCURVE",
"577 1473 OFFCURVE",
"574 1454 CURVE SMOOTH",
"567 1415 OFFCURVE",
"562 1393 OFFCURVE",
"542 1356 CURVE SMOOTH",
"522 1319 OFFCURVE",
"517 1312 OFFCURVE",
"488 1268 CURVE SMOOTH",
"473 1246 OFFCURVE",
"463 1230 OFFCURVE",
"457 1221 CURVE SMOOTH",
"169 777 LINE",
"169 687 LINE",
"669 687 LINE"
);
}
);
width = 848;
}
);
note = uni00B2;
unicode = 00B2;
},
{
glyphname = uni00B3;
lastChange = "2017-12-16 11:27:02 +0000";
layers = (
{
layerId = "D5C3460E-3C16-46B0-9A2C-8808A9C39771";
paths = (
{
closed = 1;
nodes = (
"619 675 OFFCURVE",
"713 797 OFFCURVE",
"713 992 CURVE SMOOTH",
"713 1131 OFFCURVE",
"664 1220 OFFCURVE",
"567 1257 CURVE",
"643 1276 OFFCURVE",
"709 1374 OFFCURVE",
"709 1515 CURVE SMOOTH",
"709 1695 OFFCURVE",
"620 1799 OFFCURVE",
"445 1799 CURVE SMOOTH",
"266 1799 OFFCURVE",
"175 1695 OFFCURVE",
"175 1527 CURVE SMOOTH",
"175 1471 LINE",
"308 1471 LINE",
"308 1531 LINE SMOOTH",
"308 1638 OFFCURVE",
"355 1691 OFFCURVE",
"448 1691 CURVE SMOOTH",
"536 1691 OFFCURVE",
"584 1633 OFFCURVE",
"584 1522 CURVE SMOOTH",
"584 1381 OFFCURVE",
"535 1301 OFFCURVE",
"442 1301 CURVE SMOOTH",
"362 1301 LINE",
"362 1196 LINE",
"445 1196 LINE SMOOTH",
"534 1196 OFFCURVE",
"588 1108 OFFCURVE",
"588 979 CURVE SMOOTH",
"588 852 OFFCURVE",
"532 788 OFFCURVE",
"439 788 CURVE SMOOTH",
"350 788 OFFCURVE",
"305 846 OFFCURVE",
"305 962 CURVE SMOOTH",
"305 1012 LINE",
"172 1012 LINE",
"172 967 LINE SMOOTH",
"172 778 OFFCURVE",
"252 675 OFFCURVE",
"439 675 CURVE SMOOTH"
);
}
);
width = 850;
}
);
note = uni00B3;
unicode = 00B3;
},
{
glyphname = acute;
lastChange = "2017-12-16 11:27:02 +0000";
layers = (
{
layerId = "D5C3460E-3C16-46B0-9A2C-8808A9C39771";
paths = (
{
closed = 1;
nodes = (
"376 1658 LINE",
"225 1658 LINE",
"97 1258 LINE",
"175 1258 LINE"
);
}
);
width = 477;
}
);
note = acute;
unicode = 00B4;
},
{
glyphname = mu;
lastChange = "2017-12-16 11:27:02 +0000";
layers = (
{
layerId = "D5C3460E-3C16-46B0-9A2C-8808A9C39771";
paths = (
{
closed = 1;
nodes = (
"257 8 LINE",
"274 -5 OFFCURVE",
"297 -12 OFFCURVE",
"326 -12 CURVE SMOOTH",
"329 -12 OFFCURVE",
"331 -12 OFFCURVE",
"334 -12 CURVE",
"425 -1 OFFCURVE",
"507 46 OFFCURVE",
"578 131 CURVE",
"578 0 LINE",
"728 0 LINE",
"728 1184 LINE",
"578 1184 LINE",
"578 216 LINE",
"505 139 OFFCURVE",
"435 100 OFFCURVE",
"368 100 CURVE SMOOTH",
"291 100 OFFCURVE",
"256 146 OFFCURVE",
"256 266 CURVE SMOOTH",
"256 1184 LINE",
"105 1184 LINE",
"106 -355 LINE",
"258 -355 LINE"
);
}
);
width = 861;
}
);
note = mu;
unicode = 00B5;
},
{
glyphname = paragraph;
lastChange = "2017-12-16 11:27:02 +0000";
layers = (
{
layerId = "D5C3460E-3C16-46B0-9A2C-8808A9C39771";
paths = (
{
closed = 1;
nodes = (
"520 1574 LINE",
"738 1574 LINE",
"738 -194 LINE",
"848 -194 LINE",
"848 1658 LINE",
"421 1658 LINE SMOOTH",
"181 1658 OFFCURVE",
"59 1553 OFFCURVE",
"59 1369 CURVE SMOOTH",
"60 1186 OFFCURVE",
"195 1085 OFFCURVE",
"406 1085 CURVE SMOOTH",
"407 1085 OFFCURVE",
"409 1085 OFFCURVE",
"410 1085 CURVE",
"410 -194 LINE",
"520 -194 LINE"
);
}
);
width = 993;
}
);
note = paragraph;
unicode = 00B6;
},
{
glyphname = periodcentered;
lastChange = "2017-12-16 11:27:02 +0000";
layers = (
{
layerId = "D5C3460E-3C16-46B0-9A2C-8808A9C39771";
paths = (
{
closed = 1;
nodes = (
"284 863 LINE",
"132 863 LINE",
"132 683 LINE",
"284 683 LINE"
);
}
);
width = 385;
}
);
note = periodcentered;
unicode = 00B7;
},
{
glyphname = cedilla;
lastChange = "2017-12-16 11:27:02 +0000";
layers = (
{
layerId = "D5C3460E-3C16-46B0-9A2C-8808A9C39771";
paths = (
{
closed = 1;
nodes = (
"94 -416 OFFCURVE",
"129 -419 OFFCURVE",
"160 -419 CURVE SMOOTH",
"257 -418 OFFCURVE",
"371 -390 OFFCURVE",
"371 -269 CURVE SMOOTH",
"372 -186 OFFCURVE",
"295 -120 OFFCURVE",
"184 -104 CURVE",
"184 0 LINE",
"105 0 LINE",
"105 -144 LINE",
"205 -163 OFFCURVE",
"256 -197 OFFCURVE",
"257 -256 CURVE SMOOTH",
"257 -259 OFFCURVE",
"257 -262 OFFCURVE",
"257 -265 CURVE",
"254 -313 OFFCURVE",
"211 -337 OFFCURVE",
"129 -337 CURVE SMOOTH",
"108 -337 OFFCURVE",
"83 -335 OFFCURVE",
"56 -332 CURVE",
"56 -409 LINE"
);
}
);
width = 462;
}
);
note = cedilla;
unicode = 00B8;
},
{
glyphname = uni00B9;
lastChange = "2017-12-16 11:27:02 +0000";
layers = (
{
layerId = "D5C3460E-3C16-46B0-9A2C-8808A9C39771";
paths = (
{
closed = 1;
nodes = (
"521 1781 LINE",
"425 1781 LINE",
"381 1720 OFFCURVE",
"310 1674 OFFCURVE",
"211 1644 CURVE",
"211 1553 LINE",
"323 1580 OFFCURVE",
"387 1605 OFFCURVE",
"403 1628 CURVE",
"404 686 LINE",
"522 686 LINE"
);
}
);
width = 825;
}
);
note = uni00B9;
unicode = 00B9;
},
{
glyphname = ordmasculine;
lastChange = "2017-12-16 11:27:02 +0000";
layers = (
{
layerId = "D5C3460E-3C16-46B0-9A2C-8808A9C39771";
paths = (
{
closed = 1;
nodes = (
"529 694 OFFCURVE",
"605 727 OFFCURVE",
"648 788 CURVE SMOOTH",
"691 848 OFFCURVE",
"709 924 OFFCURVE",
"709 1025 CURVE SMOOTH",
"709 1352 LINE SMOOTH",
"709 1571 OFFCURVE",
"613 1681 OFFCURVE",
"421 1681 CURVE SMOOTH",
"212 1681 OFFCURVE",
"133 1565 OFFCURVE",
"133 1352 CURVE SMOOTH",
"133 1025 LINE SMOOTH",
"133 921 OFFCURVE",
"149 846 OFFCURVE",
"192 786 CURVE SMOOTH",
"235 725 OFFCURVE",
"312 694 OFFCURVE",
"421 694 CURVE SMOOTH"
);
},
{
closed = 1;
nodes = (
"313 827 OFFCURVE",
"296 845 OFFCURVE",
"285 868 CURVE SMOOTH",
"262 914 OFFCURVE",
"255 962 OFFCURVE",
"255 1035 CURVE SMOOTH",
"255 1342 LINE SMOOTH",
"255 1414 OFFCURVE",
"263 1464 OFFCURVE",
"286 1509 CURVE SMOOTH",
"309 1554 OFFCURVE",
"354 1578 OFFCURVE",
"419 1578 CURVE SMOOTH",
"486 1578 OFFCURVE",
"530 1554 OFFCURVE",
"553 1509 CURVE SMOOTH",
"576 1464 OFFCURVE",
"582 1415 OFFCURVE",
"582 1342 CURVE SMOOTH",
"582 1035 LINE SMOOTH",
"582 962 OFFCURVE",
"576 914 OFFCURVE",
"553 868 CURVE SMOOTH",
"530 822 OFFCURVE",
"486 798 OFFCURVE",
"419 798 CURVE SMOOTH",
"386 798 OFFCURVE",
"358 804 OFFCURVE",
"336 816 CURVE"
);
}
);
width = 842;
}
);
note = ordmasculine;
unicode = 00BA;
},
{
glyphname = guillemotright;
lastChange = "2017-12-16 11:27:02 +0000";
layers = (
{
layerId = "D5C3460E-3C16-46B0-9A2C-8808A9C39771";
paths = (
{
closed = 1;
nodes = (
"463 684 LINE",
"111 1126 LINE",
"111 935 LINE",
"338 651 LINE",
"111 367 LINE",
"111 176 LINE",
"463 617 LINE"
);
},
{
closed = 1;
nodes = (
"797 684 LINE",
"446 1126 LINE",
"446 935 LINE",
"672 649 LINE",
"446 367 LINE",
"446 176 LINE",
"797 617 LINE"
);
}
);
width = 901;
}
);
note = guillemotright;
unicode = 00BB;
},
{
glyphname = onequarter;
lastChange = "2017-12-16 11:27:02 +0000";
layers = (
{
layerId = "D5C3460E-3C16-46B0-9A2C-8808A9C39771";
paths = (
{
closed = 1;
nodes = (
"1368 270 LINE",
"1494 270 LINE",
"1494 358 LINE",
"1368 358 LINE",
"1368 1006 LINE",
"1253 1005 LINE",
"936 356 LINE",
"936 270 LINE",
"1247 270 LINE",
"1247 -9 LINE",
"1368 -9 LINE"
);
},
{
closed = 1;
nodes = (
"373 1658 LINE",
"315 1658 LINE",
"279 1615 OFFCURVE",
"187 1552 OFFCURVE",
"114 1516 CURVE",
"114 1424 LINE",
"255 1476 LINE",
"255 668 LINE",
"373 668 LINE"
);
},
{
closed = 1;
nodes = (
"1099 1658 LINE",
"969 1658 LINE",
"397 0 LINE",
"528 0 LINE"
);
},
{
closed = 1;
nodes = (
"1247 358 LINE",
"1038 358 LINE",
"1247 827 LINE"
);
}
);
width = 1583;
}
);
note = onequarter;
unicode = 00BC;
},
{
glyphname = onehalf;
lastChange = "2017-12-16 11:27:02 +0000";
layers = (
{
layerId = "D5C3460E-3C16-46B0-9A2C-8808A9C39771";
paths = (
{
closed = 1;
nodes = (
"1461 89 LINE",
"1139 89 LINE",
"1140 90 OFFCURVE",
"1170 131 OFFCURVE",
"1228 212 CURVE SMOOTH",
"1285 292 OFFCURVE",
"1318 337 OFFCURVE",
"1326 346 CURVE",
"1426 475 OFFCURVE",
"1478 564 OFFCURVE",
"1478 673 CURVE SMOOTH",
"1478 828 OFFCURVE",
"1392 915 OFFCURVE",
"1247 915 CURVE SMOOTH",
"1094 915 OFFCURVE",
"1016 834 OFFCURVE",
"1013 671 CURVE SMOOTH",
"1013 656 LINE",
"1130 656 LINE",
"1130 769 OFFCURVE",
"1158 826 OFFCURVE",
"1247 826 CURVE SMOOTH",
"1327 826 OFFCURVE",
"1355 771 OFFCURVE",
"1355 670 CURVE SMOOTH",
"1355 627 OFFCURVE",
"1349 592 OFFCURVE",
"1329 552 CURVE SMOOTH",
"1308 511 OFFCURVE",
"1306 505 OFFCURVE",
"1271 457 CURVE SMOOTH",
"1253 433 OFFCURVE",
"1242 418 OFFCURVE",
"1238 412 CURVE SMOOTH",
"1012 88 LINE",
"1012 0 LINE",
"1461 0 LINE"
);
},
{
closed = 1;
nodes = (
"382 1658 LINE",
"323 1658 LINE",
"287 1615 OFFCURVE",
"197 1552 OFFCURVE",
"122 1516 CURVE",
"122 1424 LINE",
"264 1476 LINE",
"264 668 LINE",
"382 668 LINE"
);
},
{
closed = 1;
nodes = (
"1104 1658 LINE",
"974 1658 LINE",
"402 0 LINE",
"532 0 LINE"
);
}
);
width = 1583;
}
);
note = onehalf;
unicode = 00BD;
},
{
glyphname = threequarters;
lastChange = "2017-12-16 11:27:02 +0000";
layers = (
{
layerId = "D5C3460E-3C16-46B0-9A2C-8808A9C39771";
paths = (
{
closed = 1;
nodes = (
"453 748 OFFCURVE",
"538 847 OFFCURVE",
"538 1004 CURVE SMOOTH",
"538 1129 OFFCURVE",
"485 1201 OFFCURVE",
"379 1218 CURVE",
"471 1227 OFFCURVE",
"534 1299 OFFCURVE",
"534 1431 CURVE SMOOTH",
"534 1575 OFFCURVE",
"457 1669 OFFCURVE",
"312 1669 CURVE SMOOTH",
"159 1669 OFFCURVE",
"81 1583 OFFCURVE",
"81 1439 CURVE",
"204 1441 LINE",
"204 1532 OFFCURVE",
"232 1580 OFFCURVE",
"313 1580 CURVE SMOOTH",
"379 1580 OFFCURVE",
"412 1530 OFFCURVE",
"412 1431 CURVE SMOOTH",
"412 1308 OFFCURVE",
"374 1262 OFFCURVE",
"285 1262 CURVE",
"285 1172 LINE",
"372 1172 OFFCURVE",
"416 1116 OFFCURVE",
"416 1003 CURVE SMOOTH",
"416 892 OFFCURVE",
"379 836 OFFCURVE",
"304 836 CURVE SMOOTH",
"227 836 OFFCURVE",
"202 888 OFFCURVE",
"202 976 CURVE",
"79 978 LINE",
"79 834 OFFCURVE",
"156 748 OFFCURVE",
"301 748 CURVE SMOOTH"
);
},
{
closed = 1;
nodes = (
"1398 270 LINE",
"1524 270 LINE",
"1524 358 LINE",
"1398 358 LINE",
"1398 1005 LINE",
"1284 1005 LINE",
"967 356 LINE",
"967 270 LINE",
"1279 270 LINE",
"1279 -9 LINE",
"1398 -9 LINE"
);
},
{
closed = 1;
nodes = (
"1139 1658 LINE",
"1009 1658 LINE",
"437 0 LINE",
"568 0 LINE"
);
},
{
closed = 1;
nodes = (
"1279 358 LINE",
"1070 358 LINE",
"1279 827 LINE"
);
}
);
width = 1583;
}
);
note = threequarters;
unicode = 00BE;
},
{
glyphname = questiondown;
lastChange = "2017-12-16 11:27:02 +0000";
layers = (
{
layerId = "D5C3460E-3C16-46B0-9A2C-8808A9C39771";
paths = (
{
closed = 1;
nodes = (
"513 -426 OFFCURVE",
"568 -417 OFFCURVE",
"617 -399 CURVE SMOOTH",
"716 -364 OFFCURVE",
"786 -295 OFFCURVE",
"810 -194 CURVE SMOOTH",
"815 -170 OFFCURVE",
"818 -145 OFFCURVE",
"818 -118 CURVE SMOOTH",
"818 -87 OFFCURVE",
"814 -55 OFFCURVE",
"807 -20 CURVE SMOOTH",
"790 53 LINE",
"654 24 LINE",
"668 -50 LINE SMOOTH",
"672 -71 OFFCURVE",
"674 -90 OFFCURVE",
"674 -109 CURVE SMOOTH",
"674 -208 OFFCURVE",
"610 -296 OFFCURVE",
"454 -295 CURVE SMOOTH",
"313 -295 OFFCURVE",
"207 -187 OFFCURVE",
"207 4 CURVE SMOOTH",
"207 228 OFFCURVE",
"328 406 OFFCURVE",
"580 589 CURVE",
"580 842 LINE",
"448 842 LINE",
"448 630 LINE",
"320 529 OFFCURVE",
"240 453 OFFCURVE",
"168 352 CURVE SMOOTH",
"95 251 OFFCURVE",
"61 139 OFFCURVE",
"61 7 CURVE SMOOTH",
"61 -272 OFFCURVE",
"220 -426 OFFCURVE",
"453 -426 CURVE SMOOTH"
);
},
{
closed = 1;
nodes = (
"586 1253 LINE",
"437 1253 LINE",
"437 1076 LINE",
"586 1076 LINE"
);
}
);
width = 944;
}
);
note = questiondown;
unicode = 00BF;
},
{
glyphname = AE;
lastChange = "2017-12-16 11:27:02 +0000";
layers = (
{
layerId = "D5C3460E-3C16-46B0-9A2C-8808A9C39771";
paths = (
{
closed = 1;
nodes = (
"321 444 LINE",
"670 444 LINE",
"670 0 LINE",
"1270 0 LINE",
"1270 123 LINE",
"826 123 LINE",
"826 805 LINE",
"1143 805 LINE",
"1143 923 LINE",
"826 923 LINE",
"826 1535 LINE",
"1270 1535 LINE",
"1270 1658 LINE",
"648 1658 LINE",
"-17 0 LINE",
"148 0 LINE"
);
},
{
closed = 1;
nodes = (
"669 562 LINE",
"365 562 LINE",
"669 1396 LINE"
);
}
);
width = 1338;
}
);
note = AE;
unicode = 00C6;
},
{
glyphname = Eth;
lastChange = "2017-12-16 11:27:02 +0000";
layers = (
{
layerId = "D5C3460E-3C16-46B0-9A2C-8808A9C39771";
paths = (
{
closed = 1;
nodes = (
"478 821 LINE",
"478 917 LINE",
"312 917 LINE",
"312 1538 LINE",
"516 1538 LINE SMOOTH",
"565 1538 OFFCURVE",
"607 1533 OFFCURVE",
"642 1522 CURVE SMOOTH",
"712 1500 OFFCURVE",
"753 1463 OFFCURVE",
"778 1397 CURVE SMOOTH",
"802 1331 OFFCURVE",
"809 1262 OFFCURVE",
"809 1155 CURVE SMOOTH",
"809 536 LINE SMOOTH",
"809 481 OFFCURVE",
"808 436 OFFCURVE",
"805 399 CURVE SMOOTH",
"799 325 OFFCURVE",
"776 238 OFFCURVE",
"736 194 CURVE SMOOTH",
"695 149 OFFCURVE",
"624 117 OFFCURVE",
"521 117 CURVE SMOOTH",
"312 117 LINE",
"312 821 LINE"
);
},
{
closed = 1;
nodes = (
"693 0 OFFCURVE",
"806 48 OFFCURVE",
"873 140 CURVE SMOOTH",
"940 232 OFFCURVE",
"967 351 OFFCURVE",
"967 512 CURVE SMOOTH",
"967 1171 LINE SMOOTH",
"967 1232 OFFCURVE",
"963 1286 OFFCURVE",
"954 1334 CURVE SMOOTH",
"936 1430 OFFCURVE",
"893 1516 OFFCURVE",
"825 1571 CURVE SMOOTH",
"757 1626 OFFCURVE",
"653 1658 OFFCURVE",
"518 1658 CURVE SMOOTH",
"155 1658 LINE",
"155 917 LINE",
"34 917 LINE",
"34 821 LINE",
"155 821 LINE",
"155 0 LINE",
"530 0 LINE SMOOTH"
);
}
);
width = 1078;
}
);
note = Eth;
unicode = 00D0;
},
{
glyphname = multiply;
lastChange = "2017-12-16 11:27:02 +0000";
layers = (
{
layerId = "D5C3460E-3C16-46B0-9A2C-8808A9C39771";
paths = (
{
closed = 1;
nodes = (
"563 524 LINE",
"641 601 LINE",
"439 803 LINE",
"641 1004 LINE",
"563 1081 LINE",
"362 880 LINE",
"161 1081 LINE",
"83 1004 LINE",
"284 803 LINE",
"83 601 LINE",
"161 524 LINE",
"362 725 LINE"
);
}
);
width = 724;
}
);
note = multiply;
unicode = 00D7;
},
{
glyphname = Oslash;
lastChange = "2017-12-16 11:27:02 +0000";
layers = (
{
layerId = "D5C3460E-3C16-46B0-9A2C-8808A9C39771";
paths = (
{
closed = 1;
nodes = (
"484 106 OFFCURVE",
"439 114 OFFCURVE",
"403 130 CURVE SMOOTH",
"394 134 OFFCURVE",
"386 138 OFFCURVE",
"378 143 CURVE",
"749 1464 LINE",
"751 1461 OFFCURVE",
"753 1459 OFFCURVE",
"754 1457 CURVE",
"791 1393 OFFCURVE",
"805 1318 OFFCURVE",
"805 1206 CURVE SMOOTH",
"805 456 LINE SMOOTH",
"805 344 OFFCURVE",
"792 268 OFFCURVE",
"754 203 CURVE SMOOTH",
"716 138 OFFCURVE",
"644 105 OFFCURVE",
"537 105 CURVE SMOOTH"
);
},
{
closed = 1;
nodes = (
"396 -10 OFFCURVE",
"461 -21 OFFCURVE",
"537 -21 CURVE SMOOTH",
"601 -21 OFFCURVE",
"658 -13 OFFCURVE",
"707 4 CURVE SMOOTH",
"806 36 OFFCURVE",
"867 93 OFFCURVE",
"908 180 CURVE SMOOTH",
"948 267 OFFCURVE",
"963 364 OFFCURVE",
"963 488 CURVE SMOOTH",
"963 1178 LINE SMOOTH",
"963 1255 OFFCURVE",
"956 1323 OFFCURVE",
"942 1382 CURVE SMOOTH",
"913 1499 OFFCURVE",
"856 1573 OFFCURVE",
"792 1614 CURVE",
"846 1807 LINE",
"783 1823 LINE",
"733 1644 LINE",
"678 1665 OFFCURVE",
"613 1676 OFFCURVE",
"537 1676 CURVE SMOOTH",
"380 1676 OFFCURVE",
"267 1629 OFFCURVE",
"203 1539 CURVE SMOOTH",
"138 1449 OFFCURVE",
"111 1334 OFFCURVE",
"111 1178 CURVE SMOOTH",
"111 490 LINE SMOOTH",
"111 411 OFFCURVE",
"118 342 OFFCURVE",
"132 282 CURVE SMOOTH",
"159 162 OFFCURVE",
"215 85 OFFCURVE",
"283 42 CURVE",
"226 -159 LINE",
"288 -178 LINE",
"341 12 LINE"
);
},
{
closed = 1;
nodes = (
"323 198 OFFCURVE",
"321 200 OFFCURVE",
"320 203 CURVE",
"283 268 OFFCURVE",
"269 344 OFFCURVE",
"269 456 CURVE SMOOTH",
"269 1206 LINE SMOOTH",
"269 1318 OFFCURVE",
"283 1393 OFFCURVE",
"321 1457 CURVE SMOOTH",
"359 1521 OFFCURVE",
"430 1552 OFFCURVE",
"537 1552 CURVE SMOOTH",
"590 1552 OFFCURVE",
"635 1544 OFFCURVE",
"671 1528 CURVE SMOOTH",
"680 1524 OFFCURVE",
"688 1520 OFFCURVE",
"696 1515 CURVE",
"325 195 LINE"
);
}
);
width = 1084;
}
);
note = Oslash;
unicode = 00D8;
},
{
glyphname = Thorn;
lastChange = "2017-12-16 11:27:02 +0000";
layers = (
{
layerId = "D5C3460E-3C16-46B0-9A2C-8808A9C39771";
paths = (
{
closed = 1;
nodes = (
"301 500 LINE",
"564 500 LINE SMOOTH",
"625 500 OFFCURVE",
"680 509 OFFCURVE",
"728 526 CURVE SMOOTH",
"824 561 OFFCURVE",
"882 619 OFFCURVE",
"922 703 CURVE SMOOTH",
"962 786 OFFCURVE",
"977 876 OFFCURVE",
"977 981 CURVE SMOOTH",
"977 1116 OFFCURVE",
"949 1224 OFFCURVE",
"889 1309 CURVE SMOOTH",
"829 1394 OFFCURVE",
"725 1444 OFFCURVE",
"585 1444 CURVE SMOOTH",
"301 1444 LINE",
"301 1658 LINE",
"144 1658 LINE",
"144 0 LINE",
"301 0 LINE"
);
},
{
closed = 1;
nodes = (
"548 1312 LINE SMOOTH",
"731 1312 OFFCURVE",
"821 1215 OFFCURVE",
"821 979 CURVE SMOOTH",
"821 730 OFFCURVE",
"732 630 OFFCURVE",
"532 630 CURVE SMOOTH",
"301 630 LINE",
"301 1312 LINE"
);
}
);
width = 1033;
}
);
note = Thorn;
unicode = 00DE;
},
{
glyphname = germandbls;
lastChange = "2017-12-16 11:27:02 +0000";
layers = (
{
layerId = "D5C3460E-3C16-46B0-9A2C-8808A9C39771";
paths = (
{
closed = 1;
nodes = (
"728 -21 OFFCURVE",
"902 148 OFFCURVE",
"902 486 CURVE SMOOTH",
"902 702 OFFCURVE",
"813 868 OFFCURVE",
"625 912 CURVE",
"758 965 OFFCURVE",
"825 1088 OFFCURVE",
"825 1281 CURVE SMOOTH",
"825 1549 OFFCURVE",
"694 1691 OFFCURVE",
"459 1691 CURVE SMOOTH",
"228 1691 OFFCURVE",
"116 1562 OFFCURVE",
"116 1251 CURVE SMOOTH",
"116 0 LINE",
"266 0 LINE",
"266 1254 LINE SMOOTH",
"266 1335 OFFCURVE",
"274 1398 OFFCURVE",
"289 1445 CURVE SMOOTH",
"320 1538 OFFCURVE",
"375 1570 OFFCURVE",
"471 1570 CURVE SMOOTH",
"619 1570 OFFCURVE",
"679 1470 OFFCURVE",
"679 1281 CURVE SMOOTH",
"679 1193 OFFCURVE",
"665 1122 OFFCURVE",
"633 1061 CURVE SMOOTH",
"601 1000 OFFCURVE",
"541 964 OFFCURVE",
"460 964 CURVE",
"457 839 LINE",
"565 839 OFFCURVE",
"645 799 OFFCURVE",
"690 731 CURVE SMOOTH",
"734 663 OFFCURVE",
"754 581 OFFCURVE",
"754 482 CURVE SMOOTH",
"754 439 OFFCURVE",
"751 401 OFFCURVE",
"746 368 CURVE SMOOTH",
"734 300 OFFCURVE",
"703 226 OFFCURVE",
"649 181 CURVE SMOOTH",
"595 136 OFFCURVE",
"502 105 OFFCURVE",
"379 105 CURVE",
"379 -21 LINE"
);
}
);
width = 978;
}
);
note = germandbls;
unicode = 00DF;
},
{
glyphname = ae;
lastChange = "2017-12-16 11:27:02 +0000";
layers = (
{
layerId = "D5C3460E-3C16-46B0-9A2C-8808A9C39771";
paths = (
{
closed = 1;
nodes = (
"323 -19 OFFCURVE",
"328 -19 OFFCURVE",
"333 -19 CURVE SMOOTH",
"454 -19 OFFCURVE",
"570 59 OFFCURVE",
"619 222 CURVE",
"640 61 OFFCURVE",
"743 -19 OFFCURVE",
"880 -19 CURVE SMOOTH",
"1097 -19 OFFCURVE",
"1186 109 OFFCURVE",
"1186 336 CURVE SMOOTH",
"1186 405 LINE",
"1037 405 LINE",
"1037 335 LINE SMOOTH",
"1037 162 OFFCURVE",
"978 101 OFFCURVE",
"881 101 CURVE SMOOTH",
"817 101 OFFCURVE",
"773 132 OFFCURVE",
"749 195 CURVE SMOOTH",
"725 258 OFFCURVE",
"713 353 OFFCURVE",
"713 482 CURVE SMOOTH",
"713 601 LINE",
"910 661 LINE SMOOTH",
"1082 708 OFFCURVE",
"1177 770 OFFCURVE",
"1177 898 CURVE SMOOTH",
"1177 1082 OFFCURVE",
"1072 1202 OFFCURVE",
"883 1202 CURVE SMOOTH",
"766 1202 OFFCURVE",
"672 1145 OFFCURVE",
"637 1026 CURVE",
"617 1139 OFFCURVE",
"531 1202 OFFCURVE",
"412 1202 CURVE SMOOTH",
"212 1202 OFFCURVE",
"97 1084 OFFCURVE",
"96 871 CURVE",
"242 869 LINE",
"242 1020 OFFCURVE",
"307 1086 OFFCURVE",
"411 1086 CURVE SMOOTH",
"522 1086 OFFCURVE",
"562 1011 OFFCURVE",
"562 803 CURVE SMOOTH",
"562 665 LINE",
"391 610 LINE SMOOTH",
"158 533 OFFCURVE",
"81 426 OFFCURVE",
"81 247 CURVE SMOOTH",
"81 98 OFFCURVE",
"178 -14 OFFCURVE",
"318 -19 CURVE"
);
},
{
closed = 1;
nodes = (
"293 99 OFFCURVE",
"230 156 OFFCURVE",
"230 275 CURVE SMOOTH",
"230 394 OFFCURVE",
"270 458 OFFCURVE",
"433 523 CURVE",
"435 524 OFFCURVE",
"456 532 OFFCURVE",
"495 547 CURVE SMOOTH",
"534 562 OFFCURVE",
"557 571 OFFCURVE",
"562 572 CURVE",
"562 440 LINE SMOOTH",
"562 205 OFFCURVE",
"476 99 OFFCURVE",
"368 99 CURVE SMOOTH"
);
},
{
closed = 1;
nodes = (
"713 1002 OFFCURVE",
"763 1081 OFFCURVE",
"883 1081 CURVE SMOOTH",
"991 1081 OFFCURVE",
"1039 1009 OFFCURVE",
"1039 910 CURVE SMOOTH",
"1039 818 OFFCURVE",
"1001 779 OFFCURVE",
"886 746 CURVE SMOOTH",
"713 691 LINE",
"713 797 LINE SMOOTH"
);
}
);
width = 1274;
}
);
note = ae;
unicode = 00E6;
},
{
glyphname = eth;
lastChange = "2017-12-16 11:27:02 +0000";
layers = (
{
layerId = "D5C3460E-3C16-46B0-9A2C-8808A9C39771";
paths = (
{
closed = 1;
nodes = (
"793 988 OFFCURVE",
"729 1265 OFFCURVE",
"672 1392 CURVE",
"826 1433 LINE",
"826 1518 LINE",
"633 1464 LINE",
"549 1617 OFFCURVE",
"404 1681 OFFCURVE",
"171 1688 CURVE",
"163 1588 LINE",
"350 1576 OFFCURVE",
"457 1526 OFFCURVE",
"514 1425 CURVE",
"333 1376 LINE",
"333 1291 LINE",
"555 1355 LINE",
"588 1298 OFFCURVE",
"612 1206 OFFCURVE",
"627 1077 CURVE",
"562 1119 OFFCURVE",
"495 1140 OFFCURVE",
"426 1140 CURVE SMOOTH",
"206 1140 OFFCURVE",
"111 959 OFFCURVE",
"111 611 CURVE SMOOTH",
"111 458 LINE SMOOTH",
"111 303 OFFCURVE",
"131 196 OFFCURVE",
"181 109 CURVE SMOOTH",
"231 22 OFFCURVE",
"321 -21 OFFCURVE",
"450 -21 CURVE SMOOTH",
"702 -21 OFFCURVE",
"793 151 OFFCURVE",
"793 500 CURVE SMOOTH",
"793 715 LINE SMOOTH"
);
},
{
closed = 1;
nodes = (
"259 717 OFFCURVE",
"275 837 OFFCURVE",
"308 910 CURVE SMOOTH",
"340 982 OFFCURVE",
"391 1018 OFFCURVE",
"462 1018 CURVE SMOOTH",
"476 1018 OFFCURVE",
"490 1017 OFFCURVE",
"503 1015 CURVE",
"529 1010 OFFCURVE",
"560 997 OFFCURVE",
"573 991 CURVE SMOOTH",
"586 985 OFFCURVE",
"627 963 OFFCURVE",
"631 960 CURVE",
"634 947 OFFCURVE",
"645 599 OFFCURVE",
"645 531 CURVE SMOOTH",
"645 466 OFFCURVE",
"644 412 OFFCURVE",
"641 370 CURVE SMOOTH",
"636 286 OFFCURVE",
"622 205 OFFCURVE",
"594 165 CURVE SMOOTH",
"566 124 OFFCURVE",
"521 100 OFFCURVE",
"454 100 CURVE SMOOTH",
"422 100 OFFCURVE",
"394 107 OFFCURVE",
"371 121 CURVE SMOOTH",
"324 148 OFFCURVE",
"297 194 OFFCURVE",
"281 272 CURVE SMOOTH",
"264 350 OFFCURVE",
"259 429 OFFCURVE",
"259 548 CURVE SMOOTH"
);
}
);
width = 912;
}
);
note = eth;
unicode = 00F0;
},
{
glyphname = divide;
lastChange = "2017-12-16 11:27:02 +0000";
layers = (
{
layerId = "D5C3460E-3C16-46B0-9A2C-8808A9C39771";
paths = (
{
closed = 1;
nodes = (
"409 587 LINE",
"280 587 LINE",
"280 402 LINE",
"409 402 LINE"
);
},
{
closed = 1;
nodes = (
"637 908 LINE",
"53 908 LINE",
"53 794 LINE",
"637 794 LINE"
);
},
{
closed = 1;
nodes = (
"409 1276 LINE",
"280 1276 LINE",
"280 1091 LINE",
"409 1091 LINE"
);
}
);
width = 690;
}
);
note = divide;
unicode = 00F7;
},
{
glyphname = oslash;
lastChange = "2017-12-16 11:27:02 +0000";
layers = (
{
layerId = "D5C3460E-3C16-46B0-9A2C-8808A9C39771";
paths = (
{
closed = 1;
nodes = (
"357 94 OFFCURVE",
"320 107 OFFCURVE",
"296 136 CURVE",
"293 140 OFFCURVE",
"290 144 OFFCURVE",
"287 149 CURVE",
"567 911 LINE",
"568 898 OFFCURVE",
"569 886 OFFCURVE",
"570 873 CURVE",
"571 845 OFFCURVE",
"572 809 OFFCURVE",
"573 764 CURVE SMOOTH",
"573 420 LINE SMOOTH",
"573 375 OFFCURVE",
"572 339 OFFCURVE",
"571 311 CURVE",
"567 255 OFFCURVE",
"556 185 OFFCURVE",
"533 152 CURVE SMOOTH",
"509 119 OFFCURVE",
"468 94 OFFCURVE",
"408 94 CURVE SMOOTH"
);
},
{
closed = 1;
nodes = (
"602 29 OFFCURVE",
"635 59 OFFCURVE",
"659 98 CURVE SMOOTH",
"706 177 OFFCURVE",
"724 279 OFFCURVE",
"724 428 CURVE SMOOTH",
"724 756 LINE SMOOTH",
"724 907 OFFCURVE",
"701 1019 OFFCURVE",
"654 1092 CURVE",
"650 1099 OFFCURVE",
"646 1105 OFFCURVE",
"641 1112 CURVE",
"712 1305 LINE",
"656 1324 LINE",
"594 1155 LINE",
"547 1186 OFFCURVE",
"485 1202 OFFCURVE",
"408 1202 CURVE SMOOTH",
"173 1202 OFFCURVE",
"92 1057 OFFCURVE",
"92 756 CURVE SMOOTH",
"92 428 LINE SMOOTH",
"92 279 OFFCURVE",
"110 177 OFFCURVE",
"158 98 CURVE SMOOTH",
"169 81 OFFCURVE",
"181 65 OFFCURVE",
"194 52 CURVE",
"124 -139 LINE",
"174 -157 LINE",
"239 18 LINE",
"244 15 OFFCURVE",
"250 13 OFFCURVE",
"255 10 CURVE",
"296 -9 OFFCURVE",
"347 -19 OFFCURVE",
"408 -19 CURVE SMOOTH",
"469 -19 OFFCURVE",
"520 -9 OFFCURVE",
"561 10 CURVE SMOOTH"
);
},
{
closed = 1;
nodes = (
"253 231 OFFCURVE",
"251 241 OFFCURVE",
"250 251 CURVE",
"242 306 OFFCURVE",
"242 347 OFFCURVE",
"242 420 CURVE SMOOTH",
"242 764 LINE SMOOTH",
"242 837 OFFCURVE",
"243 878 OFFCURVE",
"251 933 CURVE SMOOTH",
"258 988 OFFCURVE",
"272 1018 OFFCURVE",
"296 1048 CURVE SMOOTH",
"320 1078 OFFCURVE",
"357 1090 OFFCURVE",
"408 1090 CURVE SMOOTH",
"468 1090 OFFCURVE",
"508 1065 OFFCURVE",
"532 1032 CURVE",
"536 1026 OFFCURVE",
"540 1020 OFFCURVE",
"543 1013 CURVE",
"255 222 LINE"
);
}
);
width = 816;
}
);
note = oslash;
unicode = 00F8;
},
{
glyphname = thorn;
lastChange = "2017-12-16 11:27:02 +0000";
layers = (
{
layerId = "D5C3460E-3C16-46B0-9A2C-8808A9C39771";
paths = (
{
closed = 1;
nodes = (
"266 94 LINE",
"330 19 OFFCURVE",
"400 -19 OFFCURVE",
"477 -19 CURVE SMOOTH",
"520 -19 OFFCURVE",
"558 -11 OFFCURVE",
"591 5 CURVE SMOOTH",
"656 36 OFFCURVE",
"698 90 OFFCURVE",
"725 175 CURVE SMOOTH",
"752 259 OFFCURVE",
"761 355 OFFCURVE",
"761 480 CURVE SMOOTH",
"761 730 LINE SMOOTH",
"761 783 OFFCURVE",
"759 830 OFFCURVE",
"756 872 CURVE SMOOTH",
"748 955 OFFCURVE",
"725 1048 OFFCURVE",
"687 1105 CURVE SMOOTH",
"649 1162 OFFCURVE",
"581 1202 OFFCURVE",
"493 1202 CURVE SMOOTH",
"405 1202 OFFCURVE",
"329 1163 OFFCURVE",
"266 1085 CURVE",
"266 1658 LINE",
"116 1658 LINE",
"116 -390 LINE",
"266 -390 LINE"
);
},
{
closed = 1;
nodes = (
"383 100 OFFCURVE",
"321 129 OFFCURVE",
"266 186 CURVE",
"266 993 LINE",
"328 1054 OFFCURVE",
"389 1084 OFFCURVE",
"450 1084 CURVE SMOOTH",
"515 1084 OFFCURVE",
"558 1057 OFFCURVE",
"579 1002 CURVE SMOOTH",
"600 947 OFFCURVE",
"611 857 OFFCURVE",
"611 730 CURVE SMOOTH",
"611 478 LINE SMOOTH",
"611 425 OFFCURVE",
"610 381 OFFCURVE",
"608 344 CURVE SMOOTH",
"603 270 OFFCURVE",
"590 200 OFFCURVE",
"567 162 CURVE SMOOTH",
"543 124 OFFCURVE",
"506 100 OFFCURVE",
"453 100 CURVE SMOOTH"
);
}
);
width = 853;
}
);
note = thorn;
unicode = 00FE;
},
{
glyphname = Dcroat;
lastChange = "2017-12-16 11:27:02 +0000";
layers = (
{
layerId = "D5C3460E-3C16-46B0-9A2C-8808A9C39771";
paths = (
{
closed = 1;
nodes = (
"470 821 LINE",
"470 917 LINE",
"304 917 LINE",
"304 1538 LINE",
"507 1538 LINE SMOOTH",
"556 1538 OFFCURVE",
"598 1533 OFFCURVE",
"633 1522 CURVE SMOOTH",
"702 1500 OFFCURVE",
"744 1463 OFFCURVE",
"769 1397 CURVE SMOOTH",
"793 1331 OFFCURVE",
"800 1262 OFFCURVE",
"800 1155 CURVE SMOOTH",
"800 536 LINE SMOOTH",
"800 481 OFFCURVE",
"799 436 OFFCURVE",
"796 399 CURVE SMOOTH",
"790 325 OFFCURVE",
"767 238 OFFCURVE",
"727 194 CURVE SMOOTH",
"686 149 OFFCURVE",
"615 117 OFFCURVE",
"512 117 CURVE SMOOTH",
"304 117 LINE",
"304 821 LINE"
);
},
{
closed = 1;
nodes = (
"683 0 OFFCURVE",
"799 48 OFFCURVE",
"865 140 CURVE SMOOTH",
"931 232 OFFCURVE",
"958 351 OFFCURVE",
"958 512 CURVE SMOOTH",
"958 1171 LINE SMOOTH",
"958 1323 OFFCURVE",
"931 1435 OFFCURVE",
"864 1524 CURVE SMOOTH",
"796 1612 OFFCURVE",
"678 1658 OFFCURVE",
"510 1658 CURVE SMOOTH",
"147 1658 LINE",
"147 917 LINE",
"25 917 LINE",
"25 821 LINE",
"147 821 LINE",
"147 0 LINE",
"522 0 LINE SMOOTH"
);
}
);
width = 1069;
}
);
note = Dcroat;
unicode = 0110;
},
{
glyphname = dcroat;
lastChange = "2017-12-16 11:27:02 +0000";
layers = (
{
layerId = "D5C3460E-3C16-46B0-9A2C-8808A9C39771";
paths = (
{
closed = 1;
nodes = (
"453 -18 OFFCURVE",
"520 16 OFFCURVE",
"580 84 CURVE",
"580 0 LINE",
"730 0 LINE",
"730 1406 LINE",
"847 1406 LINE",
"847 1494 LINE",
"730 1494 LINE",
"730 1658 LINE",
"580 1658 LINE",
"580 1494 LINE",
"385 1494 LINE",
"385 1406 LINE",
"580 1406 LINE",
"580 1099 LINE",
"519 1167 OFFCURVE",
"449 1201 OFFCURVE",
"371 1202 CURVE SMOOTH",
"326 1202 OFFCURVE",
"288 1194 OFFCURVE",
"255 1179 CURVE SMOOTH",
"190 1147 OFFCURVE",
"150 1095 OFFCURVE",
"125 1008 CURVE SMOOTH",
"100 921 OFFCURVE",
"92 828 OFFCURVE",
"92 697 CURVE SMOOTH",
"92 478 LINE SMOOTH",
"92 122 OFFCURVE",
"174 -19 OFFCURVE",
"378 -19 CURVE SMOOTH"
);
},
{
closed = 1;
nodes = (
"343 100 OFFCURVE",
"299 129 OFFCURVE",
"276 186 CURVE SMOOTH",
"253 243 OFFCURVE",
"242 337 OFFCURVE",
"242 466 CURVE SMOOTH",
"242 745 LINE SMOOTH",
"242 985 OFFCURVE",
"277 1084 OFFCURVE",
"404 1084 CURVE SMOOTH",
"461 1084 OFFCURVE",
"520 1056 OFFCURVE",
"580 1000 CURVE",
"580 178 LINE",
"523 126 OFFCURVE",
"466 100 OFFCURVE",
"408 100 CURVE SMOOTH"
);
}
);
width = 873;
}
);
note = dcroat;
unicode = 0111;
},
{
glyphname = gcommaaccent;
lastChange = "2017-12-16 11:27:02 +0000";
layers = (
{
layerId = "D5C3460E-3C16-46B0-9A2C-8808A9C39771";
paths = (
{
closed = 1;
nodes = (
"502 -399 OFFCURVE",
"571 -389 OFFCURVE",
"632 -369 CURVE SMOOTH",
"753 -330 OFFCURVE",
"831 -247 OFFCURVE",
"831 -135 CURVE SMOOTH",
"831 5 OFFCURVE",
"731 74 OFFCURVE",
"507 126 CURVE SMOOTH",
"384 152 OFFCURVE",
"310 168 OFFCURVE",
"287 174 CURVE SMOOTH",
"220 191 OFFCURVE",
"187 203 OFFCURVE",
"186 212 CURVE",
"185 229 OFFCURVE",
"194 254 OFFCURVE",
"213 286 CURVE SMOOTH",
"232 318 OFFCURVE",
"243 335 OFFCURVE",
"269 371 CURVE SMOOTH",
"282 389 OFFCURVE",
"290 401 OFFCURVE",
"294 407 CURVE",
"339 388 OFFCURVE",
"391 379 OFFCURVE",
"448 379 CURVE SMOOTH",
"677 379 OFFCURVE",
"794 544 OFFCURVE",
"794 793 CURVE SMOOTH",
"794 854 OFFCURVE",
"773 946 OFFCURVE",
"749 998 CURVE",
"812 1067 OFFCURVE",
"875 1109 OFFCURVE",
"938 1126 CURVE",
"900 1211 LINE",
"868 1197 LINE SMOOTH",
"807 1172 OFFCURVE",
"745 1117 OFFCURVE",
"708 1054 CURVE",
"644 1155 OFFCURVE",
"554 1205 OFFCURVE",
"437 1205 CURVE SMOOTH",
"389 1205 OFFCURVE",
"345 1197 OFFCURVE",
"305 1181 CURVE SMOOTH",
"225 1149 OFFCURVE",
"173 1095 OFFCURVE",
"135 1024 CURVE SMOOTH",
"97 952 OFFCURVE",
"80 874 OFFCURVE",
"80 793 CURVE SMOOTH",
"80 632 OFFCURVE",
"131 516 OFFCURVE",
"233 445 CURVE",
"132 334 OFFCURVE",
"81 248 OFFCURVE",
"81 188 CURVE SMOOTH",
"81 185 OFFCURVE",
"81 183 OFFCURVE",
"81 180 CURVE",
"83 150 OFFCURVE",
"135 120 OFFCURVE",
"237 91 CURVE",
"121 24 OFFCURVE",
"23 -75 OFFCURVE",
"23 -175 CURVE SMOOTH",
"23 -324 OFFCURVE",
"178 -399 OFFCURVE",
"425 -399 CURVE SMOOTH"
);
},
{
closed = 1;
nodes = (
"610 1676 LINE",
"519 1676 LINE",
"519 1739 OFFCURVE",
"549 1817 OFFCURVE",
"612 1865 CURVE",
"597 1905 LINE",
"493 1858 OFFCURVE",
"451 1783 OFFCURVE",
"451 1639 CURVE SMOOTH",
"451 1497 LINE",
"610 1497 LINE"
);
},
{
closed = 1;
nodes = (
"258 -305 OFFCURVE",
"154 -258 OFFCURVE",
"154 -159 CURVE SMOOTH",
"154 -110 OFFCURVE",
"177 -63 OFFCURVE",
"221 -23 CURVE SMOOTH",
"264 17 OFFCURVE",
"289 34 OFFCURVE",
"337 65 CURVE",
"460 40 LINE SMOOTH",
"530 24 OFFCURVE",
"584 7 OFFCURVE",
"621 -11 CURVE SMOOTH",
"696 -47 OFFCURVE",
"713 -83 OFFCURVE",
"713 -136 CURVE SMOOTH",
"713 -139 OFFCURVE",
"713 -142 OFFCURVE",
"713 -145 CURVE SMOOTH",
"712 -253 OFFCURVE",
"594 -305 OFFCURVE",
"425 -305 CURVE SMOOTH"
);
},
{
closed = 1;
nodes = (
"405 469 OFFCURVE",
"373 477 OFFCURVE",
"346 492 CURVE SMOOTH",
"290 523 OFFCURVE",
"263 566 OFFCURVE",
"244 630 CURVE SMOOTH",
"225 693 OFFCURVE",
"222 741 OFFCURVE",
"222 798 CURVE SMOOTH",
"222 834 OFFCURVE",
"226 873 OFFCURVE",
"238 923 CURVE SMOOTH",
"249 973 OFFCURVE",
"272 1016 OFFCURVE",
"302 1053 CURVE SMOOTH",
"332 1090 OFFCURVE",
"380 1114 OFFCURVE",
"439 1114 CURVE SMOOTH",
"474 1114 OFFCURVE",
"504 1107 OFFCURVE",
"531 1092 CURVE SMOOTH",
"584 1063 OFFCURVE",
"612 1019 OFFCURVE",
"632 960 CURVE SMOOTH",
"652 901 OFFCURVE",
"657 851 OFFCURVE",
"657 798 CURVE SMOOTH",
"657 579 OFFCURVE",
"585 469 OFFCURVE",
"442 469 CURVE SMOOTH"
);
}
);
width = 901;
}
);
leftKerningGroup = g;
note = gcommaaccent;
rightKerningGroup = g;
unicode = 0123;
},
{
glyphname = Hbar;
lastChange = "2017-12-16 11:27:02 +0000";
layers = (
{
layerId = "D5C3460E-3C16-46B0-9A2C-8808A9C39771";
paths = (
{
closed = 1;
nodes = (
"301 808 LINE",
"823 808 LINE",
"823 0 LINE",
"980 0 LINE",
"980 1295 LINE",
"1065 1295 LINE",
"1065 1381 LINE",
"980 1381 LINE",
"980 1658 LINE",
"823 1658 LINE",
"823 1381 LINE",
"301 1381 LINE",
"301 1658 LINE",
"144 1658 LINE",
"144 1381 LINE",
"60 1381 LINE",
"60 1295 LINE",
"144 1295 LINE",
"144 0 LINE",
"301 0 LINE"
);
},
{
closed = 1;
nodes = (
"823 1295 LINE",
"823 923 LINE",
"301 923 LINE",
"301 1295 LINE"
);
}
);
width = 1124;
}
);
note = Hbar;
unicode = 0126;
},
{
glyphname = hbar;
lastChange = "2017-12-16 11:27:02 +0000";
layers = (
{
layerId = "D5C3460E-3C16-46B0-9A2C-8808A9C39771";
paths = (
{
closed = 1;
nodes = (
"266 974 LINE",
"339 1047 OFFCURVE",
"408 1084 OFFCURVE",
"473 1084 CURVE SMOOTH",
"550 1084 OFFCURVE",
"585 1038 OFFCURVE",
"585 918 CURVE SMOOTH",
"585 0 LINE",
"736 0 LINE",
"736 950 LINE SMOOTH",
"736 1111 OFFCURVE",
"672 1202 OFFCURVE",
"553 1202 CURVE SMOOTH",
"450 1202 OFFCURVE",
"355 1154 OFFCURVE",
"266 1059 CURVE",
"266 1428 LINE",
"511 1428 LINE",
"511 1518 LINE",
"266 1518 LINE",
"266 1658 LINE",
"116 1658 LINE",
"116 1518 LINE",
"-16 1518 LINE",
"-16 1428 LINE",
"116 1428 LINE",
"116 0 LINE",
"266 0 LINE"
);
}
);
width = 843;
}
);
note = hbar;
unicode = 0127;
},
{
glyphname = dotlessi;
lastChange = "2017-12-16 11:27:02 +0000";
layers = (
{
layerId = "D5C3460E-3C16-46B0-9A2C-8808A9C39771";
paths = (
{
closed = 1;
nodes = (
"280 1184 LINE",
"130 1184 LINE",
"130 0 LINE",
"280 0 LINE"
);
}
);
width = 405;
}
);
note = dotlessi;
unicode = 0131;
},
{
glyphname = kgreenlandic;
lastChange = "2017-12-16 11:27:02 +0000";
layers = (
{
layerId = "D5C3460E-3C16-46B0-9A2C-8808A9C39771";
paths = (
{
closed = 1;
nodes = (
"277 428 LINE",
"412 624 LINE",
"660 0 LINE",
"812 0 LINE",
"516 726 LINE",
"808 1184 LINE",
"652 1184 LINE",
"277 602 LINE",
"277 1184 LINE",
"127 1184 LINE",
"127 0 LINE",
"277 0 LINE"
);
}
);
width = 856;
}
);
note = kgreenlandic;
unicode = 0138;
},
{
glyphname = Lslash;
lastChange = "2017-12-16 11:27:02 +0000";
layers = (
{
layerId = "D5C3460E-3C16-46B0-9A2C-8808A9C39771";
paths = (
{
closed = 1;
nodes = (
"773 117 LINE",
"301 117 LINE",
"301 897 LINE",
"538 1023 LINE",
"538 1146 LINE",
"301 1021 LINE",
"301 1658 LINE",
"144 1658 LINE",
"144 935 LINE",
"-1 858 LINE",
"-1 735 LINE",
"144 811 LINE",
"144 0 LINE",
"773 0 LINE"
);
}
);
width = 783;
}
);
note = Lslash;
unicode = 0141;
},
{
glyphname = lslash;
lastChange = "2017-12-16 11:27:02 +0000";
layers = (
{
layerId = "D5C3460E-3C16-46B0-9A2C-8808A9C39771";
paths = (
{
closed = 1;
nodes = (
"339 982 LINE",
"464 1048 LINE",
"464 1170 LINE",
"339 1105 LINE",
"339 1658 LINE",
"189 1658 LINE",
"189 1031 LINE",
"58 964 LINE",
"58 840 LINE",
"189 908 LINE",
"189 0 LINE",
"339 0 LINE"
);
}
);
width = 521;
}
);
note = lslash;
unicode = 0142;
},
{
glyphname = Eng;
lastChange = "2017-12-16 11:27:02 +0000";
layers = (
{
layerId = "D5C3460E-3C16-46B0-9A2C-8808A9C39771";
paths = (
{
closed = 1;
nodes = (
"751 -321 OFFCURVE",
"825 -295 OFFCURVE",
"866 -238 CURVE SMOOTH",
"907 -182 OFFCURVE",
"921 -111 OFFCURVE",
"921 0 CURVE SMOOTH",
"921 1658 LINE",
"794 1658 LINE",
"794 371 LINE",
"259 1658 LINE",
"144 1658 LINE",
"144 0 LINE",
"273 0 LINE",
"273 1302 LINE",
"791 49 LINE",
"791 -11 LINE SMOOTH",
"791 -92 OFFCURVE",
"784 -134 OFFCURVE",
"753 -168 CURVE SMOOTH",
"721 -202 OFFCURVE",
"668 -212 OFFCURVE",
"584 -213 CURVE SMOOTH",
"580 -213 OFFCURVE",
"576 -213 OFFCURVE",
"571 -213 CURVE",
"571 -321 LINE",
"639 -321 LINE SMOOTH"
);
}
);
width = 1065;
}
);
note = Eng;
unicode = 014A;
},
{
glyphname = eng;
lastChange = "2017-12-16 11:27:02 +0000";
layers = (
{
layerId = "D5C3460E-3C16-46B0-9A2C-8808A9C39771";
paths = (
{
closed = 1;
nodes = (
"470 -341 OFFCURVE",
"552 -318 OFFCURVE",
"617 -268 CURVE SMOOTH",
"682 -218 OFFCURVE",
"720 -129 OFFCURVE",
"720 -12 CURVE SMOOTH",
"720 950 LINE SMOOTH",
"720 1111 OFFCURVE",
"655 1202 OFFCURVE",
"538 1202 CURVE SMOOTH",
"435 1202 OFFCURVE",
"340 1155 OFFCURVE",
"253 1061 CURVE",
"253 1184 LINE",
"103 1184 LINE",
"103 0 LINE",
"253 0 LINE",
"253 975 LINE",
"324 1048 OFFCURVE",
"392 1084 OFFCURVE",
"457 1084 CURVE SMOOTH",
"534 1084 OFFCURVE",
"570 1038 OFFCURVE",
"570 918 CURVE SMOOTH",
"570 -10 LINE SMOOTH",
"570 -83 OFFCURVE",
"560 -128 OFFCURVE",
"526 -167 CURVE SMOOTH",
"492 -207 OFFCURVE",
"428 -224 OFFCURVE",
"328 -224 CURVE",
"328 -341 LINE",
"369 -341 LINE SMOOTH"
);
}
);
width = 794;
}
);
note = eng;
unicode = 014B;
},
{
glyphname = OE;
lastChange = "2017-12-16 11:27:02 +0000";
layers = (
{
layerId = "D5C3460E-3C16-46B0-9A2C-8808A9C39771";
paths = (
{
closed = 1;
nodes = (
"1259 120 LINE",
"853 120 LINE",
"853 806 LINE",
"1187 806 LINE",
"1187 922 LINE",
"853 922 LINE",
"853 1536 LINE",
"1257 1536 LINE",
"1257 1658 LINE",
"553 1658 LINE SMOOTH",
"392 1658 OFFCURVE",
"276 1612 OFFCURVE",
"208 1523 CURVE SMOOTH",
"140 1434 OFFCURVE",
"111 1317 OFFCURVE",
"111 1158 CURVE SMOOTH",
"111 482 LINE SMOOTH",
"111 329 OFFCURVE",
"139 219 OFFCURVE",
"207 132 CURVE SMOOTH",
"274 44 OFFCURVE",
"393 0 OFFCURVE",
"562 0 CURVE SMOOTH",
"1259 0 LINE"
);
},
{
closed = 1;
nodes = (
"444 123 OFFCURVE",
"367 152 OFFCURVE",
"325 220 CURVE SMOOTH",
"283 287 OFFCURVE",
"269 365 OFFCURVE",
"269 492 CURVE SMOOTH",
"269 1139 LINE SMOOTH",
"269 1194 OFFCURVE",
"271 1240 OFFCURVE",
"275 1278 CURVE SMOOTH",
"283 1353 OFFCURVE",
"306 1430 OFFCURVE",
"349 1471 CURVE SMOOTH",
"392 1512 OFFCURVE",
"462 1539 OFFCURVE",
"562 1539 CURVE SMOOTH",
"697 1539 LINE",
"697 123 LINE",
"565 123 LINE SMOOTH"
);
}
);
width = 1319;
}
);
note = OE;
unicode = 0152;
},
{
glyphname = oe;
lastChange = "2017-12-16 11:27:02 +0000";
layers = (
{
layerId = "D5C3460E-3C16-46B0-9A2C-8808A9C39771";
paths = (
{
closed = 1;
nodes = (
"553 -19 OFFCURVE",
"634 40 OFFCURVE",
"668 157 CURVE",
"704 43 OFFCURVE",
"785 -16 OFFCURVE",
"910 -19 CURVE SMOOTH",
"914 -19 OFFCURVE",
"918 -19 OFFCURVE",
"921 -19 CURVE SMOOTH",
"1130 -19 OFFCURVE",
"1224 93 OFFCURVE",
"1225 320 CURVE SMOOTH",
"1225 405 LINE",
"1075 405 LINE",
"1075 318 LINE SMOOTH",
"1075 225 OFFCURVE",
"1057 164 OFFCURVE",
"1024 137 CURVE SMOOTH",
"991 109 OFFCURVE",
"959 103 OFFCURVE",
"910 104 CURVE SMOOTH",
"843 107 OFFCURVE",
"799 139 OFFCURVE",
"775 207 CURVE SMOOTH",
"751 275 OFFCURVE",
"742 357 OFFCURVE",
"742 482 CURVE SMOOTH",
"742 612 LINE",
"1224 612 LINE",
"1225 721 LINE SMOOTH",
"1225 1065 OFFCURVE",
"1150 1202 OFFCURVE",
"917 1202 CURVE SMOOTH",
"788 1202 OFFCURVE",
"705 1146 OFFCURVE",
"667 1035 CURVE",
"632 1146 OFFCURVE",
"551 1202 OFFCURVE",
"424 1202 CURVE SMOOTH",
"188 1202 OFFCURVE",
"107 1058 OFFCURVE",
"107 758 CURVE SMOOTH",
"107 426 LINE SMOOTH",
"107 123 OFFCURVE",
"188 -19 OFFCURVE",
"424 -19 CURVE SMOOTH"
);
},
{
closed = 1;
nodes = (
"373 104 OFFCURVE",
"336 117 OFFCURVE",
"313 146 CURVE",
"289 174 OFFCURVE",
"274 204 OFFCURVE",
"267 258 CURVE SMOOTH",
"259 312 OFFCURVE",
"258 353 OFFCURVE",
"258 426 CURVE SMOOTH",
"258 758 LINE SMOOTH",
"258 789 OFFCURVE",
"258 816 OFFCURVE",
"259 837 CURVE SMOOTH",
"260 880 OFFCURVE",
"266 934 OFFCURVE",
"275 966 CURVE SMOOTH",
"284 998 OFFCURVE",
"300 1034 OFFCURVE",
"324 1051 CURVE SMOOTH",
"347 1068 OFFCURVE",
"381 1081 OFFCURVE",
"424 1081 CURVE SMOOTH",
"454 1081 OFFCURVE",
"480 1076 OFFCURVE",
"501 1065 CURVE SMOOTH",
"543 1044 OFFCURVE",
"564 1014 OFFCURVE",
"577 954 CURVE SMOOTH",
"589 893 OFFCURVE",
"591 846 OFFCURVE",
"591 758 CURVE SMOOTH",
"591 426 LINE SMOOTH",
"591 382 OFFCURVE",
"590 346 OFFCURVE",
"589 318 CURVE",
"585 262 OFFCURVE",
"573 194 OFFCURVE",
"550 161 CURVE SMOOTH",
"526 128 OFFCURVE",
"484 104 OFFCURVE",
"424 104 CURVE SMOOTH"
);
},
{
closed = 1;
nodes = (
"742 981 OFFCURVE",
"788 1081 OFFCURVE",
"912 1081 CURVE SMOOTH",
"961 1081 OFFCURVE",
"998 1066 OFFCURVE",
"1022 1035 CURVE",
"1045 1003 OFFCURVE",
"1059 971 OFFCURVE",
"1067 916 CURVE SMOOTH",
"1074 860 OFFCURVE",
"1075 820 OFFCURVE",
"1075 751 CURVE SMOOTH",
"1075 693 LINE",
"742 693 LINE",
"742 758 LINE SMOOTH"
);
}
);
width = 1328;
}
);
leftKerningGroup = oe;
note = oe;
unicode = 0153;
},
{
glyphname = Tbar;
lastChange = "2017-12-16 11:27:02 +0000";
layers = (
{
layerId = "D5C3460E-3C16-46B0-9A2C-8808A9C39771";
paths = (
{
closed = 1;
nodes = (
"323 0 LINE",
"480 0 LINE",
"480 835 LINE",
"705 835 LINE",
"705 930 LINE",
"480 930 LINE",
"480 1538 LINE",
"805 1538 LINE",
"805 1658 LINE",
"-10 1658 LINE",
"-10 1538 LINE",
"323 1538 LINE",
"323 930 LINE",
"86 930 LINE",
"86 835 LINE",
"323 835 LINE"
);
}
);
width = 795;
}
);
note = Tbar;
unicode = 0166;
},
{
glyphname = tbar;
lastChange = "2017-12-16 11:27:02 +0000";
layers = (
{
layerId = "D5C3460E-3C16-46B0-9A2C-8808A9C39771";
paths = (
{
closed = 1;
nodes = (
"434 -15 OFFCURVE",
"476 -11 OFFCURVE",
"521 -2 CURVE",
"521 111 LINE",
"492 106 OFFCURVE",
"464 103 OFFCURVE",
"437 103 CURVE SMOOTH",
"352 103 OFFCURVE",
"331 140 OFFCURVE",
"331 260 CURVE SMOOTH",
"331 725 LINE",
"522 725 LINE",
"522 809 LINE",
"331 809 LINE",
"331 1084 LINE",
"528 1084 LINE",
"528 1184 LINE",
"331 1184 LINE",
"331 1550 LINE",
"181 1550 LINE",
"181 1184 LINE",
"38 1184 LINE",
"38 1084 LINE",
"181 1084 LINE",
"181 809 LINE",
"58 809 LINE",
"58 725 LINE",
"181 725 LINE",
"181 246 LINE SMOOTH",
"182 75 OFFCURVE",
"234 -15 OFFCURVE",
"395 -15 CURVE SMOOTH"
);
}
);
width = 573;
}
);
note = tbar;
unicode = 0167;
},
{
glyphname = florin;
lastChange = "2017-12-16 11:27:02 +0000";
layers = (
{
layerId = "D5C3460E-3C16-46B0-9A2C-8808A9C39771";
paths = (
{
closed = 1;
nodes = (
"144 -270 OFFCURVE",
"177 -265 OFFCURVE",
"205 -255 CURVE SMOOTH",
"261 -236 OFFCURVE",
"293 -207 OFFCURVE",
"317 -154 CURVE SMOOTH",
"341 -101 OFFCURVE",
"350 -54 OFFCURVE",
"359 25 CURVE SMOOTH",
"500 1075 LINE",
"688 1075 LINE",
"688 1184 LINE",
"513 1184 LINE",
"532 1323 LINE SMOOTH",
"549 1447 OFFCURVE",
"574 1493 OFFCURVE",
"659 1493 CURVE SMOOTH",
"668 1493 OFFCURVE",
"695 1489 OFFCURVE",
"741 1482 CURVE",
"754 1595 LINE",
"711 1604 OFFCURVE",
"671 1608 OFFCURVE",
"635 1608 CURVE SMOOTH",
"542 1608 OFFCURVE",
"478 1581 OFFCURVE",
"443 1525 CURVE SMOOTH",
"407 1468 OFFCURVE",
"393 1411 OFFCURVE",
"382 1314 CURVE SMOOTH",
"363 1184 LINE",
"201 1184 LINE",
"201 1075 LINE",
"350 1075 LINE",
"209 16 LINE SMOOTH",
"192 -109 OFFCURVE",
"167 -155 OFFCURVE",
"82 -155 CURVE SMOOTH",
"63 -155 OFFCURVE",
"36 -151 OFFCURVE",
"-1 -144 CURVE",
"-14 -257 LINE",
"31 -266 OFFCURVE",
"71 -270 OFFCURVE",
"106 -270 CURVE SMOOTH"
);
}
);
width = 766;
}
);
note = florin;
unicode = 0192;
},
{
glyphname = uni0237;
lastChange = "2017-12-16 11:27:02 +0000";
layers = (
{
layerId = "D5C3460E-3C16-46B0-9A2C-8808A9C39771";
paths = (
{
closed = 1;
nodes = (
"-23 -323 OFFCURVE",
"4 -325 OFFCURVE",
"46 -325 CURVE SMOOTH",
"213 -325 OFFCURVE",
"307 -239 OFFCURVE",
"307 -56 CURVE SMOOTH",
"307 1184 LINE",
"157 1184 LINE",
"157 -43 LINE SMOOTH",
"157 -62 OFFCURVE",
"156 -79 OFFCURVE",
"155 -93 CURVE",
"151 -122 OFFCURVE",
"140 -155 OFFCURVE",
"121 -174 CURVE SMOOTH",
"101 -194 OFFCURVE",
"65 -207 OFFCURVE",
"17 -207 CURVE SMOOTH",
"-10 -207 OFFCURVE",
"-27 -206 OFFCURVE",
"-34 -204 CURVE",
"-34 -318 LINE"
);
}
);
width = 436;
}
);
note = uni0237;
unicode = 0237;
},
{
glyphname = circumflex;
lastChange = "2017-12-16 11:27:02 +0000";
layers = (
{
layerId = "D5C3460E-3C16-46B0-9A2C-8808A9C39771";
paths = (
{
closed = 1;
nodes = (
"335 1584 LINE",
"485 1280 LINE",
"594 1280 LINE",
"420 1658 LINE",
"252 1658 LINE",
"75 1280 LINE",
"186 1280 LINE"
);
}
);
width = 673;
}
);
note = circumflex;
unicode = 02C6;
},
{
glyphname = caron;
lastChange = "2017-12-16 11:27:02 +0000";
layers = (
{
layerId = "D5C3460E-3C16-46B0-9A2C-8808A9C39771";
paths = (
{
closed = 1;
nodes = (
"550 1658 LINE",
"430 1658 LINE",
"309 1413 LINE",
"188 1658 LINE",
"68 1658 LINE",
"242 1319 LINE",
"374 1319 LINE"
);
}
);
width = 613;
}
);
note = caron;
unicode = 02C7;
},
{
glyphname = breve;
lastChange = "2017-12-16 11:27:02 +0000";
layers = (
{
layerId = "D5C3460E-3C16-46B0-9A2C-8808A9C39771";
paths = (
{
closed = 1;
nodes = (
"526 1402 OFFCURVE",
"609 1487 OFFCURVE",
"613 1658 CURVE",
"517 1658 LINE",
"512 1541 OFFCURVE",
"460 1492 OFFCURVE",
"364 1492 CURVE SMOOTH",
"268 1492 OFFCURVE",
"217 1541 OFFCURVE",
"214 1658 CURVE",
"119 1658 LINE",
"123 1487 OFFCURVE",
"205 1402 OFFCURVE",
"364 1402 CURVE SMOOTH"
);
}
);
width = 727;
}
);
note = breve;
unicode = 02D8;
},
{
glyphname = ring;
lastChange = "2017-12-16 11:27:02 +0000";
layers = (
{
layerId = "D5C3460E-3C16-46B0-9A2C-8808A9C39771";
paths = (
{
closed = 1;
nodes = (
"472 1374 OFFCURVE",
"491 1422 OFFCURVE",
"491 1484 CURVE SMOOTH",
"491 1607 OFFCURVE",
"406 1678 OFFCURVE",
"295 1678 CURVE SMOOTH",
"184 1678 OFFCURVE",
"100 1608 OFFCURVE",
"100 1484 CURVE SMOOTH",
"100 1360 OFFCURVE",
"184 1289 OFFCURVE",
"295 1289 CURVE SMOOTH",
"350 1289 OFFCURVE",
"397 1306 OFFCURVE",
"435 1340 CURVE SMOOTH"
);
},
{
closed = 1;
nodes = (
"195 1418 OFFCURVE",
"184 1447 OFFCURVE",
"184 1484 CURVE SMOOTH",
"184 1559 OFFCURVE",
"230 1598 OFFCURVE",
"295 1598 CURVE SMOOTH",
"360 1598 OFFCURVE",
"407 1560 OFFCURVE",
"407 1484 CURVE SMOOTH",
"407 1409 OFFCURVE",
"361 1370 OFFCURVE",
"296 1370 CURVE SMOOTH",
"263 1370 OFFCURVE",
"237 1380 OFFCURVE",
"216 1399 CURVE SMOOTH"
);
}
);
width = 590;
}
);
note = ring;
unicode = 02DA;
},
{
glyphname = ogonek;
lastChange = "2017-12-16 11:27:02 +0000";
layers = (
{
layerId = "D5C3460E-3C16-46B0-9A2C-8808A9C39771";
paths = (
{
closed = 1;
nodes = (
"301 -349 OFFCURVE",
"265 -346 OFFCURVE",
"222 -334 CURVE SMOOTH",
"178 -322 OFFCURVE",
"154 -294 OFFCURVE",
"154 -254 CURVE SMOOTH",
"154 -190 OFFCURVE",
"205 -104 OFFCURVE",
"306 5 CURVE",
"225 5 LINE",
"126 -39 OFFCURVE",
"39 -154 OFFCURVE",
"39 -261 CURVE SMOOTH",
"39 -385 OFFCURVE",
"135 -429 OFFCURVE",
"330 -429 CURVE",
"356 -349 LINE"
);
}
);
width = 465;
}
);
note = ogonek;
unicode = 02DB;
},
{
glyphname = tilde;
lastChange = "2017-12-16 11:27:02 +0000";
layers = (
{
layerId = "D5C3460E-3C16-46B0-9A2C-8808A9C39771";
paths = (
{
closed = 1;
nodes = (
"505 1470 OFFCURVE",
"511 1470 OFFCURVE",
"517 1470 CURVE SMOOTH",
"566 1470 OFFCURVE",
"611 1492 OFFCURVE",
"632 1534 CURVE SMOOTH",
"653 1576 OFFCURVE",
"660 1613 OFFCURVE",
"660 1658 CURVE",
"569 1658 LINE",
"568 1625 OFFCURVE",
"563 1601 OFFCURVE",
"552 1587 CURVE SMOOTH",
"531 1559 OFFCURVE",
"495 1565 OFFCURVE",
"446 1595 CURVE SMOOTH",
"397 1625 OFFCURVE",
"334 1661 OFFCURVE",
"290 1665 CURVE SMOOTH",
"282 1666 OFFCURVE",
"275 1666 OFFCURVE",
"268 1666 CURVE SMOOTH",
"223 1667 OFFCURVE",
"180 1649 OFFCURVE",
"156 1606 CURVE SMOOTH",
"135 1566 OFFCURVE",
"126 1526 OFFCURVE",
"126 1486 CURVE",
"220 1486 LINE",
"220 1546 OFFCURVE",
"246 1574 OFFCURVE",
"287 1567 CURVE",
"302 1566 OFFCURVE",
"333 1550 OFFCURVE",
"382 1519 CURVE SMOOTH",
"431 1488 OFFCURVE",
"470 1472 OFFCURVE",
"499 1471 CURVE"
);
}
);
width = 790;
}
);
note = tilde;
unicode = 02DC;
},
{
glyphname = hungarumlaut;
lastChange = "2017-12-16 11:27:02 +0000";
layers = (
{
layerId = "D5C3460E-3C16-46B0-9A2C-8808A9C39771";
paths = (
{
closed = 1;
nodes = (
"378 1673 LINE",
"243 1673 LINE",
"164 1345 LINE",
"243 1345 LINE"
);
},
{
closed = 1;
nodes = (
"650 1673 LINE",
"488 1673 LINE",
"374 1345 LINE",
"455 1345 LINE"
);
}
);
width = 554;
}
);
note = hungarumlaut;
unicode = 02DD;
},
{
glyphname = gravecomb;
lastChange = "2017-12-16 11:27:02 +0000";
layers = (
{
layerId = "D5C3460E-3C16-46B0-9A2C-8808A9C39771";
paths = (
{
closed = 1;
nodes = (
"57 1658 LINE",
"-95 1658 LINE",
"94 1258 LINE",
"171 1258 LINE"
);
}
);
width = 0;
}
);
note = gravecomb;
unicode = 0300;
},
{
glyphname = acutecomb;
lastChange = "2017-12-16 11:27:02 +0000";
layers = (
{
layerId = "D5C3460E-3C16-46B0-9A2C-8808A9C39771";
paths = (
{
closed = 1;
nodes = (
"287 1658 LINE",
"137 1658 LINE",
"9 1258 LINE",
"86 1258 LINE"
);
}
);
width = 181;
}
);
note = acutecomb;
unicode = 0301;
},
{
glyphname = uni0302;
lastChange = "2017-12-16 11:27:02 +0000";
layers = (
{
layerId = "D5C3460E-3C16-46B0-9A2C-8808A9C39771";
paths = (
{
closed = 1;
nodes = (
"335 1584 LINE",
"485 1295 LINE",
"594 1295 LINE",
"420 1658 LINE",
"252 1658 LINE",
"75 1295 LINE",
"186 1295 LINE"
);
}
);
width = 673;
}
);
note = uni0302;
unicode = 0302;
},
{
glyphname = tildecomb;
lastChange = "2017-12-16 11:27:02 +0000";
layers = (
{
layerId = "D5C3460E-3C16-46B0-9A2C-8808A9C39771";
paths = (
{
closed = 1;
nodes = (
"505 1470 OFFCURVE",
"511 1470 OFFCURVE",
"517 1470 CURVE SMOOTH",
"566 1470 OFFCURVE",
"611 1492 OFFCURVE",
"632 1534 CURVE SMOOTH",
"653 1576 OFFCURVE",
"660 1613 OFFCURVE",
"660 1658 CURVE",
"569 1658 LINE",
"568 1625 OFFCURVE",
"563 1601 OFFCURVE",
"552 1587 CURVE SMOOTH",
"531 1559 OFFCURVE",
"495 1565 OFFCURVE",
"446 1595 CURVE SMOOTH",
"397 1625 OFFCURVE",
"334 1661 OFFCURVE",
"290 1665 CURVE SMOOTH",
"282 1666 OFFCURVE",
"275 1666 OFFCURVE",
"268 1666 CURVE SMOOTH",
"223 1667 OFFCURVE",
"180 1649 OFFCURVE",
"156 1606 CURVE SMOOTH",
"135 1566 OFFCURVE",
"126 1526 OFFCURVE",
"126 1486 CURVE",
"220 1486 LINE",
"220 1546 OFFCURVE",
"246 1574 OFFCURVE",
"287 1567 CURVE",
"302 1566 OFFCURVE",
"333 1550 OFFCURVE",
"382 1519 CURVE SMOOTH",
"431 1488 OFFCURVE",
"470 1472 OFFCURVE",
"499 1471 CURVE"
);
}
);
width = 790;
}
);
note = tildecomb;
unicode = 0303;
},
{
glyphname = uni0304;
lastChange = "2017-12-16 11:27:02 +0000";
layers = (
{
layerId = "D5C3460E-3C16-46B0-9A2C-8808A9C39771";
paths = (
{
closed = 1;
nodes = (
"545 1658 LINE",
"178 1658 LINE",
"178 1562 LINE",
"545 1562 LINE"
);
}
);
width = 704;
}
);
note = uni0304;
unicode = 0304;
},
{
glyphname = uni0306;
lastChange = "2017-12-16 11:27:02 +0000";
layers = (
{
layerId = "D5C3460E-3C16-46B0-9A2C-8808A9C39771";
paths = (
{
closed = 1;
nodes = (
"531 1402 OFFCURVE",
"619 1494 OFFCURVE",
"623 1658 CURVE",
"527 1658 LINE",
"522 1547 OFFCURVE",
"468 1492 OFFCURVE",
"364 1492 CURVE SMOOTH",
"260 1492 OFFCURVE",
"207 1547 OFFCURVE",
"204 1658 CURVE",
"109 1658 LINE",
"113 1494 OFFCURVE",
"200 1402 OFFCURVE",
"364 1402 CURVE SMOOTH"
);
}
);
width = 727;
}
);
note = uni0306;
unicode = 0306;
},
{
glyphname = uni0307;
lastChange = "2017-12-16 11:27:02 +0000";
layers = (
{
layerId = "D5C3460E-3C16-46B0-9A2C-8808A9C39771";
paths = (
{
closed = 1;
nodes = (
"102 1658 LINE",
"-57 1658 LINE",
"-57 1434 LINE",
"102 1434 LINE"
);
}
);
width = 0;
}
);
note = uni0307;
unicode = 0307;
},
{
glyphname = uni0308;
lastChange = "2017-12-16 11:27:02 +0000";
layers = (
{
layerId = "D5C3460E-3C16-46B0-9A2C-8808A9C39771";
paths = (
{
closed = 1;
nodes = (
"116 1658 LINE",
"-38 1658 LINE",
"-38 1477 LINE",
"116 1477 LINE"
);
},
{
closed = 1;
nodes = (
"452 1658 LINE",
"298 1658 LINE",
"298 1477 LINE",
"452 1477 LINE"
);
}
);
width = 414;
}
);
note = uni0308;
unicode = 0308;
},
{
glyphname = uni030A;
lastChange = "2017-12-16 11:27:02 +0000";
layers = (
{
layerId = "D5C3460E-3C16-46B0-9A2C-8808A9C39771";
paths = (
{
closed = 1;
nodes = (
"472 1374 OFFCURVE",
"491 1422 OFFCURVE",
"491 1484 CURVE SMOOTH",
"491 1607 OFFCURVE",
"406 1678 OFFCURVE",
"295 1678 CURVE SMOOTH",
"184 1678 OFFCURVE",
"100 1608 OFFCURVE",
"100 1484 CURVE SMOOTH",
"100 1360 OFFCURVE",
"184 1289 OFFCURVE",
"295 1289 CURVE SMOOTH",
"350 1289 OFFCURVE",
"397 1306 OFFCURVE",
"435 1340 CURVE SMOOTH"
);
},
{
closed = 1;
nodes = (
"195 1418 OFFCURVE",
"184 1447 OFFCURVE",
"184 1484 CURVE SMOOTH",
"184 1559 OFFCURVE",
"230 1598 OFFCURVE",
"295 1598 CURVE SMOOTH",
"360 1598 OFFCURVE",
"407 1560 OFFCURVE",
"407 1484 CURVE SMOOTH",
"407 1409 OFFCURVE",
"361 1370 OFFCURVE",
"296 1370 CURVE SMOOTH",
"263 1370 OFFCURVE",
"237 1380 OFFCURVE",
"216 1399 CURVE SMOOTH"
);
}
);
width = 590;
}
);
note = uni030A;
unicode = 030A;
},
{
glyphname = uni030C;
lastChange = "2017-12-16 11:27:02 +0000";
layers = (
{
layerId = "D5C3460E-3C16-46B0-9A2C-8808A9C39771";
paths = (
{
closed = 1;
nodes = (
"287 1658 LINE",
"167 1658 LINE",
"46 1413 LINE",
"-76 1658 LINE",
"-196 1658 LINE",
"-22 1319 LINE",
"111 1319 LINE"
);
}
);
width = 0;
}
);
note = uni030C;
unicode = 030C;
},
{
glyphname = uni030F;
lastChange = "2017-12-16 11:27:02 +0000";
layers = (
{
layerId = "D5C3460E-3C16-46B0-9A2C-8808A9C39771";
paths = (
{
closed = 1;
nodes = (
"196 1658 LINE",
"37 1658 LINE",
"234 1340 LINE",
"311 1340 LINE"
);
},
{
closed = 1;
nodes = (
"448 1658 LINE",
"314 1658 LINE",
"457 1340 LINE",
"533 1340 LINE"
);
}
);
width = 562;
}
);
note = uni030F;
unicode = 030F;
},
{
glyphname = uni0311;
lastChange = "2017-12-16 11:27:02 +0000";
layers = (
{
layerId = "D5C3460E-3C16-46B0-9A2C-8808A9C39771";
paths = (
{
closed = 1;
nodes = (
"219 1519 OFFCURVE",
"272 1568 OFFCURVE",
"368 1568 CURVE SMOOTH",
"464 1568 OFFCURVE",
"516 1519 OFFCURVE",
"517 1402 CURVE",
"613 1402 LINE",
"608 1573 OFFCURVE",
"526 1658 OFFCURVE",
"367 1658 CURVE SMOOTH",
"206 1658 OFFCURVE",
"123 1573 OFFCURVE",
"118 1402 CURVE",
"214 1402 LINE"
);
}
);
width = 727;
}
);
note = uni0311;
unicode = 0311;
},
{
glyphname = uni0326;
lastChange = "2017-12-16 11:27:02 +0000";
layers = (
{
layerId = "D5C3460E-3C16-46B0-9A2C-8808A9C39771";
paths = (
{
closed = 1;
nodes = (
"252 -457 OFFCURVE",
"283 -385 OFFCURVE",
"284 -241 CURVE SMOOTH",
"285 -81 LINE",
"118 -81 LINE",
"118 -262 LINE",
"205 -262 LINE",
"205 -339 OFFCURVE",
"173 -391 OFFCURVE",
"110 -417 CURVE",
"147 -485 LINE"
);
}
);
width = 402;
}
);
note = uni0326;
unicode = 0326;
},
{
glyphname = Pi;
lastChange = "2017-12-16 11:27:02 +0000";
layers = (
{
layerId = "D5C3460E-3C16-46B0-9A2C-8808A9C39771";
paths = (
{
closed = 1;
nodes = (
"294 1543 LINE",
"852 1543 LINE",
"852 0 LINE",
"1003 0 LINE",
"1003 1658 LINE",
"144 1658 LINE",
"144 0 LINE",
"294 0 LINE"
);
}
);
width = 1146;
}
);
note = Pi;
unicode = 03A0;
},
{
glyphname = pi;
lastChange = "2017-12-16 11:27:02 +0000";
layers = (
{
layerId = "D5C3460E-3C16-46B0-9A2C-8808A9C39771";
paths = (
{
closed = 1;
nodes = (
"591 288 LINE SMOOTH",
"591 72 OFFCURVE",
"653 -10 OFFCURVE",
"865 -10 CURVE",
"879 111 LINE",
"760 111 OFFCURVE",
"741 147 OFFCURVE",
"741 326 CURVE SMOOTH",
"741 1069 LINE",
"890 1069 LINE",
"890 1184 LINE",
"32 1184 LINE",
"32 1069 LINE",
"159 1069 LINE",
"159 0 LINE",
"309 0 LINE",
"309 1069 LINE",
"591 1069 LINE"
);
}
);
width = 957;
}
);
note = pi;
unicode = 03C0;
},
{
glyphname = afii10051;
lastChange = "2017-12-16 11:27:02 +0000";
layers = (
{
layerId = "D5C3460E-3C16-46B0-9A2C-8808A9C39771";
paths = (
{
closed = 1;
nodes = (
"823 0 OFFCURVE",
"948 125 OFFCURVE",
"948 400 CURVE SMOOTH",
"948 654 LINE SMOOTH",
"948 765 OFFCURVE",
"909 852 OFFCURVE",
"847 901 CURVE SMOOTH",
"785 950 OFFCURVE",
"710 975 OFFCURVE",
"630 975 CURVE SMOOTH",
"542 975 OFFCURVE",
"456 945 OFFCURVE",
"407 897 CURVE",
"407 1538 LINE",
"707 1538 LINE",
"707 1658 LINE",
"-26 1658 LINE",
"-26 1538 LINE",
"253 1538 LINE",
"253 0 LINE",
"407 0 LINE",
"407 802 LINE",
"470 844 OFFCURVE",
"535 865 OFFCURVE",
"600 865 CURVE SMOOTH",
"720 865 OFFCURVE",
"798 783 OFFCURVE",
"798 654 CURVE SMOOTH",
"798 401 LINE SMOOTH",
"798 213 OFFCURVE",
"734 116 OFFCURVE",
"546 116 CURVE",
"546 0 LINE",
"572 0 LINE SMOOTH"
);
}
);
width = 1040;
}
);
note = afii10051;
unicode = 0402;
},
{
glyphname = afii10053;
lastChange = "2017-12-16 11:27:02 +0000";
layers = (
{
layerId = "D5C3460E-3C16-46B0-9A2C-8808A9C39771";
paths = (
{
closed = 1;
nodes = (
"592 -21 OFFCURVE",
"645 -13 OFFCURVE",
"691 3 CURVE SMOOTH",
"782 35 OFFCURVE",
"838 90 OFFCURVE",
"875 175 CURVE SMOOTH",
"911 260 OFFCURVE",
"924 354 OFFCURVE",
"924 475 CURVE SMOOTH",
"924 542 LINE",
"776 542 LINE",
"776 464 LINE SMOOTH",
"776 417 OFFCURVE",
"774 377 OFFCURVE",
"771 344 CURVE SMOOTH",
"763 276 OFFCURVE",
"743 208 OFFCURVE",
"708 169 CURVE SMOOTH",
"672 130 OFFCURVE",
"613 105 OFFCURVE",
"532 105 CURVE SMOOTH",
"335 105 OFFCURVE",
"269 217 OFFCURVE",
"269 474 CURVE SMOOTH",
"269 814 LINE",
"690 814 LINE",
"690 927 LINE",
"269 927 LINE",
"269 1178 LINE SMOOTH",
"269 1299 OFFCURVE",
"280 1376 OFFCURVE",
"316 1447 CURVE SMOOTH",
"352 1518 OFFCURVE",
"423 1552 OFFCURVE",
"532 1552 CURVE SMOOTH",
"633 1552 OFFCURVE",
"699 1522 OFFCURVE",
"733 1456 CURVE SMOOTH",
"767 1390 OFFCURVE",
"776 1317 OFFCURVE",
"776 1200 CURVE SMOOTH",
"776 1143 LINE",
"924 1143 LINE",
"924 1205 LINE SMOOTH",
"924 1354 OFFCURVE",
"899 1464 OFFCURVE",
"839 1548 CURVE SMOOTH",
"779 1632 OFFCURVE",
"676 1676 OFFCURVE",
"531 1676 CURVE SMOOTH",
"466 1676 OFFCURVE",
"410 1668 OFFCURVE",
"361 1651 CURVE SMOOTH",
"263 1618 OFFCURVE",
"203 1560 OFFCURVE",
"164 1472 CURVE SMOOTH",
"124 1383 OFFCURVE",
"111 1286 OFFCURVE",
"111 1158 CURVE SMOOTH",
"111 499 LINE SMOOTH",
"111 438 OFFCURVE",
"115 382 OFFCURVE",
"122 333 CURVE SMOOTH",
"137 234 OFFCURVE",
"176 138 OFFCURVE",
"238 78 CURVE SMOOTH",
"300 18 OFFCURVE",
"400 -21 OFFCURVE",
"531 -21 CURVE SMOOTH"
);
}
);
width = 1005;
}
);
note = afii10053;
unicode = 0404;
},
{
glyphname = afii10055;
lastChange = "2017-12-16 11:27:02 +0000";
layers = (
{
layerId = "D5C3460E-3C16-46B0-9A2C-8808A9C39771";
paths = (
{
closed = 1;
nodes = (
"305 1658 LINE",
"151 1658 LINE",
"151 0 LINE",
"305 0 LINE"
);
}
);
width = 454;
}
);
note = afii10055;
unicode = 0406;
},
{
glyphname = afii10057;
lastChange = "2017-12-16 11:27:02 +0000";
layers = (
{
layerId = "D5C3460E-3C16-46B0-9A2C-8808A9C39771";
paths = (
{
closed = 1;
nodes = (
"149 -73 OFFCURVE",
"197 -68 OFFCURVE",
"236 -57 CURVE SMOOTH",
"315 -36 OFFCURVE",
"362 0 OFFCURVE",
"390 68 CURVE SMOOTH",
"417 136 OFFCURVE",
"426 208 OFFCURVE",
"426 324 CURVE SMOOTH",
"426 1658 LINE",
"269 1658 LINE",
"269 334 LINE SMOOTH",
"269 246 OFFCURVE",
"267 199 OFFCURVE",
"254 152 CURVE SMOOTH",
"241 104 OFFCURVE",
"222 85 OFFCURVE",
"182 67 CURVE SMOOTH",
"142 49 OFFCURVE",
"95 45 OFFCURVE",
"16 45 CURVE",
"16 -73 LINE",
"93 -73 LINE SMOOTH"
);
}
);
width = 571;
}
);
note = afii10057;
unicode = 0408;
},
{
glyphname = afii10058;
lastChange = "2017-12-16 11:27:02 +0000";
layers = (
{
layerId = "D5C3460E-3C16-46B0-9A2C-8808A9C39771";
paths = (
{
closed = 1;
nodes = (
"74 -5 OFFCURVE",
"77 -5 OFFCURVE",
"80 -5 CURVE SMOOTH",
"118 -5 OFFCURVE",
"152 -1 OFFCURVE",
"182 7 CURVE SMOOTH",
"246 24 OFFCURVE",
"296 54 OFFCURVE",
"333 115 CURVE SMOOTH",
"369 175 OFFCURVE",
"394 239 OFFCURVE",
"414 348 CURVE SMOOTH",
"433 457 OFFCURVE",
"443 560 OFFCURVE",
"455 720 CURVE SMOOTH",
"515 1540 LINE",
"862 1540 LINE",
"862 0 LINE",
"1148 0 LINE SMOOTH",
"1473 0 OFFCURVE",
"1618 165 OFFCURVE",
"1618 476 CURVE SMOOTH",
"1618 819 OFFCURVE",
"1470 963 OFFCURVE",
"1141 963 CURVE SMOOTH",
"1019 963 LINE",
"1019 1658 LINE",
"374 1658 LINE",
"309 720 LINE SMOOTH",
"296 543 OFFCURVE",
"286 445 OFFCURVE",
"267 345 CURVE SMOOTH",
"248 245 OFFCURVE",
"227 201 OFFCURVE",
"190 162 CURVE SMOOTH",
"153 123 OFFCURVE",
"109 117 OFFCURVE",
"56 117 CURVE SMOOTH",
"50 117 OFFCURVE",
"44 117 OFFCURVE",
"38 117 CURVE",
"38 -4 LINE",
"71 -5 LINE SMOOTH"
);
},
{
closed = 1;
nodes = (
"1148 843 LINE SMOOTH",
"1380 843 OFFCURVE",
"1466 726 OFFCURVE",
"1466 478 CURVE SMOOTH",
"1466 221 OFFCURVE",
"1378 120 OFFCURVE",
"1150 120 CURVE SMOOTH",
"1019 120 LINE",
"1019 843 LINE"
);
}
);
width = 1679;
}
);
leftKerningGroup = afii10058;
note = afii10058;
unicode = 0409;
},
{
glyphname = afii10059;
lastChange = "2017-12-16 11:27:02 +0000";
layers = (
{
layerId = "D5C3460E-3C16-46B0-9A2C-8808A9C39771";
paths = (
{
closed = 1;
nodes = (
"1361 0 OFFCURVE",
"1506 165 OFFCURVE",
"1506 476 CURVE SMOOTH",
"1506 819 OFFCURVE",
"1358 963 OFFCURVE",
"1029 963 CURVE SMOOTH",
"907 963 LINE",
"907 1660 LINE",
"750 1660 LINE",
"750 959 LINE",
"301 959 LINE",
"301 1660 LINE",
"144 1660 LINE",
"144 1 LINE",
"301 1 LINE",
"301 843 LINE",
"750 843 LINE",
"750 1 LINE",
"1036 0 LINE SMOOTH"
);
},
{
closed = 1;
nodes = (
"1036 843 LINE SMOOTH",
"1268 843 OFFCURVE",
"1354 726 OFFCURVE",
"1354 478 CURVE SMOOTH",
"1354 221 OFFCURVE",
"1266 120 OFFCURVE",
"1038 120 CURVE SMOOTH",
"907 120 LINE",
"907 843 LINE"
);
}
);
width = 1559;
}
);
note = afii10059;
rightKerningGroup = afii10059;
unicode = 040A;
},
{
glyphname = afii10060;
lastChange = "2017-12-16 11:27:02 +0000";
layers = (
{
layerId = "D5C3460E-3C16-46B0-9A2C-8808A9C39771";
paths = (
{
closed = 1;
nodes = (
"377 800 LINE",
"434 853 OFFCURVE",
"497 879 OFFCURVE",
"566 879 CURVE SMOOTH",
"647 879 OFFCURVE",
"688 834 OFFCURVE",
"688 744 CURVE SMOOTH",
"688 0 LINE",
"839 0 LINE",
"839 769 LINE SMOOTH",
"839 906 OFFCURVE",
"739 974 OFFCURVE",
"608 974 CURVE SMOOTH",
"504 974 OFFCURVE",
"418 933 OFFCURVE",
"377 896 CURVE",
"377 1538 LINE",
"688 1538 LINE",
"688 1658 LINE",
"-76 1658 LINE",
"-76 1538 LINE",
"223 1538 LINE",
"223 0 LINE",
"377 0 LINE"
);
}
);
width = 945;
}
);
note = afii10060;
unicode = 040B;
},
{
glyphname = afii10145;
lastChange = "2017-12-16 11:27:02 +0000";
layers = (
{
layerId = "D5C3460E-3C16-46B0-9A2C-8808A9C39771";
paths = (
{
closed = 1;
nodes = (
"621 0 LINE",
"930 0 LINE",
"930 1658 LINE",
"773 1658 LINE",
"773 115 LINE",
"301 115 LINE",
"301 1658 LINE",
"144 1658 LINE",
"144 0 LINE",
"477 0 LINE",
"490 -285 LINE",
"609 -285 LINE"
);
}
);
width = 1074;
}
);
note = afii10145;
unicode = 040F;
},
{
glyphname = afii10018;
lastChange = "2017-12-16 11:27:02 +0000";
layers = (
{
layerId = "D5C3460E-3C16-46B0-9A2C-8808A9C39771";
paths = (
{
closed = 1;
nodes = (
"766 0 OFFCURVE",
"911 165 OFFCURVE",
"911 476 CURVE SMOOTH",
"911 819 OFFCURVE",
"762 963 OFFCURVE",
"434 963 CURVE SMOOTH",
"301 963 LINE",
"301 1542 LINE",
"809 1542 LINE",
"809 1658 LINE",
"144 1658 LINE",
"144 0 LINE",
"441 0 LINE SMOOTH"
);
},
{
closed = 1;
nodes = (
"440 843 LINE SMOOTH",
"672 843 OFFCURVE",
"758 727 OFFCURVE",
"758 478 CURVE SMOOTH",
"758 221 OFFCURVE",
"670 120 OFFCURVE",
"443 120 CURVE SMOOTH",
"301 120 LINE",
"301 843 LINE"
);
}
);
width = 981;
}
);
note = afii10018;
unicode = 0411;
},
{
glyphname = afii10019;
lastChange = "2017-12-16 11:27:02 +0000";
layers = (
{
layerId = "D5C3460E-3C16-46B0-9A2C-8808A9C39771";
paths = (
{
closed = 1;
nodes = (
"616 0 OFFCURVE",
"669 8 OFFCURVE",
"715 25 CURVE SMOOTH",
"807 58 OFFCURVE",
"862 114 OFFCURVE",
"898 198 CURVE SMOOTH",
"934 281 OFFCURVE",
"946 368 OFFCURVE",
"946 480 CURVE SMOOTH",
"946 576 OFFCURVE",
"931 657 OFFCURVE",
"895 734 CURVE SMOOTH",
"858 810 OFFCURVE",
"789 869 OFFCURVE",
"696 894 CURVE",
"747 905 OFFCURVE",
"789 928 OFFCURVE",
"822 965 CURVE SMOOTH",
"887 1038 OFFCURVE",
"907 1130 OFFCURVE",
"907 1245 CURVE SMOOTH",
"907 1510 OFFCURVE",
"789 1658 OFFCURVE",
"500 1658 CURVE SMOOTH",
"144 1658 LINE",
"144 0 LINE",
"555 0 LINE SMOOTH"
);
},
{
closed = 1;
nodes = (
"528 823 LINE SMOOTH",
"706 823 OFFCURVE",
"795 708 OFFCURVE",
"795 479 CURVE SMOOTH",
"795 220 OFFCURVE",
"733 117 OFFCURVE",
"526 117 CURVE SMOOTH",
"301 117 LINE",
"301 823 LINE"
);
},
{
closed = 1;
nodes = (
"450 1538 LINE SMOOTH",
"691 1538 OFFCURVE",
"766 1454 OFFCURVE",
"766 1245 CURVE SMOOTH",
"766 1049 OFFCURVE",
"704 944 OFFCURVE",
"527 944 CURVE SMOOTH",
"301 944 LINE",
"301 1538 LINE"
);
}
);
width = 1027;
}
);
note = afii10019;
unicode = 0412;
},
{
glyphname = afii10020;
lastChange = "2017-12-16 11:27:02 +0000";
layers = (
{
layerId = "D5C3460E-3C16-46B0-9A2C-8808A9C39771";
paths = (
{
closed = 1;
nodes = (
"301 1538 LINE",
"733 1538 LINE",
"733 1658 LINE",
"144 1658 LINE",
"144 0 LINE",
"301 0 LINE"
);
}
);
width = 769;
}
);
note = afii10020;
rightKerningGroup = afii10052;
unicode = 0413;
},
{
glyphname = afii10021;
lastChange = "2017-12-16 11:27:02 +0000";
layers = (
{
layerId = "D5C3460E-3C16-46B0-9A2C-8808A9C39771";
paths = (
{
closed = 1;
nodes = (
"157 0 LINE",
"1012 0 LINE",
"1027 -285 LINE",
"1150 -285 LINE",
"1150 117 LINE",
"1014 117 LINE",
"1014 1658 LINE",
"389 1658 LINE",
"353 1122 LINE SMOOTH",
"345 1003 OFFCURVE",
"336 898 OFFCURVE",
"327 806 CURVE SMOOTH",
"307 622 OFFCURVE",
"292 498 OFFCURVE",
"265 402 CURVE SMOOTH",
"237 305 OFFCURVE",
"221 255 OFFCURVE",
"185 209 CURVE SMOOTH",
"149 163 OFFCURVE",
"130 149 OFFCURVE",
"85 117 CURVE",
"20 117 LINE",
"20 -285 LINE",
"143 -285 LINE"
);
},
{
closed = 1;
nodes = (
"285 148 OFFCURVE",
"313 175 OFFCURVE",
"330 197 CURVE SMOOTH",
"426 322 OFFCURVE",
"467 632 OFFCURVE",
"496 1088 CURVE SMOOTH",
"527 1540 LINE",
"857 1540 LINE",
"857 117 LINE",
"244 117 LINE"
);
}
);
width = 1204;
}
);
leftKerningGroup = afii10021;
note = afii10021;
unicode = 0414;
},
{
glyphname = afii10024;
lastChange = "2017-12-16 11:27:02 +0000";
layers = (
{
layerId = "D5C3460E-3C16-46B0-9A2C-8808A9C39771";
paths = (
{
closed = 1;
nodes = (
"565 839 LINE",
"584 839 LINE",
"584 0 LINE",
"722 0 LINE",
"722 839 LINE",
"741 839 LINE",
"1122 0 LINE",
"1276 0 LINE",
"864 859 LINE",
"1237 1658 LINE",
"1086 1658 LINE",
"736 868 LINE",
"722 868 LINE",
"722 1658 LINE",
"584 1658 LINE",
"584 868 LINE",
"570 868 LINE",
"220 1658 LINE",
"69 1658 LINE",
"442 859 LINE",
"30 0 LINE",
"184 0 LINE"
);
}
);
width = 1306;
}
);
note = afii10024;
unicode = 0416;
},
{
glyphname = afii10025;
lastChange = "2017-12-16 11:27:02 +0000";
layers = (
{
layerId = "D5C3460E-3C16-46B0-9A2C-8808A9C39771";
paths = (
{
closed = 1;
nodes = (
"628 -21 OFFCURVE",
"731 26 OFFCURVE",
"793 111 CURVE SMOOTH",
"855 195 OFFCURVE",
"883 308 OFFCURVE",
"883 452 CURVE SMOOTH",
"883 579 OFFCURVE",
"855 682 OFFCURVE",
"808 747 CURVE SMOOTH",
"761 811 OFFCURVE",
"707 851 OFFCURVE",
"643 868 CURVE",
"787 901 OFFCURVE",
"883 1036 OFFCURVE",
"883 1260 CURVE SMOOTH",
"883 1512 OFFCURVE",
"744 1676 OFFCURVE",
"491 1676 CURVE SMOOTH",
"224 1676 OFFCURVE",
"98 1528 OFFCURVE",
"98 1276 CURVE SMOOTH",
"98 1238 LINE",
"244 1238 LINE",
"244 1257 OFFCURVE",
"244 1270 OFFCURVE",
"245 1276 CURVE",
"250 1467 OFFCURVE",
"329 1554 OFFCURVE",
"496 1554 CURVE SMOOTH",
"652 1554 OFFCURVE",
"730 1456 OFFCURVE",
"730 1261 CURVE SMOOTH",
"730 1036 OFFCURVE",
"652 931 OFFCURVE",
"445 924 CURVE SMOOTH",
"359 924 LINE",
"359 806 LINE",
"412 806 OFFCURVE",
"441 806 OFFCURVE",
"447 805 CURVE",
"636 797 OFFCURVE",
"730 679 OFFCURVE",
"730 450 CURVE SMOOTH",
"730 205 OFFCURVE",
"649 103 OFFCURVE",
"489 103 CURVE SMOOTH",
"334 103 OFFCURVE",
"269 198 OFFCURVE",
"266 377 CURVE",
"265 384 OFFCURVE",
"265 399 OFFCURVE",
"265 423 CURVE",
"119 423 LINE",
"119 383 LINE SMOOTH",
"119 128 OFFCURVE",
"240 -21 OFFCURVE",
"489 -21 CURVE SMOOTH"
);
}
);
width = 958;
}
);
leftKerningGroup = afii10025;
note = afii10025;
unicode = 0417;
},
{
glyphname = afii10026;
lastChange = "2017-12-16 11:27:02 +0000";
layers = (
{
layerId = "D5C3460E-3C16-46B0-9A2C-8808A9C39771";
paths = (
{
closed = 1;
nodes = (
"801 1321 LINE",
"801 0 LINE",
"940 0 LINE",
"940 1658 LINE",
"820 1658 LINE",
"283 344 LINE",
"283 1658 LINE",
"144 1658 LINE",
"144 0 LINE",
"267 0 LINE"
);
}
);
width = 1084;
}
);
note = afii10026;
unicode = 0418;
},
{
glyphname = afii10028;
lastChange = "2017-12-16 11:27:02 +0000";
layers = (
{
layerId = "D5C3460E-3C16-46B0-9A2C-8808A9C39771";
paths = (
{
closed = 1;
nodes = (
"301 813 LINE",
"420 813 LINE",
"813 0 LINE",
"971 0 LINE",
"556 860 LINE",
"916 1658 LINE",
"757 1658 LINE",
"419 897 LINE",
"301 897 LINE",
"301 1658 LINE",
"144 1658 LINE",
"144 0 LINE",
"301 0 LINE"
);
}
);
width = 990;
}
);
note = afii10028;
unicode = 041A;
},
{
glyphname = afii10029;
lastChange = "2017-12-16 11:27:02 +0000";
layers = (
{
layerId = "D5C3460E-3C16-46B0-9A2C-8808A9C39771";
paths = (
{
closed = 1;
nodes = (
"40 -4 OFFCURVE",
"46 -4 OFFCURVE",
"52 -4 CURVE SMOOTH",
"127 -4 OFFCURVE",
"185 0 OFFCURVE",
"241 33 CURVE SMOOTH",
"296 66 OFFCURVE",
"328 90 OFFCURVE",
"360 175 CURVE SMOOTH",
"391 259 OFFCURVE",
"406 315 OFFCURVE",
"426 464 CURVE SMOOTH",
"445 613 OFFCURVE",
"454 714 OFFCURVE",
"471 941 CURVE SMOOTH",
"511 1540 LINE",
"859 1540 LINE",
"859 0 LINE",
"1016 0 LINE",
"1016 1658 LINE",
"371 1658 LINE",
"322 942 LINE SMOOTH",
"309 775 OFFCURVE",
"300 659 OFFCURVE",
"287 550 CURVE SMOOTH",
"274 441 OFFCURVE",
"266 372 OFFCURVE",
"250 308 CURVE SMOOTH",
"233 244 OFFCURVE",
"225 211 OFFCURVE",
"201 180 CURVE SMOOTH",
"177 149 OFFCURVE",
"165 138 OFFCURVE",
"132 129 CURVE SMOOTH",
"99 120 OFFCURVE",
"81 118 OFFCURVE",
"34 117 CURVE",
"34 -4 LINE"
);
}
);
width = 1159;
}
);
leftKerningGroup = afii10029;
note = afii10029;
unicode = 041B;
},
{
glyphname = afii10030;
lastChange = "2017-12-16 11:27:02 +0000";
layers = (
{
layerId = "D5C3460E-3C16-46B0-9A2C-8808A9C39771";
paths = (
{
closed = 1;
nodes = (
"288 1270 LINE",
"607 0 LINE",
"707 0 LINE",
"1029 1273 LINE",
"1058 0 LINE",
"1186 0 LINE",
"1145 1658 LINE",
"998 1658 LINE",
"656 256 LINE",
"316 1658 LINE",
"173 1658 LINE",
"130 0 LINE",
"259 0 LINE"
);
}
);
width = 1316;
}
);
note = afii10030;
unicode = 041C;
},
{
glyphname = afii10033;
lastChange = "2017-12-16 11:27:02 +0000";
layers = (
{
layerId = "D5C3460E-3C16-46B0-9A2C-8808A9C39771";
paths = (
{
closed = 1;
nodes = (
"301 1543 LINE",
"836 1543 LINE",
"836 0 LINE",
"993 0 LINE",
"993 1658 LINE",
"144 1658 LINE",
"144 0 LINE",
"301 0 LINE"
);
}
);
width = 1137;
}
);
note = afii10033;
unicode = 041F;
},
{
glyphname = afii10034;
lastChange = "2017-12-16 11:27:02 +0000";
layers = (
{
layerId = "D5C3460E-3C16-46B0-9A2C-8808A9C39771";
paths = (
{
closed = 1;
nodes = (
"301 785 LINE",
"544 785 LINE SMOOTH",
"683 785 OFFCURVE",
"788 833 OFFCURVE",
"849 914 CURVE SMOOTH",
"909 994 OFFCURVE",
"937 1096 OFFCURVE",
"937 1219 CURVE SMOOTH",
"937 1355 OFFCURVE",
"912 1457 OFFCURVE",
"852 1537 CURVE SMOOTH",
"792 1616 OFFCURVE",
"687 1658 OFFCURVE",
"542 1658 CURVE SMOOTH",
"144 1658 LINE",
"144 0 LINE",
"301 0 LINE"
);
},
{
closed = 1;
nodes = (
"502 1542 LINE SMOOTH",
"723 1542 OFFCURVE",
"784 1473 OFFCURVE",
"784 1218 CURVE SMOOTH",
"784 983 OFFCURVE",
"704 901 OFFCURVE",
"500 901 CURVE SMOOTH",
"301 901 LINE",
"301 1542 LINE"
);
}
);
width = 979;
}
);
note = afii10034;
unicode = 0420;
},
{
glyphname = afii10037;
lastChange = "2017-12-16 11:27:02 +0000";
layers = (
{
layerId = "D5C3460E-3C16-46B0-9A2C-8808A9C39771";
paths = (
{
closed = 1;
nodes = (
"146 -214 OFFCURVE",
"172 -215 OFFCURVE",
"196 -215 CURVE SMOOTH",
"255 -215 OFFCURVE",
"323 -213 OFFCURVE",
"384 -189 CURVE SMOOTH",
"444 -165 OFFCURVE",
"477 -137 OFFCURVE",
"503 -76 CURVE SMOOTH",
"529 -16 OFFCURVE",
"541 42 OFFCURVE",
"562 146 CURVE SMOOTH",
"567 171 OFFCURVE",
"570 189 OFFCURVE",
"573 202 CURVE SMOOTH",
"890 1658 LINE",
"737 1658 LINE",
"586 916 LINE",
"489 381 LINE",
"379 914 LINE",
"208 1658 LINE",
"57 1658 LINE",
"411 209 LINE",
"410 161 OFFCURVE",
"409 124 OFFCURVE",
"407 99 CURVE SMOOTH",
"403 48 OFFCURVE",
"390 -16 OFFCURVE",
"367 -39 CURVE SMOOTH",
"343 -63 OFFCURVE",
"297 -88 OFFCURVE",
"236 -92 CURVE SMOOTH",
"223 -93 OFFCURVE",
"208 -93 OFFCURVE",
"192 -93 CURVE SMOOTH",
"171 -93 OFFCURVE",
"147 -92 OFFCURVE",
"120 -91 CURVE",
"119 -213 LINE"
);
}
);
width = 926;
}
);
leftKerningGroup = afii10062;
note = afii10037;
rightKerningGroup = afii10062;
unicode = 0423;
},
{
glyphname = afii10038;
lastChange = "2017-12-16 11:27:02 +0000";
layers = (
{
layerId = "D5C3460E-3C16-46B0-9A2C-8808A9C39771";
paths = (
{
closed = 1;
nodes = (
"710 192 LINE",
"735 189 OFFCURVE",
"766 188 OFFCURVE",
"803 188 CURVE",
"812 187 OFFCURVE",
"822 187 OFFCURVE",
"831 187 CURVE SMOOTH",
"1039 187 OFFCURVE",
"1156 312 OFFCURVE",
"1157 611 CURVE SMOOTH",
"1157 1069 LINE SMOOTH",
"1157 1373 OFFCURVE",
"1037 1507 OFFCURVE",
"817 1507 CURVE SMOOTH",
"810 1507 OFFCURVE",
"804 1507 OFFCURVE",
"798 1507 CURVE SMOOTH",
"757 1507 OFFCURVE",
"727 1506 OFFCURVE",
"710 1504 CURVE",
"710 1808 LINE",
"553 1808 LINE",
"553 1504 LINE",
"533 1505 OFFCURVE",
"508 1506 OFFCURVE",
"477 1506 CURVE SMOOTH",
"470 1506 OFFCURVE",
"464 1506 OFFCURVE",
"458 1506 CURVE SMOOTH",
"234 1506 OFFCURVE",
"111 1372 OFFCURVE",
"111 1069 CURVE SMOOTH",
"111 611 LINE SMOOTH",
"112 311 OFFCURVE",
"231 186 OFFCURVE",
"436 187 CURVE SMOOTH",
"445 187 OFFCURVE",
"455 187 OFFCURVE",
"464 188 CURVE",
"498 188 OFFCURVE",
"528 189 OFFCURVE",
"553 192 CURVE",
"553 -99 LINE",
"710 -99 LINE"
);
},
{
closed = 1;
nodes = (
"484 288 OFFCURVE",
"480 288 OFFCURVE",
"475 288 CURVE SMOOTH",
"311 288 OFFCURVE",
"258 370 OFFCURVE",
"257 611 CURVE",
"257 1069 LINE SMOOTH",
"258 1314 OFFCURVE",
"314 1407 OFFCURVE",
"481 1407 CURVE SMOOTH",
"485 1407 OFFCURVE",
"489 1407 OFFCURVE",
"494 1407 CURVE SMOOTH",
"517 1407 OFFCURVE",
"537 1406 OFFCURVE",
"553 1404 CURVE",
"553 291 LINE",
"535 289 OFFCURVE",
"514 288 OFFCURVE",
"489 288 CURVE SMOOTH"
);
},
{
closed = 1;
nodes = (
"751 288 OFFCURVE",
"728 289 OFFCURVE",
"710 291 CURVE",
"710 1404 LINE",
"742 1406 OFFCURVE",
"763 1407 OFFCURVE",
"774 1407 CURVE SMOOTH",
"779 1407 OFFCURVE",
"783 1407 OFFCURVE",
"787 1407 CURVE SMOOTH",
"956 1407 OFFCURVE",
"1012 1314 OFFCURVE",
"1012 1069 CURVE SMOOTH",
"1012 611 LINE SMOOTH",
"1012 370 OFFCURVE",
"958 288 OFFCURVE",
"794 288 CURVE SMOOTH",
"789 288 OFFCURVE",
"785 288 OFFCURVE",
"780 288 CURVE SMOOTH"
);
}
);
width = 1268;
}
);
leftKerningGroup = afii10038;
note = afii10038;
unicode = 0424;
},
{
glyphname = afii10040;
lastChange = "2017-12-16 11:27:02 +0000";
layers = (
{
layerId = "D5C3460E-3C16-46B0-9A2C-8808A9C39771";
paths = (
{
closed = 1;
nodes = (
"1134 115 LINE",
"1003 115 LINE",
"1003 1658 LINE",
"846 1658 LINE",
"846 115 LINE",
"301 115 LINE",
"301 1658 LINE",
"144 1658 LINE",
"144 0 LINE",
"995 0 LINE",
"1010 -285 LINE",
"1134 -285 LINE"
);
}
);
width = 1188;
}
);
note = afii10040;
unicode = 0426;
},
{
glyphname = afii10041;
lastChange = "2017-12-16 11:27:02 +0000";
layers = (
{
layerId = "D5C3460E-3C16-46B0-9A2C-8808A9C39771";
paths = (
{
closed = 1;
nodes = (
"915 1658 LINE",
"758 1658 LINE",
"758 875 LINE",
"687 854 OFFCURVE",
"615 843 OFFCURVE",
"541 843 CURVE SMOOTH",
"353 843 OFFCURVE",
"253 912 OFFCURVE",
"253 1103 CURVE SMOOTH",
"253 1658 LINE",
"108 1658 LINE",
"108 1102 LINE SMOOTH",
"108 857 OFFCURVE",
"243 735 OFFCURVE",
"514 735 CURVE SMOOTH",
"587 735 OFFCURVE",
"669 746 OFFCURVE",
"758 768 CURVE",
"758 0 LINE",
"915 0 LINE"
);
}
);
width = 1059;
}
);
note = afii10041;
unicode = 0427;
},
{
glyphname = afii10042;
lastChange = "2017-12-16 11:27:02 +0000";
layers = (
{
layerId = "D5C3460E-3C16-46B0-9A2C-8808A9C39771";
paths = (
{
closed = 1;
nodes = (
"1330 1658 LINE",
"1173 1658 LINE",
"1173 116 LINE",
"823 116 LINE",
"823 1658 LINE",
"666 1658 LINE",
"666 116 LINE",
"301 116 LINE",
"301 1658 LINE",
"144 1658 LINE",
"144 0 LINE",
"1330 0 LINE"
);
}
);
width = 1474;
}
);
note = afii10042;
unicode = 0428;
},
{
glyphname = afii10043;
lastChange = "2017-12-16 11:27:02 +0000";
layers = (
{
layerId = "D5C3460E-3C16-46B0-9A2C-8808A9C39771";
paths = (
{
closed = 1;
nodes = (
"1464 115 LINE",
"1331 115 LINE",
"1331 1658 LINE",
"1174 1658 LINE",
"1174 115 LINE",
"823 115 LINE",
"823 1658 LINE",
"666 1658 LINE",
"666 115 LINE",
"301 115 LINE",
"301 1658 LINE",
"144 1658 LINE",
"144 0 LINE",
"1325 0 LINE",
"1340 -285 LINE",
"1464 -285 LINE"
);
}
);
width = 1518;
}
);
note = afii10043;
unicode = 0429;
},
{
glyphname = afii10044;
lastChange = "2017-12-16 11:27:02 +0000";
layers = (
{
layerId = "D5C3460E-3C16-46B0-9A2C-8808A9C39771";
paths = (
{
closed = 1;
nodes = (
"932 0 OFFCURVE",
"1077 165 OFFCURVE",
"1077 476 CURVE SMOOTH",
"1077 819 OFFCURVE",
"929 963 OFFCURVE",
"600 963 CURVE SMOOTH",
"460 963 LINE",
"460 1658 LINE",
"12 1658 LINE",
"12 1537 LINE",
"303 1537 LINE",
"303 0 LINE",
"607 0 LINE SMOOTH"
);
},
{
closed = 1;
nodes = (
"607 843 LINE SMOOTH",
"839 843 OFFCURVE",
"925 726 OFFCURVE",
"925 478 CURVE SMOOTH",
"925 221 OFFCURVE",
"837 120 OFFCURVE",
"609 120 CURVE SMOOTH",
"460 120 LINE",
"460 843 LINE"
);
}
);
width = 1129;
}
);
note = afii10044;
unicode = 042A;
},
{
glyphname = afii10045;
lastChange = "2017-12-16 11:27:02 +0000";
layers = (
{
layerId = "D5C3460E-3C16-46B0-9A2C-8808A9C39771";
paths = (
{
closed = 1;
nodes = (
"773 0 OFFCURVE",
"918 165 OFFCURVE",
"918 476 CURVE SMOOTH",
"918 819 OFFCURVE",
"769 963 OFFCURVE",
"441 963 CURVE SMOOTH",
"301 963 LINE",
"301 1658 LINE",
"144 1658 LINE",
"144 0 LINE",
"448 0 LINE SMOOTH"
);
},
{
closed = 1;
nodes = (
"447 843 LINE SMOOTH",
"679 843 OFFCURVE",
"765 727 OFFCURVE",
"765 478 CURVE SMOOTH",
"765 221 OFFCURVE",
"677 120 OFFCURVE",
"450 120 CURVE SMOOTH",
"301 120 LINE",
"301 843 LINE"
);
},
{
closed = 1;
nodes = (
"1272 1658 LINE",
"1115 1658 LINE",
"1115 0 LINE",
"1272 0 LINE"
);
}
);
width = 1416;
}
);
note = afii10045;
unicode = 042B;
},
{
glyphname = afii10046;
lastChange = "2017-12-16 11:27:02 +0000";
layers = (
{
layerId = "D5C3460E-3C16-46B0-9A2C-8808A9C39771";
paths = (
{
closed = 1;
nodes = (
"773 0 OFFCURVE",
"918 165 OFFCURVE",
"918 476 CURVE SMOOTH",
"918 819 OFFCURVE",
"770 963 OFFCURVE",
"441 963 CURVE SMOOTH",
"301 963 LINE",
"301 1658 LINE",
"144 1658 LINE",
"144 0 LINE",
"448 0 LINE SMOOTH"
);
},
{
closed = 1;
nodes = (
"448 843 LINE SMOOTH",
"680 843 OFFCURVE",
"766 726 OFFCURVE",
"766 478 CURVE SMOOTH",
"766 221 OFFCURVE",
"678 120 OFFCURVE",
"450 120 CURVE SMOOTH",
"301 120 LINE",
"301 843 LINE"
);
}
);
width = 970;
}
);
note = afii10046;
unicode = 042C;
},
{
glyphname = afii10047;
lastChange = "2017-12-16 11:27:02 +0000";
layers = (
{
layerId = "D5C3460E-3C16-46B0-9A2C-8808A9C39771";
paths = (
{
closed = 1;
nodes = (
"571 -8 OFFCURVE",
"628 0 OFFCURVE",
"677 17 CURVE SMOOTH",
"775 50 OFFCURVE",
"834 108 OFFCURVE",
"873 197 CURVE SMOOTH",
"912 286 OFFCURVE",
"925 383 OFFCURVE",
"925 511 CURVE SMOOTH",
"925 1170 LINE SMOOTH",
"925 1231 OFFCURVE",
"921 1287 OFFCURVE",
"914 1336 CURVE SMOOTH",
"899 1435 OFFCURVE",
"862 1530 OFFCURVE",
"800 1591 CURVE SMOOTH",
"738 1651 OFFCURVE",
"637 1689 OFFCURVE",
"506 1689 CURVE SMOOTH",
"445 1689 OFFCURVE",
"392 1681 OFFCURVE",
"346 1665 CURVE SMOOTH",
"254 1633 OFFCURVE",
"198 1578 OFFCURVE",
"162 1493 CURVE SMOOTH",
"125 1408 OFFCURVE",
"112 1314 OFFCURVE",
"112 1193 CURVE SMOOTH",
"112 1125 LINE",
"261 1125 LINE",
"261 1204 LINE SMOOTH",
"261 1323 OFFCURVE",
"271 1395 OFFCURVE",
"305 1463 CURVE SMOOTH",
"339 1531 OFFCURVE",
"404 1563 OFFCURVE",
"505 1563 CURVE SMOOTH",
"701 1563 OFFCURVE",
"767 1451 OFFCURVE",
"767 1195 CURVE SMOOTH",
"767 914 LINE",
"413 914 LINE",
"413 806 LINE",
"767 806 LINE",
"767 490 LINE SMOOTH",
"767 441 OFFCURVE",
"765 400 OFFCURVE",
"762 365 CURVE SMOOTH",
"754 295 OFFCURVE",
"733 224 OFFCURVE",
"695 184 CURVE SMOOTH",
"657 143 OFFCURVE",
"593 117 OFFCURVE",
"505 117 CURVE SMOOTH",
"464 117 OFFCURVE",
"428 123 OFFCURVE",
"399 134 CURVE SMOOTH",
"340 156 OFFCURVE",
"307 191 OFFCURVE",
"287 252 CURVE SMOOTH",
"266 313 OFFCURVE",
"261 375 OFFCURVE",
"261 468 CURVE SMOOTH",
"261 538 LINE",
"112 538 LINE",
"112 463 LINE SMOOTH",
"112 314 OFFCURVE",
"137 204 OFFCURVE",
"197 120 CURVE SMOOTH",
"257 36 OFFCURVE",
"361 -8 OFFCURVE",
"506 -8 CURVE SMOOTH"
);
}
);
width = 1036;
}
);
note = afii10047;
unicode = 042D;
},
{
glyphname = afii10048;
lastChange = "2017-12-16 11:27:02 +0000";
layers = (
{
layerId = "D5C3460E-3C16-46B0-9A2C-8808A9C39771";
paths = (
{
closed = 1;
nodes = (
"1040 -21 OFFCURVE",
"1150 29 OFFCURVE",
"1211 124 CURVE SMOOTH",
"1272 219 OFFCURVE",
"1297 334 OFFCURVE",
"1297 491 CURVE SMOOTH",
"1297 1173 LINE SMOOTH",
"1297 1328 OFFCURVE",
"1271 1444 OFFCURVE",
"1209 1536 CURVE SMOOTH",
"1147 1627 OFFCURVE",
"1037 1676 OFFCURVE",
"885 1676 CURVE SMOOTH",
"732 1676 OFFCURVE",
"624 1629 OFFCURVE",
"562 1538 CURVE SMOOTH",
"500 1446 OFFCURVE",
"473 1331 OFFCURVE",
"473 1174 CURVE SMOOTH",
"473 902 LINE",
"293 902 LINE",
"293 1658 LINE",
"144 1658 LINE",
"144 0 LINE",
"293 0 LINE",
"293 780 LINE",
"473 780 LINE",
"473 493 LINE SMOOTH",
"473 430 OFFCURVE",
"477 374 OFFCURVE",
"485 324 CURVE SMOOTH",
"501 223 OFFCURVE",
"540 132 OFFCURVE",
"602 73 CURVE SMOOTH",
"664 14 OFFCURVE",
"760 -21 OFFCURVE",
"885 -21 CURVE SMOOTH"
);
},
{
closed = 1;
nodes = (
"782 105 OFFCURVE",
"710 138 OFFCURVE",
"671 203 CURVE SMOOTH",
"631 267 OFFCURVE",
"617 344 OFFCURVE",
"617 456 CURVE SMOOTH",
"617 1206 LINE SMOOTH",
"617 1317 OFFCURVE",
"631 1393 OFFCURVE",
"671 1457 CURVE SMOOTH",
"710 1520 OFFCURVE",
"781 1552 OFFCURVE",
"885 1552 CURVE SMOOTH",
"989 1552 OFFCURVE",
"1060 1520 OFFCURVE",
"1100 1457 CURVE SMOOTH",
"1139 1393 OFFCURVE",
"1153 1317 OFFCURVE",
"1153 1206 CURVE SMOOTH",
"1153 456 LINE SMOOTH",
"1153 344 OFFCURVE",
"1139 267 OFFCURVE",
"1100 203 CURVE SMOOTH",
"1061 138 OFFCURVE",
"991 105 OFFCURVE",
"887 105 CURVE SMOOTH"
);
}
);
width = 1408;
}
);
note = afii10048;
unicode = 042E;
},
{
glyphname = afii10049;
lastChange = "2017-12-16 11:27:02 +0000";
layers = (
{
layerId = "D5C3460E-3C16-46B0-9A2C-8808A9C39771";
paths = (
{
closed = 1;
nodes = (
"513 714 LINE",
"534 711 OFFCURVE",
"558 710 OFFCURVE",
"584 710 CURVE SMOOTH",
"793 710 LINE",
"793 0 LINE",
"950 0 LINE",
"950 1658 LINE",
"598 1658 LINE SMOOTH",
"429 1658 OFFCURVE",
"304 1610 OFFCURVE",
"236 1526 CURVE SMOOTH",
"167 1442 OFFCURVE",
"138 1339 OFFCURVE",
"138 1210 CURVE SMOOTH",
"138 979 OFFCURVE",
"220 813 OFFCURVE",
"376 752 CURVE",
"40 0 LINE",
"214 0 LINE"
);
},
{
closed = 1;
nodes = (
"380 826 OFFCURVE",
"289 947 OFFCURVE",
"289 1210 CURVE SMOOTH",
"289 1442 OFFCURVE",
"394 1542 OFFCURVE",
"605 1542 CURVE SMOOTH",
"793 1542 LINE",
"793 826 LINE",
"609 826 LINE SMOOTH"
);
}
);
width = 1093;
}
);
leftKerningGroup = afii10049;
note = afii10049;
unicode = 042F;
},
{
glyphname = afii10066;
lastChange = "2017-12-16 11:27:02 +0000";
layers = (
{
layerId = "D5C3460E-3C16-46B0-9A2C-8808A9C39771";
paths = (
{
closed = 1;
nodes = (
"567 -16 OFFCURVE",
"644 8 OFFCURVE",
"708 75 CURVE SMOOTH",
"772 142 OFFCURVE",
"804 263 OFFCURVE",
"804 442 CURVE SMOOTH",
"804 650 LINE SMOOTH",
"804 974 OFFCURVE",
"708 1102 OFFCURVE",
"525 1102 CURVE SMOOTH",
"437 1101 OFFCURVE",
"324 1056 OFFCURVE",
"269 1008 CURVE",
"269 1155 LINE SMOOTH",
"269 1218 OFFCURVE",
"272 1271 OFFCURVE",
"277 1312 CURVE SMOOTH",
"288 1395 OFFCURVE",
"316 1442 OFFCURVE",
"348 1466 CURVE SMOOTH",
"379 1490 OFFCURVE",
"440 1504 OFFCURVE",
"496 1512 CURVE SMOOTH",
"551 1520 OFFCURVE",
"647 1543 OFFCURVE",
"728 1576 CURVE",
"698 1704 LINE",
"613 1669 OFFCURVE",
"508 1643 OFFCURVE",
"445 1631 CURVE SMOOTH",
"381 1619 OFFCURVE",
"307 1599 OFFCURVE",
"264 1574 CURVE SMOOTH",
"220 1549 OFFCURVE",
"177 1500 OFFCURVE",
"155 1425 CURVE SMOOTH",
"133 1349 OFFCURVE",
"119 1234 OFFCURVE",
"119 1073 CURVE SMOOTH",
"119 375 LINE SMOOTH",
"120 115 OFFCURVE",
"259 -18 OFFCURVE",
"448 -19 CURVE SMOOTH",
"450 -19 OFFCURVE",
"452 -19 OFFCURVE",
"454 -19 CURVE SMOOTH"
);
},
{
closed = 1;
nodes = (
"463 94 OFFCURVE",
"461 94 OFFCURVE",
"460 94 CURVE SMOOTH",
"344 94 OFFCURVE",
"270 180 OFFCURVE",
"269 371 CURVE",
"269 904 LINE",
"324 951 OFFCURVE",
"426 996 OFFCURVE",
"494 996 CURVE SMOOTH",
"611 996 OFFCURVE",
"653 918 OFFCURVE",
"653 687 CURVE SMOOTH",
"653 403 LINE SMOOTH",
"653 172 OFFCURVE",
"597 97 OFFCURVE",
"465 94 CURVE SMOOTH"
);
}
);
width = 899;
}
);
note = afii10066;
unicode = 0431;
},
{
glyphname = afii10067;
lastChange = "2017-12-16 11:27:02 +0000";
layers = (
{
layerId = "D5C3460E-3C16-46B0-9A2C-8808A9C39771";
paths = (
{
closed = 1;
nodes = (
"541 0 OFFCURVE",
"625 32 OFFCURVE",
"670 96 CURVE SMOOTH",
"714 160 OFFCURVE",
"731 235 OFFCURVE",
"731 344 CURVE SMOOTH",
"731 511 OFFCURVE",
"672 611 OFFCURVE",
"554 642 CURVE",
"654 679 OFFCURVE",
"704 763 OFFCURVE",
"704 894 CURVE SMOOTH",
"704 895 OFFCURVE",
"704 897 OFFCURVE",
"704 899 CURVE",
"703 978 OFFCURVE",
"684 1041 OFFCURVE",
"640 1096 CURVE SMOOTH",
"595 1151 OFFCURVE",
"513 1184 OFFCURVE",
"402 1184 CURVE SMOOTH",
"114 1184 LINE",
"114 0 LINE",
"418 0 LINE SMOOTH"
);
},
{
closed = 1;
nodes = (
"402 574 LINE SMOOTH",
"521 574 OFFCURVE",
"583 521 OFFCURVE",
"583 348 CURVE SMOOTH",
"583 191 OFFCURVE",
"525 115 OFFCURVE",
"392 115 CURVE SMOOTH",
"261 115 LINE",
"261 574 LINE"
);
},
{
closed = 1;
nodes = (
"386 1069 LINE SMOOTH",
"506 1069 OFFCURVE",
"569 1005 OFFCURVE",
"569 884 CURVE SMOOTH",
"569 756 OFFCURVE",
"507 685 OFFCURVE",
"411 685 CURVE SMOOTH",
"261 685 LINE",
"261 1069 LINE"
);
}
);
width = 799;
}
);
note = afii10067;
unicode = 0432;
},
{
glyphname = afii10068;
lastChange = "2017-12-16 11:27:02 +0000";
layers = (
{
layerId = "D5C3460E-3C16-46B0-9A2C-8808A9C39771";
paths = (
{
closed = 1;
nodes = (
"264 1072 LINE",
"551 1072 LINE",
"551 1184 LINE",
"114 1184 LINE",
"114 0 LINE",
"264 0 LINE"
);
}
);
width = 580;
}
);
note = afii10068;
rightKerningGroup = afii10068;
unicode = 0433;
},
{
glyphname = afii10069;
lastChange = "2017-12-16 11:27:02 +0000";
layers = (
{
layerId = "D5C3460E-3C16-46B0-9A2C-8808A9C39771";
paths = (
{
closed = 1;
nodes = (
"146 0 LINE",
"773 0 LINE",
"786 -285 LINE",
"900 -285 LINE",
"900 108 LINE",
"781 108 LINE",
"781 1184 LINE",
"287 1184 LINE",
"268 907 LINE SMOOTH",
"261 731 OFFCURVE",
"246 588 OFFCURVE",
"224 477 CURVE SMOOTH",
"179 256 OFFCURVE",
"121 167 OFFCURVE",
"20 103 CURVE",
"20 -285 LINE",
"133 -285 LINE"
);
},
{
closed = 1;
nodes = (
"221 138 OFFCURVE",
"258 179 OFFCURVE",
"285 231 CURVE SMOOTH",
"339 334 OFFCURVE",
"376 534 OFFCURVE",
"389 877 CURVE",
"407 1073 LINE",
"635 1073 LINE",
"635 108 LINE",
"176 108 LINE"
);
}
);
width = 964;
}
);
leftKerningGroup = afii10069;
note = afii10069;
unicode = 0434;
},
{
glyphname = afii10072;
lastChange = "2017-12-16 11:27:02 +0000";
layers = (
{
layerId = "D5C3460E-3C16-46B0-9A2C-8808A9C39771";
paths = (
{
closed = 1;
nodes = (
"465 587 LINE",
"485 587 LINE",
"485 0 LINE",
"610 0 LINE",
"610 587 LINE",
"629 587 LINE",
"944 0 LINE",
"1085 0 LINE",
"751 606 LINE",
"1067 1184 LINE",
"924 1184 LINE",
"628 616 LINE",
"610 616 LINE",
"610 1184 LINE",
"485 1184 LINE",
"485 616 LINE",
"467 616 LINE",
"169 1184 LINE",
"26 1184 LINE",
"343 606 LINE",
"8 0 LINE",
"149 0 LINE"
);
}
);
width = 1093;
}
);
note = afii10072;
unicode = 0436;
},
{
glyphname = afii10073;
lastChange = "2017-12-16 11:27:02 +0000";
layers = (
{
layerId = "D5C3460E-3C16-46B0-9A2C-8808A9C39771";
paths = (
{
closed = 1;
nodes = (
"377 -20 OFFCURVE",
"378 -20 OFFCURVE",
"379 -20 CURVE SMOOTH",
"571 -20 OFFCURVE",
"676 103 OFFCURVE",
"676 312 CURVE SMOOTH",
"676 315 OFFCURVE",
"676 317 OFFCURVE",
"676 320 CURVE",
"675 421 OFFCURVE",
"652 494 OFFCURVE",
"611 538 CURVE SMOOTH",
"570 581 OFFCURVE",
"531 601 OFFCURVE",
"472 617 CURVE",
"585 634 OFFCURVE",
"670 719 OFFCURVE",
"673 880 CURVE SMOOTH",
"673 882 OFFCURVE",
"673 884 OFFCURVE",
"673 887 CURVE SMOOTH",
"673 970 OFFCURVE",
"652 1043 OFFCURVE",
"606 1104 CURVE SMOOTH",
"560 1164 OFFCURVE",
"480 1202 OFFCURVE",
"380 1202 CURVE SMOOTH",
"175 1202 OFFCURVE",
"72 1093 OFFCURVE",
"72 874 CURVE",
"204 874 LINE",
"204 1018 OFFCURVE",
"261 1090 OFFCURVE",
"376 1090 CURVE SMOOTH",
"480 1090 OFFCURVE",
"538 1003 OFFCURVE",
"538 888 CURVE SMOOTH",
"538 883 OFFCURVE",
"538 877 OFFCURVE",
"538 872 CURVE SMOOTH",
"534 733 OFFCURVE",
"473 670 OFFCURVE",
"292 670 CURVE",
"292 559 LINE",
"471 559 OFFCURVE",
"537 492 OFFCURVE",
"540 337 CURVE SMOOTH",
"540 333 OFFCURVE",
"540 329 OFFCURVE",
"540 325 CURVE SMOOTH",
"540 176 OFFCURVE",
"496 89 OFFCURVE",
"381 89 CURVE SMOOTH",
"380 89 OFFCURVE",
"379 89 OFFCURVE",
"378 89 CURVE SMOOTH",
"268 90 OFFCURVE",
"213 171 OFFCURVE",
"213 333 CURVE",
"80 333 LINE",
"80 98 OFFCURVE",
"179 -19 OFFCURVE",
"376 -20 CURVE SMOOTH"
);
}
);
width = 746;
}
);
leftKerningGroup = afii10073;
note = afii10073;
unicode = 0437;
},
{
glyphname = afii10074;
lastChange = "2017-12-16 11:27:02 +0000";
layers = (
{
layerId = "D5C3460E-3C16-46B0-9A2C-8808A9C39771";
paths = (
{
closed = 1;
nodes = (
"632 909 LINE",
"632 0 LINE",
"758 0 LINE",
"758 1184 LINE",
"637 1184 LINE",
"242 272 LINE",
"242 1184 LINE",
"114 1184 LINE",
"114 0 LINE",
"238 0 LINE"
);
}
);
width = 872;
}
);
note = afii10074;
unicode = 0438;
},
{
glyphname = afii10076;
lastChange = "2017-12-16 11:27:02 +0000";
layers = (
{
layerId = "D5C3460E-3C16-46B0-9A2C-8808A9C39771";
paths = (
{
closed = 1;
nodes = (
"264 569 LINE",
"349 569 LINE",
"626 0 LINE",
"783 0 LINE",
"486 613 LINE",
"774 1184 LINE",
"618 1184 LINE",
"350 663 LINE",
"264 663 LINE",
"264 1184 LINE",
"114 1184 LINE",
"114 0 LINE",
"264 0 LINE"
);
}
);
width = 795;
}
);
note = afii10076;
unicode = 043A;
},
{
glyphname = afii10077;
lastChange = "2017-12-16 11:27:02 +0000";
layers = (
{
layerId = "D5C3460E-3C16-46B0-9A2C-8808A9C39771";
paths = (
{
closed = 1;
nodes = (
"128 -10 OFFCURVE",
"185 4 OFFCURVE",
"234 45 CURVE SMOOTH",
"282 86 OFFCURVE",
"312 143 OFFCURVE",
"336 247 CURVE SMOOTH",
"360 351 OFFCURVE",
"374 470 OFFCURVE",
"386 654 CURVE SMOOTH",
"416 1068 LINE",
"675 1068 LINE",
"675 0 LINE",
"825 0 LINE",
"825 1184 LINE",
"285 1184 LINE",
"248 654 LINE SMOOTH",
"241 559 OFFCURVE",
"234 482 OFFCURVE",
"227 423 CURVE SMOOTH",
"212 305 OFFCURVE",
"193 211 OFFCURVE",
"161 168 CURVE SMOOTH",
"128 124 OFFCURVE",
"88 105 OFFCURVE",
"23 104 CURVE",
"23 -10 LINE",
"44 -10 LINE SMOOTH"
);
}
);
width = 939;
}
);
leftKerningGroup = afii10077;
note = afii10077;
unicode = 043B;
},
{
glyphname = afii10078;
lastChange = "2017-12-16 11:27:02 +0000";
layers = (
{
layerId = "D5C3460E-3C16-46B0-9A2C-8808A9C39771";
paths = (
{
closed = 1;
nodes = (
"237 829 LINE",
"483 122 LINE",
"530 122 LINE",
"778 832 LINE",
"781 0 LINE",
"909 0 LINE",
"899 1184 LINE",
"783 1184 LINE",
"507 370 LINE",
"230 1184 LINE",
"117 1184 LINE",
"106 0 LINE",
"234 0 LINE"
);
}
);
width = 1015;
}
);
note = afii10078;
unicode = 043C;
},
{
glyphname = afii10079;
lastChange = "2017-12-16 11:27:02 +0000";
layers = (
{
layerId = "D5C3460E-3C16-46B0-9A2C-8808A9C39771";
paths = (
{
closed = 1;
nodes = (
"264 556 LINE",
"634 556 LINE",
"634 0 LINE",
"784 0 LINE",
"784 1184 LINE",
"634 1184 LINE",
"634 669 LINE",
"264 669 LINE",
"264 1184 LINE",
"114 1184 LINE",
"114 0 LINE",
"264 0 LINE"
);
}
);
width = 898;
}
);
note = afii10079;
unicode = 043D;
},
{
glyphname = afii10081;
lastChange = "2017-12-16 11:27:02 +0000";
layers = (
{
layerId = "D5C3460E-3C16-46B0-9A2C-8808A9C39771";
paths = (
{
closed = 1;
nodes = (
"264 1067 LINE",
"597 1067 LINE",
"597 0 LINE",
"747 0 LINE",
"747 1184 LINE",
"114 1184 LINE",
"114 0 LINE",
"264 0 LINE"
);
}
);
width = 861;
}
);
note = afii10081;
unicode = 043F;
},
{
glyphname = afii10084;
lastChange = "2017-12-16 11:27:02 +0000";
layers = (
{
layerId = "D5C3460E-3C16-46B0-9A2C-8808A9C39771";
paths = (
{
closed = 1;
nodes = (
"420 1070 LINE",
"672 1070 LINE",
"672 1184 LINE",
"14 1184 LINE",
"14 1070 LINE",
"270 1070 LINE",
"270 0 LINE",
"420 0 LINE"
);
}
);
width = 686;
}
);
leftKerningGroup = afii10084;
note = afii10084;
rightKerningGroup = afii10084;
unicode = 0442;
},
{
glyphname = afii10085;
lastChange = "2017-12-16 11:27:02 +0000";
layers = (
{
layerId = "D5C3460E-3C16-46B0-9A2C-8808A9C39771";
paths = (
{
closed = 1;
nodes = (
"203 -295 OFFCURVE",
"268 -284 OFFCURVE",
"336 -247 CURVE SMOOTH",
"404 -211 OFFCURVE",
"443 -144 OFFCURVE",
"467 -37 CURVE SMOOTH",
"739 1184 LINE",
"593 1184 LINE",
"475 557 LINE",
"403 153 LINE",
"322 562 LINE",
"193 1184 LINE",
"50 1184 LINE",
"305 92 LINE SMOOTH",
"314 53 OFFCURVE",
"318 17 OFFCURVE",
"318 -14 CURVE SMOOTH",
"318 -27 OFFCURVE",
"317 -40 OFFCURVE",
"316 -51 CURVE",
"305 -130 OFFCURVE",
"232 -174 OFFCURVE",
"87 -175 CURVE",
"87 -300 LINE"
);
}
);
width = 782;
}
);
leftKerningGroup = afii10085;
note = afii10085;
rightKerningGroup = afii10085;
unicode = 0443;
},
{
glyphname = afii10086;
lastChange = "2017-12-16 11:27:02 +0000";
layers = (
{
layerId = "D5C3460E-3C16-46B0-9A2C-8808A9C39771";
paths = (
{
closed = 1;
nodes = (
"642 81 LINE",
"691 81 LINE SMOOTH",
"731 81 OFFCURVE",
"767 84 OFFCURVE",
"799 90 CURVE SMOOTH",
"862 101 OFFCURVE",
"935 137 OFFCURVE",
"980 198 CURVE SMOOTH",
"1024 259 OFFCURVE",
"1056 368 OFFCURVE",
"1056 513 CURVE SMOOTH",
"1056 726 LINE SMOOTH",
"1056 886 OFFCURVE",
"1020 999 OFFCURVE",
"956 1062 CURVE SMOOTH",
"891 1125 OFFCURVE",
"811 1150 OFFCURVE",
"706 1150 CURVE SMOOTH",
"642 1150 LINE",
"642 1658 LINE",
"504 1658 LINE",
"504 1150 LINE",
"446 1150 LINE SMOOTH",
"339 1150 OFFCURVE",
"260 1125 OFFCURVE",
"194 1062 CURVE SMOOTH",
"128 999 OFFCURVE",
"92 886 OFFCURVE",
"92 726 CURVE SMOOTH",
"92 513 LINE SMOOTH",
"92 461 OFFCURVE",
"96 414 OFFCURVE",
"104 371 CURVE SMOOTH",
"119 286 OFFCURVE",
"142 229 OFFCURVE",
"181 185 CURVE SMOOTH",
"220 141 OFFCURVE",
"258 117 OFFCURVE",
"310 101 CURVE SMOOTH",
"361 85 OFFCURVE",
"404 81 OFFCURVE",
"460 81 CURVE SMOOTH",
"504 81 LINE",
"504 -390 LINE",
"642 -390 LINE"
);
},
{
closed = 1;
nodes = (
"433 188 OFFCURVE",
"406 190 OFFCURVE",
"384 195 CURVE",
"340 203 OFFCURVE",
"294 229 OFFCURVE",
"269 276 CURVE SMOOTH",
"244 323 OFFCURVE",
"227 401 OFFCURVE",
"227 512 CURVE SMOOTH",
"227 744 LINE SMOOTH",
"227 796 OFFCURVE",
"231 840 OFFCURVE",
"238 877 CURVE SMOOTH",
"252 950 OFFCURVE",
"273 993 OFFCURVE",
"313 1018 CURVE SMOOTH",
"352 1042 OFFCURVE",
"390 1049 OFFCURVE",
"450 1049 CURVE SMOOTH",
"504 1049 LINE",
"504 188 LINE",
"464 188 LINE SMOOTH"
);
},
{
closed = 1;
nodes = (
"642 1049 LINE",
"697 1049 LINE SMOOTH",
"773 1049 OFFCURVE",
"817 1037 OFFCURVE",
"860 996 CURVE SMOOTH",
"903 955 OFFCURVE",
"922 872 OFFCURVE",
"922 744 CURVE SMOOTH",
"922 512 LINE SMOOTH",
"922 457 OFFCURVE",
"918 409 OFFCURVE",
"911 370 CURVE SMOOTH",
"895 291 OFFCURVE",
"871 248 OFFCURVE",
"828 221 CURVE SMOOTH",
"785 194 OFFCURVE",
"746 188 OFFCURVE",
"683 188 CURVE SMOOTH",
"642 188 LINE"
);
}
);
width = 1148;
}
);
note = afii10086;
unicode = 0444;
},
{
glyphname = afii10088;
lastChange = "2017-12-16 11:27:02 +0000";
layers = (
{
layerId = "D5C3460E-3C16-46B0-9A2C-8808A9C39771";
paths = (
{
closed = 1;
nodes = (
"873 106 LINE",
"755 106 LINE",
"755 1184 LINE",
"605 1184 LINE",
"605 106 LINE",
"264 106 LINE",
"264 1184 LINE",
"114 1184 LINE",
"114 0 LINE",
"749 0 LINE",
"762 -285 LINE",
"873 -285 LINE"
);
}
);
width = 898;
}
);
note = afii10088;
unicode = 0446;
},
{
glyphname = afii10089;
lastChange = "2017-12-16 11:27:02 +0000";
layers = (
{
layerId = "D5C3460E-3C16-46B0-9A2C-8808A9C39771";
paths = (
{
closed = 1;
nodes = (
"698 1184 LINE",
"548 1184 LINE",
"548 600 LINE",
"497 588 OFFCURVE",
"449 582 OFFCURVE",
"406 582 CURVE SMOOTH",
"286 582 OFFCURVE",
"231 635 OFFCURVE",
"231 743 CURVE SMOOTH",
"231 1184 LINE",
"81 1184 LINE",
"81 746 LINE SMOOTH",
"81 554 OFFCURVE",
"194 473 OFFCURVE",
"374 473 CURVE SMOOTH",
"415 473 OFFCURVE",
"473 480 OFFCURVE",
"548 494 CURVE",
"548 0 LINE",
"698 0 LINE"
);
}
);
width = 814;
}
);
note = afii10089;
unicode = 0447;
},
{
glyphname = afii10090;
lastChange = "2017-12-16 11:27:02 +0000";
layers = (
{
layerId = "D5C3460E-3C16-46B0-9A2C-8808A9C39771";
paths = (
{
closed = 1;
nodes = (
"1071 1184 LINE",
"925 1184 LINE",
"925 106 LINE",
"666 106 LINE",
"666 1184 LINE",
"520 1184 LINE",
"520 106 LINE",
"260 106 LINE",
"260 1184 LINE",
"114 1184 LINE",
"114 0 LINE",
"1071 0 LINE"
);
}
);
width = 1185;
}
);
note = afii10090;
unicode = 0448;
},
{
glyphname = afii10091;
lastChange = "2017-12-16 11:27:02 +0000";
layers = (
{
layerId = "D5C3460E-3C16-46B0-9A2C-8808A9C39771";
paths = (
{
closed = 1;
nodes = (
"1196 106 LINE",
"1077 106 LINE",
"1077 1184 LINE",
"932 1184 LINE",
"932 106 LINE",
"669 106 LINE",
"669 1184 LINE",
"524 1184 LINE",
"524 106 LINE",
"259 106 LINE",
"259 1184 LINE",
"114 1184 LINE",
"114 0 LINE",
"1071 0 LINE",
"1086 -285 LINE",
"1196 -285 LINE"
);
}
);
width = 1250;
}
);
note = afii10091;
unicode = 0449;
},
{
glyphname = afii10092;
lastChange = "2017-12-16 11:27:02 +0000";
layers = (
{
layerId = "D5C3460E-3C16-46B0-9A2C-8808A9C39771";
paths = (
{
closed = 1;
nodes = (
"620 0 OFFCURVE",
"731 34 OFFCURVE",
"791 99 CURVE SMOOTH",
"851 163 OFFCURVE",
"873 240 OFFCURVE",
"873 348 CURVE SMOOTH",
"873 393 OFFCURVE",
"869 432 OFFCURVE",
"862 467 CURVE SMOOTH",
"847 536 OFFCURVE",
"811 600 OFFCURVE",
"751 640 CURVE SMOOTH",
"691 679 OFFCURVE",
"596 703 OFFCURVE",
"471 703 CURVE SMOOTH",
"398 703 LINE",
"398 1184 LINE",
"-5 1184 LINE",
"-5 1072 LINE",
"248 1072 LINE",
"248 0 LINE",
"459 0 LINE SMOOTH"
);
},
{
closed = 1;
nodes = (
"464 608 LINE SMOOTH",
"509 608 OFFCURVE",
"547 604 OFFCURVE",
"580 595 CURVE SMOOTH",
"645 577 OFFCURVE",
"682 548 OFFCURVE",
"706 503 CURVE SMOOTH",
"729 458 OFFCURVE",
"735 413 OFFCURVE",
"735 349 CURVE SMOOTH",
"735 265 OFFCURVE",
"722 210 OFFCURVE",
"682 164 CURVE SMOOTH",
"642 118 OFFCURVE",
"570 95 OFFCURVE",
"459 95 CURVE SMOOTH",
"398 95 LINE",
"398 608 LINE"
);
}
);
width = 934;
}
);
note = afii10092;
rightKerningGroup = afii10092;
unicode = 044A;
},
{
glyphname = afii10093;
lastChange = "2017-12-16 11:27:02 +0000";
layers = (
{
layerId = "D5C3460E-3C16-46B0-9A2C-8808A9C39771";
paths = (
{
closed = 1;
nodes = (
"486 0 OFFCURVE",
"597 34 OFFCURVE",
"657 99 CURVE SMOOTH",
"717 163 OFFCURVE",
"739 240 OFFCURVE",
"739 348 CURVE SMOOTH",
"739 461 OFFCURVE",
"717 539 OFFCURVE",
"659 604 CURVE SMOOTH",
"601 669 OFFCURVE",
"493 702 OFFCURVE",
"337 703 CURVE SMOOTH",
"264 703 LINE",
"264 1184 LINE",
"114 1184 LINE",
"114 0 LINE",
"325 0 LINE SMOOTH"
);
},
{
closed = 1;
nodes = (
"330 608 LINE SMOOTH",
"375 608 OFFCURVE",
"413 604 OFFCURVE",
"446 595 CURVE SMOOTH",
"511 577 OFFCURVE",
"548 548 OFFCURVE",
"572 503 CURVE SMOOTH",
"595 458 OFFCURVE",
"601 413 OFFCURVE",
"601 349 CURVE SMOOTH",
"601 265 OFFCURVE",
"588 210 OFFCURVE",
"548 164 CURVE SMOOTH",
"508 118 OFFCURVE",
"436 95 OFFCURVE",
"325 95 CURVE SMOOTH",
"264 95 LINE",
"264 608 LINE"
);
},
{
closed = 1;
nodes = (
"1039 1184 LINE",
"889 1184 LINE",
"889 0 LINE",
"1039 0 LINE"
);
}
);
width = 1153;
}
);
note = afii10093;
unicode = 044B;
},
{
glyphname = afii10094;
lastChange = "2017-12-16 11:27:02 +0000";
layers = (
{
layerId = "D5C3460E-3C16-46B0-9A2C-8808A9C39771";
paths = (
{
closed = 1;
nodes = (
"486 0 OFFCURVE",
"597 34 OFFCURVE",
"657 99 CURVE SMOOTH",
"717 163 OFFCURVE",
"739 240 OFFCURVE",
"739 348 CURVE SMOOTH",
"739 461 OFFCURVE",
"717 539 OFFCURVE",
"659 604 CURVE SMOOTH",
"601 669 OFFCURVE",
"493 702 OFFCURVE",
"337 703 CURVE SMOOTH",
"264 703 LINE",
"264 1184 LINE",
"114 1184 LINE",
"114 0 LINE",
"325 0 LINE SMOOTH"
);
},
{
closed = 1;
nodes = (
"330 608 LINE SMOOTH",
"375 608 OFFCURVE",
"413 604 OFFCURVE",
"446 595 CURVE SMOOTH",
"511 577 OFFCURVE",
"548 548 OFFCURVE",
"572 503 CURVE SMOOTH",
"595 458 OFFCURVE",
"601 413 OFFCURVE",
"601 349 CURVE SMOOTH",
"601 265 OFFCURVE",
"588 210 OFFCURVE",
"548 164 CURVE SMOOTH",
"508 118 OFFCURVE",
"436 95 OFFCURVE",
"325 95 CURVE SMOOTH",
"264 95 LINE",
"264 608 LINE"
);
}
);
width = 796;
}
);
note = afii10094;
rightKerningGroup = afii10094;
unicode = 044C;
},
{
glyphname = afii10095;
lastChange = "2017-12-16 11:27:02 +0000";
layers = (
{
layerId = "D5C3460E-3C16-46B0-9A2C-8808A9C39771";
paths = (
{
closed = 1;
nodes = (
"529 -19 OFFCURVE",
"609 15 OFFCURVE",
"656 97 CURVE SMOOTH",
"703 179 OFFCURVE",
"719 286 OFFCURVE",
"719 459 CURVE SMOOTH",
"719 725 LINE SMOOTH",
"719 768 OFFCURVE",
"718 806 OFFCURVE",
"717 839 CURVE SMOOTH",
"713 903 OFFCURVE",
"702 977 OFFCURVE",
"683 1026 CURVE SMOOTH",
"664 1074 OFFCURVE",
"633 1121 OFFCURVE",
"590 1148 CURVE SMOOTH",
"546 1175 OFFCURVE",
"484 1192 OFFCURVE",
"407 1192 CURVE SMOOTH",
"357 1192 OFFCURVE",
"314 1186 OFFCURVE",
"277 1173 CURVE SMOOTH",
"203 1148 OFFCURVE",
"162 1107 OFFCURVE",
"135 1040 CURVE SMOOTH",
"108 973 OFFCURVE",
"101 909 OFFCURVE",
"101 817 CURVE SMOOTH",
"101 784 LINE",
"239 784 LINE",
"239 824 LINE SMOOTH",
"239 1003 OFFCURVE",
"273 1080 OFFCURVE",
"405 1080 CURVE SMOOTH",
"471 1080 OFFCURVE",
"515 1058 OFFCURVE",
"537 1013 CURVE SMOOTH",
"558 968 OFFCURVE",
"569 883 OFFCURVE",
"569 756 CURVE SMOOTH",
"569 641 LINE",
"257 641 LINE",
"257 550 LINE",
"569 550 LINE",
"569 434 LINE SMOOTH",
"569 303 OFFCURVE",
"559 214 OFFCURVE",
"539 166 CURVE SMOOTH",
"518 118 OFFCURVE",
"474 94 OFFCURVE",
"406 94 CURVE SMOOTH",
"286 94 OFFCURVE",
"239 156 OFFCURVE",
"239 341 CURVE SMOOTH",
"239 367 LINE",
"101 367 LINE",
"101 341 LINE SMOOTH",
"101 295 OFFCURVE",
"104 255 OFFCURVE",
"109 220 CURVE SMOOTH",
"119 151 OFFCURVE",
"144 84 OFFCURVE",
"189 45 CURVE SMOOTH",
"233 5 OFFCURVE",
"305 -19 OFFCURVE",
"404 -19 CURVE SMOOTH"
);
}
);
width = 811;
}
);
note = afii10095;
unicode = 044D;
},
{
glyphname = afii10096;
lastChange = "2017-12-16 11:27:02 +0000";
layers = (
{
layerId = "D5C3460E-3C16-46B0-9A2C-8808A9C39771";
paths = (
{
closed = 1;
nodes = (
"930 -19 OFFCURVE",
"1003 124 OFFCURVE",
"1003 428 CURVE SMOOTH",
"1003 756 LINE SMOOTH",
"1003 1060 OFFCURVE",
"930 1202 OFFCURVE",
"709 1202 CURVE SMOOTH",
"594 1202 OFFCURVE",
"518 1164 OFFCURVE",
"474 1085 CURVE SMOOTH",
"430 1005 OFFCURVE",
"414 905 OFFCURVE",
"414 756 CURVE SMOOTH",
"414 638 LINE",
"250 638 LINE",
"250 1184 LINE",
"114 1184 LINE",
"114 0 LINE",
"250 0 LINE",
"250 537 LINE",
"414 537 LINE",
"414 428 LINE SMOOTH",
"414 124 OFFCURVE",
"486 -19 OFFCURVE",
"709 -19 CURVE SMOOTH"
);
},
{
closed = 1;
nodes = (
"680 94 OFFCURVE",
"655 100 OFFCURVE",
"635 111 CURVE SMOOTH",
"595 133 OFFCURVE",
"574 163 OFFCURVE",
"563 224 CURVE SMOOTH",
"551 284 OFFCURVE",
"549 331 OFFCURVE",
"549 420 CURVE SMOOTH",
"549 764 LINE SMOOTH",
"549 809 OFFCURVE",
"550 845 OFFCURVE",
"552 873 CURVE SMOOTH",
"555 929 OFFCURVE",
"565 998 OFFCURVE",
"588 1032 CURVE SMOOTH",
"611 1066 OFFCURVE",
"650 1090 OFFCURVE",
"709 1090 CURVE SMOOTH",
"738 1090 OFFCURVE",
"762 1085 OFFCURVE",
"782 1074 CURVE SMOOTH",
"822 1052 OFFCURVE",
"843 1021 OFFCURVE",
"855 961 CURVE SMOOTH",
"866 900 OFFCURVE",
"868 853 OFFCURVE",
"868 764 CURVE SMOOTH",
"868 420 LINE SMOOTH",
"868 375 OFFCURVE",
"867 339 OFFCURVE",
"866 311 CURVE",
"862 255 OFFCURVE",
"852 187 OFFCURVE",
"829 153 CURVE SMOOTH",
"806 119 OFFCURVE",
"766 94 OFFCURVE",
"709 94 CURVE SMOOTH"
);
}
);
width = 1097;
}
);
note = afii10096;
unicode = 044E;
},
{
glyphname = afii10097;
lastChange = "2017-12-16 11:27:02 +0000";
layers = (
{
layerId = "D5C3460E-3C16-46B0-9A2C-8808A9C39771";
paths = (
{
closed = 1;
nodes = (
"406 485 LINE",
"439 481 OFFCURVE",
"491 479 OFFCURVE",
"561 479 CURVE",
"561 0 LINE",
"711 0 LINE",
"711 1184 LINE",
"501 1184 LINE SMOOTH",
"341 1184 OFFCURVE",
"232 1149 OFFCURVE",
"175 1084 CURVE SMOOTH",
"118 1019 OFFCURVE",
"97 944 OFFCURVE",
"97 837 CURVE SMOOTH",
"97 685 OFFCURVE",
"147 560 OFFCURVE",
"266 513 CURVE",
"32 0 LINE",
"194 0 LINE"
);
},
{
closed = 1;
nodes = (
"309 573 OFFCURVE",
"235 653 OFFCURVE",
"235 836 CURVE SMOOTH",
"235 920 OFFCURVE",
"246 972 OFFCURVE",
"282 1020 CURVE SMOOTH",
"318 1068 OFFCURVE",
"388 1091 OFFCURVE",
"495 1091 CURVE SMOOTH",
"561 1091 LINE",
"561 572 LINE",
"508 572 LINE SMOOTH"
);
}
);
width = 825;
}
);
note = afii10097;
unicode = 044F;
},
{
glyphname = afii10099;
lastChange = "2017-12-16 11:27:02 +0000";
layers = (
{
layerId = "D5C3460E-3C16-46B0-9A2C-8808A9C39771";
paths = (
{
closed = 1;
nodes = (
"484 -268 OFFCURVE",
"521 -265 OFFCURVE",
"553 -259 CURVE SMOOTH",
"616 -247 OFFCURVE",
"661 -228 OFFCURVE",
"693 -187 CURVE SMOOTH",
"724 -146 OFFCURVE",
"742 -108 OFFCURVE",
"752 -35 CURVE SMOOTH",
"762 38 OFFCURVE",
"764 100 OFFCURVE",
"764 207 CURVE SMOOTH",
"764 790 LINE SMOOTH",
"764 923 OFFCURVE",
"681 1000 OFFCURVE",
"545 1000 CURVE SMOOTH",
"433 1000 OFFCURVE",
"333 953 OFFCURVE",
"285 912 CURVE",
"285 1275 LINE",
"553 1275 LINE",
"553 1368 LINE",
"285 1368 LINE",
"285 1658 LINE",
"135 1658 LINE",
"135 1368 LINE",
"-13 1368 LINE",
"-13 1275 LINE",
"135 1275 LINE",
"135 0 LINE",
"285 0 LINE",
"285 824 LINE",
"326 864 OFFCURVE",
"416 901 OFFCURVE",
"495 901 CURVE SMOOTH",
"574 901 OFFCURVE",
"614 860 OFFCURVE",
"614 763 CURVE SMOOTH",
"614 182 LINE SMOOTH",
"614 82 OFFCURVE",
"613 26 OFFCURVE",
"602 -30 CURVE SMOOTH",
"591 -87 OFFCURVE",
"577 -112 OFFCURVE",
"546 -135 CURVE SMOOTH",
"515 -158 OFFCURVE",
"477 -163 OFFCURVE",
"417 -163 CURVE SMOOTH",
"385 -163 LINE",
"385 -268 LINE",
"441 -268 LINE SMOOTH"
);
}
);
width = 871;
}
);
note = afii10099;
unicode = 0452;
},
